<svg width="30" height="30" viewBox="0 0 30 30" fill="none" xmlns="http://www.w3.org/2000/svg">
<g clip-path="url(#clip0_2204_77467)">
<path d="M9.99699 0.6C8.91139 0.879369 7.89181 1.37081 6.997 2.046C5.953 2.952 1.42901 8.334 0.193009 11.088C0.048606 11.3925 -0.0171692 11.7283 0.00169759 12.0648C0.0205643 12.4012 0.123471 12.7276 0.301009 13.014L0.391009 13.134C0.643009 13.434 0.391009 15.102 0.391009 16.494C0.395275 17.165 0.345111 17.8352 0.241009 18.498C0.23808 18.5279 0.23808 18.5581 0.241009 18.588C0.169009 19.11 -0.11299 21.306 0.967008 22.074C2.04701 22.842 3.277 23.562 3.781 24.414C4.201 25.134 4.705 26.748 8.887 28.8C10.4393 29.5726 12.1577 29.9517 13.891 29.904C14.521 29.904 15.259 29.904 16.057 29.904C17.011 29.952 17.857 29.958 18.529 29.946C19.9165 29.9316 21.2659 29.4895 22.393 28.68C24.2475 27.3099 25.8014 25.5741 26.959 23.58C29.959 18.576 29.623 19.926 29.959 17.022C30.092 15.6756 29.9407 14.3162 29.515 13.032C29.1328 11.798 28.8577 10.5333 28.693 9.252C28.5966 8.39231 28.4321 7.54163 28.201 6.708C27.703 5.34 21.001 0.078 19.495 0C18.1992 0.012773 16.9075 0.147366 15.637 0.402C15.637 0.402 10.429 0.486 9.99699 0.6Z" fill="#19A6B8"/>
<path d="M0.193498 11.088C0.0490944 11.3925 -0.0166809 11.7283 0.00218588 12.0648C0.0210527 12.4013 0.12396 12.7276 0.301498 13.014L0.391498 13.134C0.643498 13.434 0.391498 15.102 0.391498 16.494C0.395764 17.165 0.3456 17.8352 0.241498 18.498C0.238569 18.528 0.238569 18.5581 0.241498 18.588C0.169498 19.11 -0.112502 21.306 0.967498 22.074C2.0475 22.842 3.2775 23.562 3.7815 24.414C4.2015 25.134 4.7055 26.748 8.8875 28.8C10.4398 29.5726 12.1582 29.9517 13.8915 29.904C14.5215 29.904 15.2595 29.904 16.0575 29.904C17.0115 29.952 17.8575 29.958 18.5295 29.946C19.9171 29.9316 21.2664 29.4895 22.3935 28.68C24.248 27.3099 25.802 25.5742 26.9595 23.58C28.2255 21.462 28.8915 20.484 29.2695 19.842C29.2035 19.998 4.3455 5.05204 4.3335 5.04004C2.7255 7.02004 0.907498 9.49204 0.193498 11.088Z" fill="#2EA5B1"/>
<path d="M29.2027 16.4039C29.0047 15.4079 29.1187 15.3419 28.9447 14.7179C28.7785 14.221 28.6442 13.7139 28.5427 13.1999C28.3747 12.2939 28.6027 12.1079 28.0867 10.4459C27.5707 8.78389 28.0027 9.76189 27.8887 8.81989C27.7747 7.87789 27.8887 7.97389 27.6607 7.45789C27.4327 6.94189 24.3007 4.30789 21.5647 2.39989C20.8027 1.87789 21.0847 1.25989 19.3387 0.821889C17.5927 0.383889 17.1487 1.27189 15.6907 0.995889C14.2327 0.719889 14.4487 1.18789 13.1167 1.21789C11.7847 1.24789 10.1167 1.49389 9.19868 2.29189C8.28068 3.08989 6.44468 5.13589 6.42068 5.16589C6.42068 5.16589 4.65669 8.39989 4.44069 10.0379C4.30688 11.0876 4.30688 12.1501 4.44069 13.1999C4.48269 14.1899 4.30869 14.0459 4.71669 15.2699C5.12469 16.4939 4.95669 16.6919 5.37669 18.0839C5.79668 19.4759 6.60068 19.3319 7.09868 20.8799C7.59668 22.4279 9.00068 20.7419 9.00068 21.9179C9.00068 23.0939 10.7467 23.0219 11.1307 23.3219C11.5147 23.6219 9.25868 25.8899 10.2787 26.3999C11.2987 26.9099 14.8207 26.8919 16.7707 27.3959C18.7207 27.8999 22.1707 27.2399 22.8727 27.1979C23.5747 27.1559 24.7687 25.2779 25.3267 24.8519C25.8847 24.4259 29.2867 19.9619 29.2867 19.9619C29.4175 19.2436 29.4758 18.5139 29.4607 17.7839C29.4907 16.4699 29.4007 17.3999 29.2027 16.4039Z" fill="#1C6B77"/>
<path d="M23.4005 11.5739C21.2045 4.83588 15.2765 0.749883 10.2005 2.44788C5.12448 4.14588 2.70048 10.9799 4.89648 17.7239C5.25116 18.8035 5.71349 19.8447 6.27648 20.8319C7.34447 20.0399 7.20047 19.3619 7.20047 19.3619C7.20047 19.3619 8.18447 17.9999 8.58047 18.5099C8.97647 19.0199 8.97647 18.8399 9.07247 19.3619C9.16847 19.8839 10.1945 19.6199 9.07247 20.4359C7.95047 21.2519 9.75047 20.3159 7.95047 21.2459C7.58501 21.4336 7.20349 21.5882 6.81048 21.7079C9.63647 25.9619 14.1305 28.1819 18.1325 26.8499C23.2445 25.1519 25.6025 18.3119 23.4005 11.5739Z" fill="#138297"/>
<path d="M5.72475 21.186C4.41075 21.924 5.43675 22.116 6.81075 21.708C6.62475 21.426 6.45075 21.108 6.27675 20.832C6.10085 20.9622 5.91643 21.0805 5.72475 21.186Z" fill="#207A87"/>
<path d="M9.07236 20.436C10.1944 19.62 9.16235 19.878 9.07236 19.362C8.98236 18.846 8.56236 19.362 8.16636 18.84C7.77036 18.318 7.21236 19.362 7.21236 19.362C7.21236 19.362 7.34436 20.04 6.27637 20.832C6.45037 21.132 6.62437 21.432 6.81037 21.708C7.20338 21.5883 7.5849 21.4337 7.95036 21.246C9.75035 20.316 7.95036 21.246 9.07236 20.436Z" fill="#0A6977"/>
<path d="M20.1909 19.5782C20.1909 19.5782 22.9029 20.6222 24.0549 20.3702C25.2069 20.1182 25.2549 19.3022 25.9869 18.3662C26.2689 18.0122 26.1429 17.4722 27.0489 17.2082C27.9549 16.9442 26.1069 14.8682 26.1069 14.8682L20.1909 19.5782Z" fill="#144C54"/>
<path d="M20.7843 5.26807C20.7843 5.26807 16.6743 6.19207 16.5183 9.00007C16.4523 10.2601 15.6843 10.6261 15.4023 11.3581C15.232 11.9067 14.9725 12.4236 14.6343 12.8881C14.1903 13.5241 14.1903 15.3661 14.3223 16.0141C14.4572 16.6491 14.8174 17.2139 15.3363 17.6041C15.9363 18.2041 16.3923 18.2461 17.8683 18.6661C19.3443 19.0861 19.4223 19.4701 20.4003 19.6201C21.1615 19.764 21.9468 19.7112 22.6819 19.4665C23.4169 19.2219 24.0772 18.7935 24.6003 18.2221L20.7843 5.26807Z" fill="#3DAAB2"/>
<path d="M18.4025 26.6642C18.2088 26.9159 17.9962 27.1526 17.7665 27.3722C16.9698 28.2279 15.8881 28.7634 14.7245 28.8782C13.3685 28.8782 10.3325 28.7882 9.21053 28.1762C8.21988 27.5196 7.37111 26.6708 6.71452 25.6802C6.67524 25.0968 6.67524 24.5115 6.71452 23.9282C6.71452 23.9282 7.11652 23.1542 8.73652 23.3282C8.93532 23.3559 9.1358 23.3699 9.33653 23.3702C11.1665 23.3702 12.1805 22.3082 13.0685 22.4822C14.0525 22.6682 16.9505 23.5202 17.4185 23.8982C17.8865 24.2762 19.2305 25.5782 18.4025 26.6642Z" fill="#59BBCE"/>
<path d="M18.1868 26.7358C17.4008 27.7618 15.9908 28.7998 14.8028 28.7998C12.8108 28.7998 10.3628 28.6258 9.46883 28.1398C8.56165 27.5237 7.77473 26.7469 7.14683 25.8478C7.12033 25.3482 7.12033 24.8475 7.14683 24.3478C7.3039 24.2165 7.48573 24.118 7.68155 24.0582C7.87737 23.9985 8.08319 23.9786 8.28683 23.9998C8.44534 23.9986 8.60374 24.0086 8.76083 24.0298C8.98164 24.0587 9.20414 24.0728 9.42683 24.0718C10.2955 24.0488 11.1498 23.8444 11.9348 23.4718C12.2553 23.3135 12.6001 23.2101 12.9548 23.1658C12.9986 23.1596 13.043 23.1596 13.0868 23.1658C13.8226 23.3285 14.5495 23.5288 15.2648 23.7658C15.9579 23.9457 16.6297 24.1991 17.2688 24.5218C17.4488 24.6538 18.8708 25.8418 18.1868 26.7358Z" fill="#15424D"/>
<path d="M15.552 25.5841C15.3957 26.0355 15.1393 26.4458 14.802 26.7841C14.6029 26.9422 14.3733 27.0574 14.1275 27.1225C13.8818 27.1876 13.6252 27.201 13.374 27.1621C12.6939 26.9406 11.9918 26.7937 11.28 26.7241C10.68 26.7241 9.47999 27.0361 8.91599 26.7241C8.35199 26.4121 8.60399 26.1241 8.31599 25.7101C8.02799 25.2961 8.31599 24.0301 8.31599 24.0301C8.4745 24.0288 8.6329 24.0389 8.78999 24.0601C9.01079 24.089 9.2333 24.103 9.45599 24.1021C10.3247 24.0791 11.1789 23.8747 11.964 23.5021C12.2845 23.3438 12.6293 23.2404 12.984 23.1961C13.0278 23.1898 13.0722 23.1898 13.116 23.1961C13.8517 23.3588 14.5787 23.5591 15.294 23.7961L15.57 24.2701C15.6408 24.7058 15.6347 25.1505 15.552 25.5841Z" fill="#002931"/>
<path d="M2.40005 22.1039H2.27405C2.04605 22.0319 0.960049 21.4319 0.834049 21.1079C0.810525 21.046 0.810525 20.9777 0.834049 20.9159C0.857446 20.7005 0.857446 20.4832 0.834049 20.2679V20.1839L0.876049 20.1179C0.885315 20.0361 0.885315 19.9536 0.876049 19.8719C0.829984 19.6305 0.868105 19.3806 0.984049 19.1639C1.03573 19.0965 1.10341 19.0431 1.18094 19.0086C1.25847 18.974 1.34341 18.9593 1.42805 18.9659C1.55573 18.969 1.68261 18.9871 1.80605 19.0199C2.13483 19.0965 2.46725 19.1566 2.80205 19.1999C3.51005 19.3199 4.00205 19.3979 4.00205 19.8719C4.01303 19.9838 4.03514 20.0943 4.06805 20.2019C4.15557 20.3884 4.17406 20.5999 4.12022 20.7988C4.06638 20.9977 3.94371 21.171 3.77405 21.2879L3.54605 21.4679C3.22805 21.7789 2.83221 21.9986 2.40005 22.1039Z" fill="#299781"/>
<path d="M0.96637 20.2259C1.14637 19.9559 0.60637 18.8879 1.75837 19.1879C2.91037 19.4879 3.83437 19.4219 3.85837 19.8899C3.88237 20.3579 4.24237 20.7299 3.70237 21.1319C3.16237 21.5339 2.62837 22.0079 2.32237 21.9059C2.01637 21.8039 0.91837 21.1319 0.96637 20.9639C0.994167 20.7187 0.994167 20.4711 0.96637 20.2259Z" fill="#167280"/>
<path d="M6.9839 10.8838L6.5999 11.2078H6.5279H6.4499C6.25399 11.2597 6.05254 11.2879 5.8499 11.2918C5.57511 11.311 5.30257 11.2307 5.0822 11.0654C4.86183 10.9001 4.70836 10.661 4.6499 10.3918C4.6499 10.3918 4.6679 12.5998 7.7999 12.5998C9.03414 12.5915 10.2659 12.4872 11.4839 12.2878C11.4237 10.9384 11.1774 9.60376 10.7519 8.32178C9.444 9.09683 8.18557 9.95249 6.9839 10.8838Z" fill="#358891"/>
<path d="M10.6267 7.96182C10.431 7.43025 10.1943 6.91469 9.91867 6.41982C9.79267 6.20382 9.67267 5.99382 9.54667 5.81982C8.76667 5.93382 7.50667 7.24182 6.76267 8.42382C6.63557 8.6303 6.54049 8.85485 6.48067 9.08982C6.42179 9.35164 6.41642 9.62266 6.46488 9.88661C6.51333 10.1506 6.61463 10.402 6.76267 10.6258C6.76267 10.6258 7.77667 9.82782 9.00667 8.99382C9.60667 8.59782 10.1707 8.26782 10.6387 8.00382L10.6267 7.96182Z" fill="#0F363F"/>
<path d="M9.6001 3.31207C10.9202 3.29397 12.2399 3.3742 13.5481 3.55207C14.4901 3.78607 15.2221 3.55207 15.5221 4.38007C15.6181 4.63207 15.5881 4.72807 15.7261 5.26807C15.9089 5.80075 15.9442 6.37298 15.8281 6.92407C15.6541 7.63807 14.8261 10.7461 12.7381 11.7601" fill="#1C6B77"/>
<path d="M14.0887 7.00195C13.9447 4.37395 13.0087 4.00195 13.0087 4.00195C13.2016 4.14579 13.3528 4.33838 13.4467 4.55995C13.5087 4.71647 13.5393 4.88364 13.5367 5.05195C13.5367 7.16995 12.1027 7.64395 12.0367 7.66195C11.5891 7.84512 11.1558 8.06173 10.7407 8.30995C11.1662 9.59193 11.4125 10.9265 11.4727 12.276C12.1196 12.1719 12.7182 11.8695 13.1857 11.4106C13.6533 10.9516 13.9667 10.3588 14.0827 9.71395C14.1769 8.81251 14.1789 7.90381 14.0887 7.00195Z" fill="#247275"/>
<path d="M13.5125 4.66216C13.4218 4.43872 13.27 4.24534 13.0745 4.10416C12.3425 3.54016 10.9505 3.42616 9.66053 3.42616C9.06637 3.39973 8.47243 3.48313 7.90853 3.67216C7.85453 3.67216 7.72853 3.77416 7.72853 3.77416C7.43453 3.88816 6.41453 4.32016 5.51453 6.05417C4.85242 7.22668 4.55377 8.56955 4.65653 9.91217C4.65877 10.1307 4.68697 10.3483 4.74053 10.5602C4.79713 10.8246 4.94588 11.0602 5.1602 11.2251C5.37451 11.39 5.64045 11.4733 5.91053 11.4602C6.11371 11.4578 6.3156 11.4276 6.51053 11.3702H6.58853H6.66653L7.04453 11.0462C8.24283 10.0903 9.49706 9.20674 10.8005 8.40017C11.2157 8.15368 11.6489 7.93906 12.0965 7.75817C12.1625 7.75817 13.5905 7.26017 13.5905 5.14216C13.5961 4.97861 13.5696 4.81554 13.5125 4.66216ZM12.0005 7.40417C12.0005 7.40417 11.4905 7.63817 10.6985 8.08217C10.2365 8.34017 9.67853 8.68217 9.07253 9.07217C7.87253 9.90617 6.82853 10.7042 6.82853 10.7042L6.49253 10.9862C5.54453 11.2742 5.09453 10.8542 4.90253 10.4462C4.83173 10.3011 4.78705 10.1447 4.77053 9.98417C4.67051 8.63207 4.95111 7.27899 5.58053 6.07817C6.54053 4.20016 7.72853 3.84616 7.72853 3.84616C8.27453 3.37816 11.6105 3.31216 12.7985 4.32616C12.9279 4.42399 13.0334 4.54984 13.1072 4.69429C13.181 4.83873 13.2211 4.99801 13.2245 5.16017C13.2305 7.01417 12.0005 7.40417 12.0005 7.40417Z" fill="#1298B3"/>
<path d="M13.4472 4.54174C13.3533 4.32017 13.2022 4.12758 13.0092 3.98374C12.2712 3.42574 10.8792 3.31174 9.58922 3.31174C8.99753 3.28613 8.40606 3.36743 7.84322 3.55174L7.66322 3.65374C7.34522 3.77974 6.31922 4.19974 5.40122 5.94574C4.74758 7.1232 4.45542 8.46718 4.56122 9.80974C4.57999 10.0125 4.61612 10.2132 4.66922 10.4097C4.72768 10.6789 4.88115 10.9181 5.10152 11.0833C5.3219 11.2486 5.59443 11.329 5.86922 11.3097C6.07186 11.3059 6.27331 11.2777 6.46922 11.2257H6.54722H6.61922L7.00322 10.9017C8.20019 9.96059 9.45462 9.09491 10.7592 8.30974C11.1743 8.06152 11.6076 7.84491 12.0552 7.66174C12.1212 7.66174 13.5552 7.16974 13.5552 5.05174C13.5545 4.87614 13.5177 4.70256 13.4472 4.54174ZM11.9292 7.28374C11.9292 7.28374 11.4132 7.52374 10.6272 7.96174C10.1592 8.22574 9.60122 8.56174 8.99522 8.95174C7.76522 9.78574 6.75122 10.5837 6.75122 10.5837L6.42122 10.8717C5.46722 11.1537 5.01722 10.7337 4.82522 10.3257C4.75577 10.1802 4.71115 10.024 4.69322 9.86374C4.59305 8.51356 4.87369 7.16236 5.50322 5.96374C6.46922 4.10374 7.65722 3.72574 7.65722 3.72574C8.19722 3.26374 11.5332 3.19774 12.7212 4.20574C12.8506 4.30356 12.9561 4.42942 13.0299 4.57386C13.1037 4.7183 13.1438 4.87758 13.1472 5.03974C13.1592 6.89974 11.9292 7.28374 11.9292 7.28374Z" fill="#59BBCE"/>
<path d="M12.7325 4.19989C11.5325 3.19189 8.20846 3.25789 7.66846 3.71989C8.41918 4.27591 9.05664 4.97039 9.54646 5.76589C9.93336 5.72469 10.3236 5.72469 10.7105 5.76589H10.8845C11.0518 5.79686 11.2113 5.86063 11.3539 5.95351C11.4964 6.0464 11.6192 6.16657 11.7151 6.30711C11.8111 6.44765 11.8782 6.60578 11.9128 6.77239C11.9473 6.939 11.9486 7.1108 11.9165 7.27789C11.9165 7.27789 13.1465 6.89389 13.1465 5.02789C13.1436 4.86774 13.1049 4.71026 13.0332 4.567C12.9616 4.42373 12.8588 4.2983 12.7325 4.19989Z" fill="#115965"/>
<path d="M9.53421 5.77793C9.04438 4.98243 8.40693 4.28795 7.6562 3.73193C7.6562 3.73193 6.4562 4.10993 5.5022 5.96993C4.87266 7.16856 4.59203 8.51976 4.6922 9.86993C4.71013 10.0302 4.75474 10.1864 4.8242 10.3319C5.0162 10.7399 5.4662 11.1599 6.4202 10.8779L6.7502 10.5899C6.60216 10.3661 6.50086 10.1147 6.4524 9.85072C6.40395 9.58677 6.40932 9.31575 6.4682 9.05393C6.52915 8.82312 6.6242 8.6027 6.7502 8.39993C7.4942 7.19993 8.75421 5.90993 9.53421 5.79593V5.77793Z" fill="#196C7B"/>
<path d="M10.8961 5.77211H10.7221C10.3352 5.73091 9.94501 5.73091 9.55811 5.77211C9.68411 5.95811 9.8041 6.16811 9.9301 6.37211C10.2057 6.86698 10.4424 7.38254 10.6381 7.91411C11.4241 7.47611 11.9401 7.23611 11.9401 7.23611C11.9908 6.90421 11.9102 6.56561 11.7152 6.29224C11.5203 6.01888 11.2264 5.83229 10.8961 5.77211Z" fill="#0F363F"/>
<path d="M26.263 15.1199C25.255 13.4999 24.085 12.6479 24.085 11.8919C24.085 11.1359 24.643 9.90593 24.085 8.24393C23.527 6.58193 23.719 5.66993 22.135 5.29193C21.6618 5.18672 21.1713 5.18589 20.6978 5.28951C20.2242 5.39313 19.779 5.59871 19.393 5.89193C19.2133 6.05433 19.045 6.22873 18.889 6.41393L18.835 6.48593C18.895 6.55193 18.961 6.63593 19.045 6.71993C19.2265 6.47262 19.4271 6.23991 19.645 6.02393C20.2113 5.63491 20.8781 5.41819 21.565 5.39993C21.7671 5.40099 21.9684 5.42515 22.165 5.47193C23.221 5.72393 23.365 6.26993 23.683 7.36793C23.767 7.65593 23.857 7.96793 23.965 8.30393C24.2414 9.18719 24.2704 10.1293 24.049 11.0279C24.0121 11.2923 23.9961 11.5591 24.001 11.8259C24.001 12.4259 24.421 12.9059 24.997 13.5959C25.4309 14.1058 25.8317 14.6429 26.197 15.2039C26.713 16.0199 26.425 16.2719 25.729 16.8779C25.3308 17.2018 24.9794 17.5794 24.685 17.9999C24.5876 18.1463 24.4609 18.271 24.313 18.3659C24.3168 18.4038 24.3168 18.442 24.313 18.4799C24.4934 18.3495 24.648 18.1867 24.769 17.9999C25.615 16.6739 27.169 16.5659 26.263 15.1199Z" fill="#59BBCE"/>
<path d="M19.8007 7.68598L19.9447 7.63198C20.2758 7.55206 20.6219 7.55865 20.9498 7.65112C21.2776 7.74359 21.5762 7.91882 21.8167 8.15998C22.1185 8.73984 22.275 9.38429 22.2727 10.038C22.1714 10.7243 22.1714 11.4217 22.2727 12.108C22.7887 12.4713 23.2222 12.9395 23.5447 13.482C23.586 14.195 23.5131 14.91 23.3287 15.6C23.3887 15.714 23.4727 15.846 23.5867 16.02C24.0547 16.746 23.8987 16.992 24.1207 17.544C24.2274 17.8146 24.2922 18.0998 24.3127 18.39C24.4607 18.295 24.5874 18.1704 24.6847 18.024C24.9755 17.6043 25.3228 17.2267 25.7167 16.902C26.4127 16.302 26.7007 16.044 26.1847 15.228C25.8194 14.6669 25.4186 14.1298 24.9847 13.62C24.3847 12.93 23.9887 12.42 23.9887 11.85C24.0004 11.5737 24.0345 11.2988 24.0907 11.028C24.3147 10.1212 24.2836 9.17015 24.0007 8.27998C23.8927 7.94398 23.8027 7.63198 23.7187 7.34398C23.4007 6.24598 23.2447 5.69998 22.2007 5.44798C22.0041 5.40119 21.8028 5.37704 21.6007 5.37598C20.8975 5.3849 20.2126 5.60204 19.6327 5.99998C19.4148 6.21595 19.2142 6.44866 19.0327 6.69598C19.2727 6.98998 19.5487 7.33198 19.8007 7.68598Z" fill="#196C7B"/>
<path d="M20.5022 11.7842C20.8463 12.2206 21.2321 12.6225 21.6542 12.9842C22.1222 13.4582 22.4042 13.5842 22.5902 14.0402C22.681 14.3223 22.8059 14.5923 22.9622 14.8442C23.1542 15.1562 23.1422 15.2222 23.3282 15.5522C23.512 14.8702 23.587 14.1635 23.5502 13.4582C23.2276 12.9157 22.7942 12.4475 22.2782 12.0842C22.1768 11.3979 22.1768 10.7004 22.2782 10.0142C22.2804 9.36048 22.1239 8.71603 21.8222 8.13617C21.5816 7.89501 21.283 7.71978 20.9552 7.62731C20.6274 7.53484 20.2813 7.52825 19.9502 7.60817L19.8062 7.66217C20.1304 8.06277 20.3675 8.52667 20.5022 9.02417C20.6222 9.99017 20.0042 11.1242 20.5022 11.7842Z" fill="#0F363F"/>
<path d="M24.2225 18.3662C23.6076 18.7139 22.906 18.8784 22.2005 18.8402C21.5856 18.8593 20.9732 18.7532 20.4005 18.5282C19.9565 18.3082 19.4665 17.5782 18.9305 16.3382L18.8705 16.1942C18.6545 15.6782 18.4265 15.0782 18.1925 14.3942C17.9623 13.4074 17.9623 12.3809 18.1925 11.3942C18.2999 10.7881 18.3541 10.1737 18.3545 9.55819C18.3508 9.32119 18.3186 9.0855 18.2585 8.85619C18.2552 8.80424 18.2552 8.75213 18.2585 8.70019C18.2553 7.97192 18.5104 7.2661 18.9785 6.70819C18.9005 6.62419 18.9005 6.55819 18.8405 6.49219C18.3545 7.09219 17.6885 8.01019 17.9225 8.94619C18.2825 10.4582 17.2565 12.7142 17.8625 14.5022C18.0665 15.1022 18.2885 15.7022 18.5345 16.3022C19.0385 17.5022 19.6265 18.5402 20.2565 18.8582C20.9082 19.0954 21.6047 19.184 22.295 19.1175C22.9853 19.0511 23.6521 18.8313 24.2465 18.4742C24.2465 18.4742 24.2285 18.4382 24.2225 18.3662Z" fill="#1298B3"/>
<path d="M24.3123 18.3661C23.7023 18.7099 23.0076 18.8742 22.3083 18.8401C21.6935 18.8576 21.0814 18.7515 20.5083 18.5281C20.0703 18.3061 19.5783 17.5741 19.0443 16.3381L18.9843 16.1941C18.7683 15.6781 18.5403 15.0781 18.3063 14.3941C18.076 13.4074 18.076 12.3809 18.3063 11.3941C18.4107 10.7876 18.4649 10.1735 18.4683 9.55812C18.4586 9.32161 18.4265 9.08655 18.3723 8.85612C18.3661 8.80431 18.3661 8.75194 18.3723 8.70012C18.3659 7.97131 18.6214 7.26443 19.0923 6.70812C19.0083 6.62412 18.9423 6.54012 18.8823 6.47412C18.3963 7.07412 17.8023 8.01012 18.0363 8.94612C18.4023 10.4581 17.3703 12.7141 17.9823 14.5021C18.1863 15.1021 18.4083 15.7021 18.6543 16.3021C19.1583 17.5021 19.7463 18.5401 20.3703 18.8581C21.022 19.0953 21.7184 19.1839 22.4087 19.1175C23.0991 19.051 23.7658 18.8312 24.3603 18.4741C24.3481 18.4365 24.332 18.4003 24.3123 18.3661Z" fill="#59BBCE"/>
<path d="M23.5858 15.9962C23.4718 15.8222 23.3878 15.6902 23.3278 15.5762C23.3278 15.7082 23.2858 15.8342 23.2678 15.9362C23.1778 16.5962 20.7418 17.5142 19.5238 16.5362C19.3504 16.3994 19.1634 16.2808 18.9658 16.1822L19.0258 16.3262C19.5598 17.5622 20.0518 18.2942 20.4898 18.5162C21.0629 18.7396 21.675 18.8457 22.2898 18.8282C22.9891 18.8622 23.6839 18.6979 24.2938 18.3542C24.2733 18.064 24.2085 17.7788 24.1018 17.5082C23.8978 16.9682 24.0538 16.7222 23.5858 15.9962Z" fill="#0E5A65"/>
<path d="M18.325 8.70587C18.3188 8.75768 18.3188 8.81005 18.325 8.86187C18.3791 9.0923 18.4113 9.32736 18.421 9.56387C18.421 9.47387 18.883 8.09987 19.783 7.68587C19.525 7.33187 19.249 6.98987 19.021 6.71387C18.5587 7.27356 18.3119 7.98009 18.325 8.70587Z" fill="#0E5A65"/>
<path d="M23.2686 15.936C23.2686 15.834 23.3046 15.708 23.3286 15.576C23.1426 15.246 23.1546 15.18 22.9626 14.868C22.8064 14.6162 22.6814 14.3462 22.5906 14.064C22.4046 13.608 22.1226 13.464 21.6546 13.008C21.2325 12.6464 20.8467 12.2445 20.5026 11.808C20.0046 11.148 20.6226 10.008 20.5026 9.07203C20.3693 8.56558 20.13 8.09318 19.8006 7.68604C18.9006 8.10003 18.4626 9.48603 18.4386 9.56403C18.4371 10.1793 18.385 10.7934 18.2826 11.4C18.0523 12.3868 18.0523 13.4133 18.2826 14.4C18.5166 15.084 18.7446 15.684 18.9606 16.2C19.1582 16.2987 19.3452 16.4173 19.5186 16.554C20.7426 17.514 23.1786 16.596 23.2686 15.936Z" fill="#032C35"/>
<path d="M29.502 13.08C29.1198 11.846 28.8448 10.5813 28.68 9.3C28.5901 8.42448 28.4296 7.55766 28.2 6.708C27.702 5.34 21 0.078 19.494 0C18.1983 0.012773 16.9066 0.147366 15.636 0.402C15.636 0.402 10.428 0.48 9.99603 0.606C8.91043 0.885369 7.89085 1.37681 6.99603 2.052C6.04256 2.99189 5.1526 3.9941 4.33203 5.052C4.33203 5.052 6.35403 3.012 7.33203 2.184C8.31003 1.356 10.2 1.128 11.64 1.092C13.08 1.056 13.044 1.194 14.64 1.476C16.236 1.758 16.44 0.582 18.318 1.02C20.196 1.458 20.028 1.758 20.856 2.28C23.856 4.182 27.252 6.804 27.498 7.326C27.744 7.848 27.624 7.758 27.75 8.7C27.876 9.642 27.408 8.67 27.966 10.338C28.524 12.006 28.278 12.192 28.47 13.104C28.5766 13.6278 28.721 14.1431 28.902 14.646C29.088 15.276 28.968 15.336 29.184 16.344C29.4 17.352 28.848 16.536 29.112 17.802C29.3067 18.4799 29.3618 19.1902 29.274 19.89C29.796 19.008 29.766 18.744 29.952 17.07C30.0832 15.7232 29.9298 14.3638 29.502 13.08Z" fill="#41D6E1"/>
<path d="M6.18004 14.9282C6.61414 14.9282 6.96604 14.5736 6.96604 14.1362C6.96604 13.6988 6.61414 13.3442 6.18004 13.3442C5.74595 13.3442 5.39404 13.6988 5.39404 14.1362C5.39404 14.5736 5.74595 14.9282 6.18004 14.9282Z" fill="#136470"/>
<path d="M11.8385 13.7101C11.7365 13.1101 11.1605 12.5101 11.8385 12.6061C12.5165 12.7021 12.8585 12.0721 13.3865 12.4501C13.9145 12.8281 13.7885 12.5101 13.9865 13.3921C14.1845 14.2741 13.8785 14.7001 13.5065 14.9281C13.1345 15.1561 13.0685 14.8681 12.5405 15.1681C12.0125 15.4681 11.7185 15.9421 11.5325 15.3421C11.4725 15.131 11.4716 14.9076 11.5298 14.696C11.588 14.4844 11.703 14.2928 11.8625 14.1421C11.9525 14.0521 11.8385 13.7101 11.8385 13.7101Z" fill="#1E4E57"/>
<path d="M10.5066 22.4039C10.5066 22.4039 11.7906 19.1039 13.8306 19.1459C15.8706 19.1879 15.6006 21.2459 16.2006 21.7079C16.8006 22.1699 17.0766 22.9079 15.8886 22.9079C14.7006 22.9079 14.1426 21.9899 13.3446 21.9779C12.5466 21.9659 12.0786 21.8699 11.4726 22.2479C10.8666 22.6259 10.8426 22.4819 10.6266 22.4819C10.4106 22.4819 10.5066 22.4039 10.5066 22.4039Z" fill="#084F59"/>
<path d="M26.0163 20.0582C26.0163 20.0582 26.0163 19.6982 26.3283 19.6802C26.6403 19.6622 26.9283 19.6802 27.0243 19.8722C27.0714 20.2726 26.9916 20.6776 26.7963 21.0302C26.6103 21.2822 26.1183 21.6302 25.8603 21.9182C25.6023 22.2062 25.2603 22.7942 25.1403 22.3022C25.0203 21.8102 25.0323 21.5162 25.3443 21.2582C25.5764 21.0225 25.7348 20.7244 25.8003 20.4002C25.8499 20.2735 25.9232 20.1574 26.0163 20.0582Z" fill="#14869A"/>
<path d="M27.3247 19.1461C27.4274 19.1461 27.5107 18.9957 27.5107 18.8101C27.5107 18.6246 27.4274 18.4741 27.3247 18.4741C27.2219 18.4741 27.1387 18.6246 27.1387 18.8101C27.1387 18.9957 27.2219 19.1461 27.3247 19.1461Z" fill="#14869A"/>
</g>
<defs>
<clipPath id="clip0_2204_77467">
<rect width="30" height="30" fill="white"/>
</clipPath>
</defs>
</svg>
