<svg width="810" height="810" viewBox="0 0 810 810" fill="none" xmlns="http://www.w3.org/2000/svg">
<path d="M810 0H0V809.987H810V0Z" fill="url(#paint0_radial_2204_76918)"/>
<g opacity="0.2">
<path d="M225.98 5V476.31L5 564.717" stroke="#C5BCFF" stroke-linecap="round" stroke-linejoin="round"/>
<path d="M261.77 5V476.31L5 604.708" stroke="#C5BCFF" stroke-linecap="round" stroke-linejoin="round"/>
<path d="M297.561 5V476.31L5 671.341" stroke="#C5BCFF" stroke-linecap="round" stroke-linejoin="round"/>
<path d="M333.356 5V476.31L5.17188 804.381" stroke="#C5BCFF" stroke-linecap="round" stroke-linejoin="round"/>
<path d="M369.143 5V476.31L204.91 804.381" stroke="#C5BCFF" stroke-linecap="round" stroke-linejoin="round"/>
<path d="M404.936 5V476.31L404.656 804.381" stroke="#C5BCFF" stroke-linecap="round" stroke-linejoin="round"/>
<path d="M440.729 5V476.31L604.396 804.381" stroke="#C5BCFF" stroke-linecap="round" stroke-linejoin="round"/>
<path d="M476.519 5V476.31L804.137 804.381" stroke="#C5BCFF" stroke-linecap="round" stroke-linejoin="round"/>
<path d="M512.313 5V476.31L804.999 671.647" stroke="#C5BCFF" stroke-linecap="round" stroke-linejoin="round"/>
<path d="M548.105 5V476.31L805 604.879" stroke="#C5BCFF" stroke-linecap="round" stroke-linejoin="round"/>
<path d="M583.894 5V476.31L804.997 564.828" stroke="#C5BCFF" stroke-linecap="round" stroke-linejoin="round"/>
<path d="M619.688 5V476.31L804.998 538.13" stroke="#C5BCFF" stroke-linecap="round" stroke-linejoin="round"/>
<path d="M655.477 5V476.31L804.996 519.063" stroke="#C5BCFF" stroke-linecap="round" stroke-linejoin="round"/>
<path d="M691.269 5V476.31L805 504.764" stroke="#C5BCFF" stroke-linecap="round" stroke-linejoin="round"/>
<path d="M727.063 5V476.31L805 493.642" stroke="#C5BCFF" stroke-linecap="round" stroke-linejoin="round"/>
<path d="M762.852 5V476.31L804.998 484.746" stroke="#C5BCFF" stroke-linecap="round" stroke-linejoin="round"/>
<path d="M798.642 5V476.31L804.998 477.465" stroke="#C5BCFF" stroke-linecap="round" stroke-linejoin="round"/>
<path d="M5 519.005L154.396 476.31V5" stroke="#C5BCFF" stroke-linecap="round" stroke-linejoin="round"/>
<path d="M190.187 5V476.31L5 538.054" stroke="#C5BCFF" stroke-linecap="round" stroke-linejoin="round"/>
<path d="M118.607 5V476.31L5 504.722" stroke="#C5BCFF" stroke-linecap="round" stroke-linejoin="round"/>
<path d="M82.8131 5V476.31L5.00195 493.606" stroke="#C5BCFF" stroke-linecap="round" stroke-linejoin="round"/>
<path d="M47.0218 5V476.31L5 484.715" stroke="#C5BCFF" stroke-linecap="round" stroke-linejoin="round"/>
<path d="M11.2275 5V476.31L5 477.443" stroke="#C5BCFF" stroke-linecap="round" stroke-linejoin="round"/>
<path d="M5 440.548H804.999" stroke="#C5BCFF" stroke-linecap="round" stroke-linejoin="round"/>
<path d="M5 404.781H804.999" stroke="#C5BCFF" stroke-linecap="round" stroke-linejoin="round"/>
<path d="M5 369.019H804.999" stroke="#C5BCFF" stroke-linecap="round" stroke-linejoin="round"/>
<path d="M5 333.257H804.999" stroke="#C5BCFF" stroke-linecap="round" stroke-linejoin="round"/>
<path d="M5 297.49H804.999" stroke="#C5BCFF" stroke-linecap="round" stroke-linejoin="round"/>
<path d="M5 261.727H804.999" stroke="#C5BCFF" stroke-linecap="round" stroke-linejoin="round"/>
<path d="M5 225.965H804.999" stroke="#C5BCFF" stroke-linecap="round" stroke-linejoin="round"/>
<path d="M5 190.198H804.999" stroke="#C5BCFF" stroke-linecap="round" stroke-linejoin="round"/>
<path d="M5 154.436H804.999" stroke="#C5BCFF" stroke-linecap="round" stroke-linejoin="round"/>
<path d="M5 118.673H804.999" stroke="#C5BCFF" stroke-linecap="round" stroke-linejoin="round"/>
<path d="M5 82.9065H804.999" stroke="#C5BCFF" stroke-linecap="round" stroke-linejoin="round"/>
<path d="M5 47.1443H804.999" stroke="#C5BCFF" stroke-linecap="round" stroke-linejoin="round"/>
<path d="M5 11.3777H804.999" stroke="#C5BCFF" stroke-linecap="round" stroke-linejoin="round"/>
<path d="M804.999 633.656H5" stroke="#C5BCFF" stroke-linecap="round" stroke-linejoin="round"/>
<path d="M804.999 606.012H5" stroke="#C5BCFF" stroke-linecap="round" stroke-linejoin="round"/>
<path d="M804.999 584.327H5" stroke="#C5BCFF" stroke-linecap="round" stroke-linejoin="round"/>
<path d="M804.999 670.096H5" stroke="#C5BCFF" stroke-linecap="round" stroke-linejoin="round"/>
<path d="M804.999 566.857H5" stroke="#C5BCFF" stroke-linecap="round" stroke-linejoin="round"/>
<path d="M804.999 552.484H5" stroke="#C5BCFF" stroke-linecap="round" stroke-linejoin="round"/>
<path d="M804.999 479.524H5" stroke="#C5BCFF" stroke-linecap="round" stroke-linejoin="round"/>
<path d="M804.999 476.31H5" stroke="#C5BCFF" stroke-linecap="round" stroke-linejoin="round"/>
<path d="M804.999 486.902H5" stroke="#C5BCFF" stroke-linecap="round" stroke-linejoin="round"/>
<path d="M804.999 483.041H5" stroke="#C5BCFF" stroke-linecap="round" stroke-linejoin="round"/>
<path d="M804.999 521.44H5" stroke="#C5BCFF" stroke-linecap="round" stroke-linejoin="round"/>
<path d="M804.999 540.45H5" stroke="#C5BCFF" stroke-linecap="round" stroke-linejoin="round"/>
<path d="M804.999 720.337H5" stroke="#C5BCFF" stroke-linecap="round" stroke-linejoin="round"/>
<path d="M804.999 495.897H5" stroke="#C5BCFF" stroke-linecap="round" stroke-linejoin="round"/>
<path d="M804.999 491.168H5" stroke="#C5BCFF" stroke-linecap="round" stroke-linejoin="round"/>
<path d="M804.999 513.803H5" stroke="#C5BCFF" stroke-linecap="round" stroke-linejoin="round"/>
<path d="M804.999 507.098H5" stroke="#C5BCFF" stroke-linecap="round" stroke-linejoin="round"/>
<path d="M804.999 501.174H5" stroke="#C5BCFF" stroke-linecap="round" stroke-linejoin="round"/>
<path d="M804.999 530.229H5" stroke="#C5BCFF" stroke-linecap="round" stroke-linejoin="round"/>
<path d="M804.14 804.381H5.17285" stroke="#C5BCFF" stroke-linecap="round" stroke-linejoin="round"/>
</g>
<rect x="4" y="3" width="802" height="802" stroke="#3F4055" stroke-width="2"/>
<g opacity="0.6">
<path opacity="0.7" d="M131.129 216.041C131.129 216.996 130.772 217.474 130.058 217.474C129.344 217.474 128.987 216.996 128.987 216.041C128.987 215.086 129.344 214.608 130.058 214.608C130.415 214.608 131.129 215.086 131.129 216.041Z" fill="white"/>
<path opacity="0.7" d="M175.03 216.041C175.03 216.519 174.673 216.996 174.316 216.996C173.959 216.996 173.603 216.519 173.603 216.041C173.603 215.564 173.959 215.086 174.316 215.086C174.673 214.609 175.03 215.086 175.03 216.041Z" fill="white"/>
<path opacity="0.7" d="M88.2983 292.927C88.2983 293.404 87.9414 293.882 87.5845 293.882C87.2275 293.882 86.8706 293.404 86.8706 292.927C86.8706 292.449 87.2275 291.972 87.5845 291.972C87.9414 291.972 88.2983 292.449 88.2983 292.927Z" fill="white"/>
<path opacity="0.7" d="M582.998 234.666C582.998 235.143 582.641 235.621 582.284 235.621C581.927 235.621 581.57 235.143 581.57 234.666C581.57 234.188 581.927 233.71 582.284 233.71C582.641 233.71 582.998 234.188 582.998 234.666Z" fill="white"/>
<path opacity="0.7" d="M184.312 159.212C184.312 159.69 183.955 160.168 183.598 160.168C183.241 160.168 182.884 159.69 182.884 159.212C182.884 158.735 183.241 158.257 183.598 158.257C183.955 158.257 184.312 158.735 184.312 159.212Z" fill="white"/>
<path opacity="0.7" d="M182.883 191.208C182.883 191.686 182.526 192.163 182.169 192.163C181.812 192.163 181.456 191.686 181.456 191.208C181.456 190.73 181.812 190.253 182.169 190.253C182.526 190.253 182.883 190.73 182.883 191.208Z" fill="white"/>
<path opacity="0.7" d="M215.364 24.542C215.364 25.4971 215.007 25.9747 214.293 25.9747C213.58 25.9747 213.223 25.4971 213.223 24.542C213.223 23.5869 213.58 23.1094 214.293 23.1094C215.007 23.1094 215.364 24.0645 215.364 24.542Z" fill="white"/>
<path opacity="0.7" d="M219.289 249.47C219.289 250.425 218.575 251.38 217.861 251.38C217.147 251.38 216.434 250.425 216.434 249.47C216.434 248.515 217.147 247.56 217.861 247.56C218.932 247.56 219.289 248.515 219.289 249.47Z" fill="white"/>
<path opacity="0.7" d="M156.116 10.2164C156.116 11.1715 155.402 12.1266 154.688 12.1266C153.974 12.1266 153.26 11.1715 153.26 10.2164C153.26 9.26126 153.974 8.30615 154.688 8.30615C155.402 8.30615 156.116 8.7837 156.116 10.2164Z" fill="white"/>
<path opacity="0.7" d="M37.6156 168.764C37.6156 169.719 36.9018 170.674 36.188 170.674C35.4741 170.674 34.7603 169.719 34.7603 168.764C34.7603 167.809 35.4741 166.854 36.188 166.854C36.9018 166.854 37.6156 167.809 37.6156 168.764Z" fill="white"/>
<path opacity="0.7" d="M17.2704 319.192C17.2704 320.148 16.5566 321.103 15.8427 321.103C15.1289 321.103 14.415 320.148 14.415 319.192C14.415 318.237 15.1289 317.282 15.8427 317.282C16.9135 317.282 17.2704 318.237 17.2704 319.192Z" fill="white"/>
<path opacity="0.7" d="M86.871 179.27C86.871 180.225 86.1572 181.18 85.4433 181.18C84.7295 181.18 84.0156 180.225 84.0156 179.27C84.0156 178.314 84.7295 177.359 85.4433 177.359C86.1572 177.359 86.871 178.314 86.871 179.27Z" fill="white"/>
<path opacity="0.7" d="M55.4623 307.731C55.4623 308.686 55.1054 309.163 54.3916 309.163C53.6777 309.163 53.3208 308.686 53.3208 307.731C53.3208 306.775 53.6777 306.298 54.3916 306.298C55.1054 306.298 55.4623 306.775 55.4623 307.731Z" fill="white"/>
<path opacity="0.7" d="M74.3793 116.71C74.3793 117.665 74.0224 118.143 73.3086 118.143C72.5947 118.143 72.2378 117.665 72.2378 116.71C72.2378 115.755 72.5947 115.277 73.3086 115.277C74.0224 115.277 74.3793 116.232 74.3793 116.71Z" fill="white"/>
<path opacity="0.7" d="M37.9726 1.14246C37.9726 1.62001 37.6157 2.09756 37.2588 2.09756C36.9018 2.09756 36.5449 1.62001 36.5449 1.14246C36.5449 0.664903 36.9018 0.187346 37.2588 0.187346C37.6157 -0.290208 37.9726 0.18735 37.9726 1.14246Z" fill="white"/>
<path opacity="0.7" d="M455.93 78.9829C455.93 79.4605 455.573 79.938 455.216 79.938C454.859 79.938 454.502 79.4605 454.502 78.9829C454.502 78.5054 454.859 78.0278 455.216 78.0278C455.573 78.0278 455.93 78.0278 455.93 78.9829Z" fill="white"/>
<path opacity="0.7" d="M129.703 61.792C129.703 62.2696 129.346 62.7472 128.989 62.7472C128.632 62.7472 128.275 62.2696 128.275 61.792C128.275 61.3145 128.632 60.8369 128.989 60.8369C129.346 60.8369 129.703 61.3145 129.703 61.792Z" fill="white"/>
<path opacity="0.7" d="M363.845 338.301C363.845 338.778 363.488 339.256 363.131 339.256C362.774 339.256 362.417 338.778 362.417 338.301C362.417 337.823 362.774 337.346 363.131 337.346C363.488 337.346 363.845 337.823 363.845 338.301Z" fill="white"/>
<path opacity="0.7" d="M161.112 119.098C161.112 119.576 160.755 120.053 160.398 120.053C160.041 120.053 159.684 119.576 159.684 119.098C159.684 118.621 160.041 118.143 160.398 118.143C160.755 118.143 161.112 118.621 161.112 119.098Z" fill="white"/>
<path opacity="0.7" d="M103.645 331.609C103.645 332.087 103.289 332.565 102.932 332.565C102.575 332.565 102.218 332.087 102.218 331.609C102.218 331.132 102.575 330.654 102.932 330.654C103.289 330.654 103.645 331.132 103.645 331.609Z" fill="white"/>
<path opacity="0.7" d="M111.142 22.1549C111.142 23.11 110.428 24.0651 109.714 24.0651C109 24.0651 108.286 23.11 108.286 22.1549C108.286 21.1997 109 20.2446 109.714 20.2446C110.428 20.2446 111.142 21.1997 111.142 22.1549Z" fill="white"/>
<path opacity="0.7" d="M417.382 66.5664C417.382 67.5215 416.668 68.4767 415.955 68.4767C415.241 68.4767 414.527 67.5215 414.527 66.5664C414.527 65.6113 415.241 64.6562 415.955 64.6562C417.025 64.6562 417.382 65.1338 417.382 66.5664Z" fill="white"/>
<path opacity="0.7" d="M18.3417 291.972C18.3417 292.927 17.9848 293.404 17.271 293.404C16.5571 293.404 16.2002 292.927 16.2002 291.972C16.2002 291.017 16.5571 290.539 17.271 290.539C17.9848 290.539 18.3417 291.017 18.3417 291.972Z" fill="white"/>
<path opacity="0.7" d="M183.598 290.539C183.598 291.972 182.527 293.404 181.457 293.404C180.386 293.404 179.315 291.972 179.315 290.539C179.315 289.106 180.386 287.674 181.457 287.674C182.527 288.151 183.598 289.106 183.598 290.539Z" fill="white"/>
<path opacity="0.7" d="M119.707 241.35C119.707 241.828 119.35 242.306 118.993 242.306C118.636 242.306 118.279 241.828 118.279 241.35C118.279 240.873 118.636 240.395 118.993 240.395C119.35 239.918 119.707 240.395 119.707 241.35Z" fill="white"/>
<path opacity="0.7" d="M163.611 321.103C163.611 321.58 163.254 322.058 162.897 322.058C162.54 322.058 162.183 321.58 162.183 321.103C162.183 320.625 162.54 320.147 162.897 320.147C163.254 320.147 163.611 320.625 163.611 321.103Z" fill="white"/>
<path opacity="0.7" d="M508.399 212.698C508.399 213.175 508.042 213.653 507.685 213.653C507.328 213.653 506.971 213.175 506.971 212.698C506.971 212.22 507.328 211.743 507.685 211.743C508.042 211.743 508.399 212.22 508.399 212.698Z" fill="white"/>
<path opacity="0.7" d="M529.814 316.327C529.814 316.805 529.457 317.282 529.101 317.282C528.744 317.282 528.387 316.805 528.387 316.327C528.387 315.85 528.744 315.372 529.101 315.372C529.457 315.372 529.814 315.85 529.814 316.327Z" fill="white"/>
<path opacity="0.7" d="M422.022 310.119C422.022 310.597 421.666 311.074 421.309 311.074C420.952 311.074 420.595 310.597 420.595 310.119C420.595 309.642 420.952 309.164 421.309 309.164C421.666 309.164 422.022 309.642 422.022 310.119Z" fill="white"/>
<path opacity="0.7" d="M572.289 268.572C572.289 269.05 571.932 269.527 571.575 269.527C571.218 269.527 570.861 269.05 570.861 268.572C570.861 268.095 571.218 267.617 571.575 267.617C571.932 267.139 572.289 267.617 572.289 268.572Z" fill="white"/>
<path opacity="0.7" d="M511.256 276.69C511.256 277.645 510.542 278.6 509.828 278.6C509.114 278.6 508.4 277.645 508.4 276.69C508.4 275.734 509.114 274.779 509.828 274.779C510.542 274.779 511.256 275.734 511.256 276.69Z" fill="white"/>
<path opacity="0.7" d="M486.982 179.27C486.982 180.225 486.269 181.18 485.555 181.18C484.841 181.18 484.127 180.225 484.127 179.27C484.127 178.314 484.841 177.359 485.555 177.359C486.269 177.359 486.982 178.314 486.982 179.27Z" fill="white"/>
<path opacity="0.7" d="M510.898 326.834C510.898 327.312 510.542 327.789 510.185 327.789C509.828 327.789 509.471 327.312 509.471 326.834C509.471 326.356 509.828 325.879 510.185 325.879C510.542 325.879 510.898 326.356 510.898 326.834Z" fill="white"/>
<path opacity="0.7" d="M529.814 61.792C529.814 62.2696 529.457 62.7472 529.101 62.7472C528.744 62.7472 528.387 62.2696 528.387 61.792C528.387 61.3145 528.744 60.8369 529.101 60.8369C529.457 60.8369 529.814 61.3145 529.814 61.792Z" fill="white"/>
<path opacity="0.7" d="M525.531 124.829C525.531 125.306 525.174 125.784 524.817 125.784C524.46 125.784 524.103 125.306 524.103 124.829C524.103 124.351 524.46 123.874 524.817 123.874C525.174 123.874 525.531 124.351 525.531 124.829Z" fill="white"/>
<path opacity="0.7" d="M488.412 38.8685C488.412 39.3461 488.055 39.8236 487.698 39.8236C487.341 39.8236 486.984 39.3461 486.984 38.8685C486.984 38.391 487.341 37.9134 487.698 37.9134C488.055 37.4359 488.412 37.9134 488.412 38.8685Z" fill="white"/>
<path opacity="0.7" d="M511.256 22.1549C511.256 23.11 510.542 24.0651 509.828 24.0651C509.114 24.0651 508.4 23.11 508.4 22.1549C508.4 21.1997 509.114 20.2446 509.828 20.2446C510.542 20.2446 511.256 21.1997 511.256 22.1549Z" fill="white"/>
<path opacity="0.7" d="M451.29 165.898C451.29 166.853 450.576 167.808 449.862 167.808C449.148 167.808 448.435 166.853 448.435 165.898C448.435 164.942 449.148 163.987 449.862 163.987C450.576 163.987 451.29 164.942 451.29 165.898Z" fill="white"/>
<path opacity="0.7" d="M432.73 240.396C432.73 240.874 432.373 241.352 432.016 241.352C431.659 241.352 431.302 240.874 431.302 240.396C431.302 239.919 431.659 239.441 432.016 239.441C432.373 239.441 432.73 239.919 432.73 240.396Z" fill="white"/>
<path opacity="0.7" d="M41.5419 329.221C41.5419 330.176 41.185 330.653 40.4712 330.653C39.7573 330.653 39.4004 330.176 39.4004 329.221C39.4004 328.266 39.7573 327.788 40.4712 327.788C41.185 327.788 41.5419 328.266 41.5419 329.221Z" fill="white"/>
<path opacity="0.7" d="M322.799 216.996C322.799 218.428 321.728 219.861 320.657 219.861C319.586 219.861 318.516 218.428 318.516 216.996C318.516 215.563 319.586 214.13 320.657 214.13C321.728 214.608 322.799 215.563 322.799 216.996Z" fill="white"/>
<path opacity="0.7" d="M297.813 212.698C297.813 213.175 297.457 213.653 297.1 213.653C296.743 213.653 296.386 213.175 296.386 212.698C296.386 212.22 296.743 211.743 297.1 211.743C297.457 211.743 297.813 212.22 297.813 212.698Z" fill="white"/>
<path opacity="0.7" d="M253.913 99.0404C253.913 99.5179 253.556 99.9955 253.199 99.9955C252.842 99.9955 252.485 99.5179 252.485 99.0404C252.485 98.5628 252.842 98.0853 253.199 98.0853C253.556 97.6077 253.913 98.0853 253.913 99.0404Z" fill="white"/>
<path opacity="0.7" d="M319.585 316.327C319.585 316.805 319.228 317.282 318.871 317.282C318.514 317.282 318.157 316.805 318.157 316.327C318.157 315.85 318.514 315.372 318.871 315.372C319.228 315.372 319.585 315.85 319.585 316.327Z" fill="white"/>
<path opacity="0.7" d="M278.183 292.927C278.183 293.404 277.826 293.882 277.469 293.882C277.112 293.882 276.755 293.404 276.755 292.927C276.755 292.449 277.112 291.972 277.469 291.972C277.826 291.972 278.183 292.449 278.183 292.927Z" fill="white"/>
<path opacity="0.7" d="M372.768 332.086C372.768 332.564 372.411 333.041 372.054 333.041C371.697 333.041 371.34 332.564 371.34 332.086C371.34 331.608 371.697 331.131 372.054 331.131C372.411 331.131 372.768 331.608 372.768 332.086Z" fill="white"/>
<path opacity="0.7" d="M258.908 270.004C258.908 270.481 258.551 270.959 258.194 270.959C257.837 270.959 257.48 270.481 257.48 270.004C257.48 269.526 257.837 269.049 258.194 269.049C258.551 268.571 258.908 269.049 258.908 270.004Z" fill="white"/>
<path opacity="0.7" d="M372.768 191.208C372.768 191.686 372.411 192.163 372.054 192.163C371.697 192.163 371.34 191.686 371.34 191.208C371.34 190.73 371.697 190.253 372.054 190.253C372.411 190.253 372.768 190.73 372.768 191.208Z" fill="white"/>
<path opacity="0.7" d="M292.459 165.897C292.459 166.375 292.103 166.853 291.746 166.853C291.389 166.853 291.032 166.375 291.032 165.897C291.032 165.42 291.389 164.942 291.746 164.942C292.103 164.942 292.459 165.42 292.459 165.897Z" fill="white"/>
<path opacity="0.7" d="M204.3 216.996C204.3 217.951 203.586 218.906 202.873 218.906C202.159 218.906 201.445 217.951 201.445 216.996C201.445 216.041 202.159 215.085 202.873 215.085C203.586 215.085 204.3 216.041 204.3 216.996Z" fill="white"/>
<path opacity="0.7" d="M218.934 191.208C218.934 192.163 218.22 193.118 217.506 193.118C216.792 193.118 216.078 192.163 216.078 191.208C216.078 190.253 216.792 189.298 217.506 189.298C218.22 189.298 218.934 190.253 218.934 191.208Z" fill="white"/>
<path opacity="0.7" d="M207.156 319.192C207.156 320.148 206.442 321.103 205.728 321.103C205.014 321.103 204.3 320.148 204.3 319.192C204.3 318.237 205.014 317.282 205.728 317.282C206.442 317.282 207.156 318.237 207.156 319.192Z" fill="white"/>
<path opacity="0.7" d="M276.396 179.27C276.396 180.225 275.683 181.18 274.969 181.18C274.255 181.18 273.541 180.225 273.541 179.27C273.541 178.314 274.255 177.359 274.969 177.359C275.683 177.359 276.396 178.314 276.396 179.27Z" fill="white"/>
<path opacity="0.7" d="M245.344 307.731C245.344 308.686 244.987 309.163 244.273 309.163C243.56 309.163 243.203 308.686 243.203 307.731C243.203 306.775 243.56 306.298 244.273 306.298C244.987 306.298 245.344 306.775 245.344 307.731Z" fill="white"/>
<path opacity="0.7" d="M349.21 252.813C349.21 254.245 348.139 255.678 347.068 255.678C345.998 255.678 344.927 254.245 344.927 252.813C344.927 251.38 345.998 249.947 347.068 249.947C348.496 249.947 349.21 250.902 349.21 252.813Z" fill="white"/>
<path opacity="0.7" d="M247.488 155.392C247.488 156.347 247.131 156.825 246.417 156.825C245.703 156.825 245.346 156.347 245.346 155.392C245.346 154.437 245.703 153.959 246.417 153.959C246.774 153.959 247.488 154.437 247.488 155.392Z" fill="white"/>
<path opacity="0.7" d="M227.858 1.14246C227.858 1.62001 227.501 2.09756 227.144 2.09756C226.787 2.09756 226.43 1.62001 226.43 1.14246C226.43 0.664903 226.787 0.187346 227.144 0.187346C227.501 -0.290208 227.858 0.18735 227.858 1.14246Z" fill="white"/>
<path opacity="0.7" d="M228.569 99.9961C228.569 100.474 228.212 100.951 227.855 100.951C227.498 100.951 227.141 100.474 227.141 99.9961C227.141 99.5186 227.498 99.041 227.855 99.041C228.212 99.041 228.569 99.5186 228.569 99.9961Z" fill="white"/>
<path opacity="0.7" d="M319.585 61.792C319.585 62.2696 319.228 62.7472 318.871 62.7472C318.514 62.7472 318.157 62.2696 318.157 61.792C318.157 61.3145 318.514 60.8369 318.871 60.8369C319.228 60.8369 319.585 61.3145 319.585 61.792Z" fill="white"/>
<path opacity="0.7" d="M315.304 124.829C315.304 125.306 314.947 125.784 314.59 125.784C314.233 125.784 313.876 125.306 313.876 124.829C313.876 124.351 314.233 123.874 314.59 123.874C314.947 123.874 315.304 124.351 315.304 124.829Z" fill="white"/>
<path opacity="0.7" d="M278.183 38.8685C278.183 39.3461 277.826 39.8236 277.469 39.8236C277.112 39.8236 276.755 39.3461 276.755 38.8685C276.755 38.391 277.112 37.9134 277.469 37.9134C277.826 37.4359 278.183 37.9134 278.183 38.8685Z" fill="white"/>
<path opacity="0.7" d="M350.283 120.053C350.677 120.053 350.997 119.626 350.997 119.098C350.997 118.571 350.677 118.143 350.283 118.143C349.889 118.143 349.569 118.571 349.569 119.098C349.569 119.626 349.889 120.053 350.283 120.053Z" fill="white"/>
<path opacity="0.7" d="M259.267 15.4683C259.267 15.9458 258.91 16.4234 258.553 16.4234C258.196 16.4234 257.839 15.9458 257.839 15.4683C257.839 14.9907 258.196 14.5132 258.553 14.5132C258.91 14.5132 259.267 14.9907 259.267 15.4683Z" fill="white"/>
<path opacity="0.7" d="M20.4833 4.48494C20.4833 5.9176 19.4125 7.35026 18.3417 7.35026C17.271 7.35026 16.2002 5.9176 16.2002 4.48494C16.2002 3.05228 17.271 1.61963 18.3417 1.61963C19.7694 1.61963 20.4833 3.05228 20.4833 4.48494Z" fill="white"/>
<path opacity="0.7" d="M300.67 22.1549C300.67 23.11 299.956 24.0651 299.242 24.0651C298.528 24.0651 297.814 23.11 297.814 22.1549C297.814 21.1997 298.528 20.2446 299.242 20.2446C299.956 20.2446 300.67 21.1997 300.67 22.1549Z" fill="white"/>
<path opacity="0.7" d="M288.534 122.918C288.534 123.873 287.82 124.828 287.106 124.828C286.392 124.828 285.678 123.873 285.678 122.918C285.678 121.963 286.392 121.008 287.106 121.008C288.177 121.008 288.534 121.963 288.534 122.918Z" fill="white"/>
<path opacity="0.7" d="M264.619 97.608C264.619 98.5631 263.905 99.5182 263.191 99.5182C262.478 99.5182 261.764 98.5631 261.764 97.608C261.764 96.6528 262.478 95.6978 263.191 95.6978C264.262 95.6978 264.619 96.1753 264.619 97.608Z" fill="white"/>
<path opacity="0.7" d="M207.156 65.1343C207.156 66.0895 206.442 67.0446 205.728 67.0446C205.014 67.0446 204.3 66.0895 204.3 65.1343C204.3 64.1792 205.014 63.2241 205.728 63.2241C206.442 63.2241 207.156 63.7017 207.156 65.1343Z" fill="white"/>
<path opacity="0.7" d="M245.344 53.1949C245.344 54.15 244.987 54.6275 244.273 54.6275C243.56 54.6275 243.203 54.15 243.203 53.1949C243.203 52.2398 243.56 51.7622 244.273 51.7622C244.987 51.7622 245.344 52.7173 245.344 53.1949Z" fill="white"/>
<path opacity="0.7" d="M227.142 121.486C227.142 122.441 226.785 122.919 226.071 122.919C225.357 122.919 225 122.441 225 121.486C225 120.531 225.357 120.053 226.071 120.053C226.428 120.053 227.142 120.531 227.142 121.486Z" fill="white"/>
<path opacity="0.7" d="M291.033 89.0118C291.033 89.9669 290.676 90.4444 289.962 90.4444C289.249 90.4444 288.892 89.9669 288.892 89.0118C288.892 88.0567 289.249 87.5791 289.962 87.5791C290.319 87.5791 291.033 88.0567 291.033 89.0118Z" fill="white"/>
<path opacity="0.7" d="M202.87 115.277C202.87 116.71 201.8 118.142 200.729 118.142C199.658 118.142 198.587 116.71 198.587 115.277C198.587 113.844 199.658 112.412 200.729 112.412C202.157 112.412 202.87 113.844 202.87 115.277Z" fill="white"/>
<path opacity="0.7" d="M307.807 278.601C307.807 279.078 307.45 279.556 307.093 279.556C306.736 279.556 306.379 279.078 306.379 278.601C306.379 278.123 306.736 277.646 307.093 277.646C307.45 277.646 307.807 278.123 307.807 278.601Z" fill="white"/>
<path opacity="0.7" d="M231.067 329.221C231.067 330.176 230.71 330.653 229.997 330.653C229.283 330.653 228.926 330.176 228.926 329.221C228.926 328.266 229.283 327.788 229.997 327.788C230.71 327.788 231.067 328.266 231.067 329.221Z" fill="white"/>
<path opacity="0.7" d="M339.216 43.1665C339.216 43.6441 338.859 44.1216 338.502 44.1216C338.145 44.1216 337.788 43.6441 337.788 43.1665C337.788 42.689 338.145 42.2114 338.502 42.2114C338.859 42.2114 339.216 42.689 339.216 43.1665Z" fill="white"/>
<path opacity="0.7" d="M330.652 161.123C330.652 162.555 329.581 163.988 328.511 163.988C327.44 163.988 326.369 162.555 326.369 161.123C326.369 159.69 327.44 158.257 328.511 158.257C329.581 158.257 330.652 159.69 330.652 161.123Z" fill="white"/>
<path opacity="0.7" d="M350.64 117.188C350.64 118.143 349.926 119.098 349.212 119.098C348.498 119.098 347.784 118.143 347.784 117.188C347.784 116.232 348.498 115.277 349.212 115.277C350.283 115.277 350.64 116.232 350.64 117.188Z" fill="white"/>
<path opacity="0.7" d="M375.266 43.1666C375.266 44.1217 374.552 45.0768 373.838 45.0768C373.124 45.0768 372.411 44.1217 372.411 43.1666C372.411 42.2115 373.124 41.2563 373.838 41.2563C374.909 41.2563 375.266 42.2115 375.266 43.1666Z" fill="white"/>
<path opacity="0.7" d="M363.488 171.628C363.488 172.584 362.774 173.539 362.06 173.539C361.346 173.539 360.632 172.584 360.632 171.628C360.632 170.673 361.346 169.718 362.06 169.718C362.774 169.718 363.488 170.673 363.488 171.628Z" fill="white"/>
<path opacity="0.7" d="M387.759 181.179C387.759 182.134 387.402 182.612 386.688 182.612C385.974 182.612 385.617 182.134 385.617 181.179C385.617 180.224 385.974 179.747 386.688 179.747C387.045 179.747 387.759 180.702 387.759 181.179Z" fill="white"/>
<path opacity="0.7" d="M491.624 125.784C491.624 125.306 491.981 124.829 492.338 124.829C492.695 124.829 493.052 125.306 493.052 125.784C493.052 126.261 492.695 126.739 492.338 126.739C491.981 127.216 491.624 126.739 491.624 125.784Z" fill="white"/>
<path opacity="0.7" d="M470.208 22.1548C470.208 21.6773 470.565 21.1997 470.922 21.1997C471.279 21.1997 471.636 21.6773 471.636 22.1548C471.636 22.6324 471.279 23.1099 470.922 23.1099C470.565 23.1099 470.208 23.1099 470.208 22.1548Z" fill="white"/>
<path opacity="0.7" d="M416.67 147.752C416.67 147.274 417.027 146.796 417.384 146.796C417.741 146.796 418.098 147.274 418.098 147.752C418.098 148.229 417.741 148.707 417.384 148.707C417.027 148.707 416.67 148.229 416.67 147.752Z" fill="white"/>
<path opacity="0.7" d="M425.593 29.7955C425.593 28.3628 426.664 26.9302 427.734 26.9302C428.805 26.9302 429.876 28.3628 429.876 29.7955C429.876 31.2281 428.805 32.6608 427.734 32.6608C426.664 32.6608 425.593 31.2281 425.593 29.7955Z" fill="white"/>
<path opacity="0.7" d="M488.77 62.2691C488.77 61.314 489.483 60.3589 490.197 60.3589C490.911 60.3589 491.625 61.314 491.625 62.2691C491.625 63.2242 490.911 64.1793 490.197 64.1793C489.483 64.1793 488.77 63.2242 488.77 62.2691Z" fill="white"/>
<path opacity="0.7" d="M474.492 214.13C474.492 213.653 474.849 213.175 475.206 213.175C475.563 213.175 475.92 213.653 475.92 214.13C475.92 214.608 475.563 215.086 475.206 215.086C474.849 215.086 474.492 214.608 474.492 214.13Z" fill="white"/>
<path opacity="0.7" d="M488.77 316.327C488.77 315.372 489.483 314.417 490.197 314.417C490.911 314.417 491.625 315.372 491.625 316.327C491.625 317.282 490.911 318.237 490.197 318.237C489.483 318.237 488.77 317.76 488.77 316.327Z" fill="white"/>
<path opacity="0.7" d="M158.614 48.42C158.614 47.9424 158.971 47.4648 159.328 47.4648C159.685 47.4648 160.042 47.9424 160.042 48.42C160.042 48.8975 159.685 49.3751 159.328 49.3751C158.971 49.3751 158.614 48.8975 158.614 48.42Z" fill="white"/>
<path opacity="0.7" d="M427.378 82.8038C427.378 81.8487 428.092 80.8936 428.806 80.8936C429.52 80.8936 430.233 81.8487 430.233 82.8038C430.233 83.7589 429.52 84.714 428.806 84.714C428.092 84.714 427.378 83.7589 427.378 82.8038Z" fill="white"/>
<path opacity="0.7" d="M392.755 19.2891C392.755 18.334 393.469 17.3789 394.183 17.3789C394.897 17.3789 395.611 18.334 395.611 19.2891C395.611 20.2442 394.897 21.1993 394.183 21.1993C393.469 21.1993 392.755 20.2442 392.755 19.2891Z" fill="white"/>
<path opacity="0.7" d="M392.755 273.825C392.755 272.87 393.469 271.915 394.183 271.915C394.897 271.915 395.611 272.87 395.611 273.825C395.611 274.78 394.897 275.735 394.183 275.735C393.112 275.735 392.755 274.78 392.755 273.825Z" fill="white"/>
<path opacity="0.7" d="M397.04 223.682C397.04 222.25 398.11 220.817 399.181 220.817C400.252 220.817 401.323 222.25 401.323 223.682C401.323 225.115 400.252 226.548 399.181 226.548C397.753 226.07 397.04 225.115 397.04 223.682Z" fill="white"/>
<path opacity="0.7" d="M662.946 216.041C662.946 216.996 662.589 217.474 661.875 217.474C661.162 217.474 660.805 216.996 660.805 216.041C660.805 215.086 661.162 214.608 661.875 214.608C662.232 214.608 662.946 215.086 662.946 216.041Z" fill="white"/>
<path opacity="0.7" d="M640.105 212.698C640.105 213.175 639.749 213.653 639.392 213.653C639.035 213.653 638.678 213.175 638.678 212.698C638.678 212.22 639.035 211.743 639.392 211.743C639.749 211.743 640.105 212.22 640.105 212.698Z" fill="white"/>
<path opacity="0.7" d="M706.848 216.041C706.848 216.519 706.491 216.996 706.134 216.996C705.777 216.996 705.42 216.519 705.42 216.041C705.42 215.564 705.777 215.086 706.134 215.086C706.491 214.609 706.848 215.086 706.848 216.041Z" fill="white"/>
<path opacity="0.7" d="M661.521 316.327C661.521 316.805 661.164 317.282 660.807 317.282C660.45 317.282 660.093 316.805 660.093 316.327C660.093 315.85 660.45 315.372 660.807 315.372C661.164 315.372 661.521 315.85 661.521 316.327Z" fill="white"/>
<path opacity="0.7" d="M100.076 69.9095C100.076 70.3871 99.7192 70.8646 99.3623 70.8646C99.0054 70.8646 98.6484 70.3871 98.6484 69.9095C98.6484 69.432 99.0054 68.9544 99.3623 68.9544C99.7192 68.4769 100.076 68.9544 100.076 69.9095Z" fill="white"/>
<path opacity="0.7" d="M794.653 252.813C794.653 253.291 794.296 253.768 793.939 253.768C793.582 253.768 793.226 253.291 793.226 252.813C793.226 252.336 793.582 251.858 793.939 251.858C794.296 251.381 794.653 251.858 794.653 252.813Z" fill="white"/>
<path opacity="0.7" d="M714.701 191.208C714.701 191.686 714.344 192.163 713.987 192.163C713.63 192.163 713.273 191.686 713.273 191.208C713.273 190.73 713.63 190.253 713.987 190.253C714.344 190.253 714.701 190.73 714.701 191.208Z" fill="white"/>
<path opacity="0.7" d="M634.752 165.897C634.752 166.375 634.395 166.853 634.038 166.853C633.681 166.853 633.324 166.375 633.324 165.897C633.324 165.42 633.681 164.942 634.038 164.942C634.395 164.942 634.752 165.42 634.752 165.897Z" fill="white"/>
<path opacity="0.7" d="M621.544 229.89C621.544 230.845 621.187 231.322 620.473 231.322C619.759 231.322 619.402 230.845 619.402 229.89C619.402 228.935 619.759 228.457 620.473 228.457C620.83 228.457 621.544 228.935 621.544 229.89Z" fill="white"/>
<path opacity="0.7" d="M4.77723 46.5098C4.77723 47.9425 3.70646 49.3752 2.63569 49.3752C1.56492 49.3752 0.494141 47.9425 0.494141 46.5098C0.494141 45.0772 1.56492 43.6445 2.63569 43.6445C4.06339 44.1221 4.77723 45.0772 4.77723 46.5098Z" fill="white"/>
<path opacity="0.7" d="M561.225 191.208C561.225 192.163 560.511 193.118 559.797 193.118C559.084 193.118 558.37 192.163 558.37 191.208C558.37 190.253 559.084 189.298 559.797 189.298C560.511 189.298 561.225 190.253 561.225 191.208Z" fill="white"/>
<path opacity="0.7" d="M618.688 179.27C618.688 180.225 617.975 181.18 617.261 181.18C616.547 181.18 615.833 180.225 615.833 179.27C615.833 178.314 616.547 177.359 617.261 177.359C617.975 177.359 618.688 178.314 618.688 179.27Z" fill="white"/>
<path opacity="0.7" d="M569.791 1.14246C569.791 1.62001 569.434 2.09756 569.077 2.09756C568.72 2.09756 568.363 1.62001 568.363 1.14246C568.363 0.664903 568.72 0.187346 569.077 0.187346C569.434 -0.290208 569.791 0.18735 569.791 1.14246Z" fill="white"/>
<path opacity="0.7" d="M718.27 44.599C718.27 45.0765 717.913 45.5541 717.556 45.5541C717.199 45.5541 716.842 45.0765 716.842 44.599C716.842 44.1214 717.199 43.6439 717.556 43.6439C717.913 43.1663 718.27 43.6439 718.27 44.599Z" fill="white"/>
<path opacity="0.7" d="M661.521 61.792C661.521 62.2696 661.164 62.7472 660.807 62.7472C660.45 62.7472 660.093 62.2696 660.093 61.792C660.093 61.3145 660.45 60.8369 660.807 60.8369C661.164 60.8369 661.521 61.3145 661.521 61.792Z" fill="white"/>
<path opacity="0.7" d="M657.237 124.829C657.237 125.306 656.88 125.784 656.523 125.784C656.166 125.784 655.81 125.306 655.81 124.829C655.81 124.351 656.166 123.874 656.523 123.874C656.88 123.874 657.237 124.351 657.237 124.829Z" fill="white"/>
<path opacity="0.7" d="M620.116 38.8685C620.116 39.3461 619.759 39.8236 619.402 39.8236C619.045 39.8236 618.688 39.3461 618.688 38.8685C618.688 38.391 619.045 37.9134 619.402 37.9134C619.759 37.4359 620.116 37.9134 620.116 38.8685Z" fill="white"/>
<path opacity="0.7" d="M692.93 119.098C692.93 119.576 692.573 120.053 692.216 120.053C691.859 120.053 691.502 119.576 691.502 119.098C691.502 118.621 691.859 118.143 692.216 118.143C692.573 118.143 692.93 118.621 692.93 119.098Z" fill="white"/>
<path opacity="0.7" d="M601.199 15.4683C601.199 15.9458 600.842 16.4234 600.485 16.4234C600.128 16.4234 599.771 15.9458 599.771 15.4683C599.771 14.9907 600.128 14.5132 600.485 14.5132C600.842 14.5132 601.199 14.9907 601.199 15.4683Z" fill="white"/>
<path opacity="0.7" d="M642.959 22.1549C642.959 23.11 642.245 24.0651 641.531 24.0651C640.817 24.0651 640.104 23.11 640.104 22.1549C640.104 21.1997 640.817 20.2446 641.531 20.2446C642.245 20.2446 642.959 21.1997 642.959 22.1549Z" fill="white"/>
<path opacity="0.7" d="M630.826 122.918C630.826 123.873 630.112 124.828 629.398 124.828C628.684 124.828 627.97 123.873 627.97 122.918C627.97 121.963 628.684 121.008 629.398 121.008C630.112 121.008 630.826 121.963 630.826 122.918Z" fill="white"/>
<path opacity="0.7" d="M606.911 97.608C606.911 98.5631 606.197 99.5182 605.483 99.5182C604.77 99.5182 604.056 98.5631 604.056 97.608C604.056 96.6528 604.77 95.6978 605.483 95.6978C606.197 95.6978 606.911 96.1753 606.911 97.608Z" fill="white"/>
<path opacity="0.7" d="M549.444 65.1343C549.444 66.0895 548.73 67.0446 548.017 67.0446C547.303 67.0446 546.589 66.0895 546.589 65.1343C546.589 64.1792 547.303 63.2241 548.017 63.2241C548.73 63.2241 549.444 63.7017 549.444 65.1343Z" fill="white"/>
<path opacity="0.7" d="M587.281 53.1949C587.281 54.15 586.924 54.6275 586.21 54.6275C585.496 54.6275 585.139 54.15 585.139 53.1949C585.139 52.2398 585.496 51.7622 586.21 51.7622C586.924 51.7622 587.281 52.7173 587.281 53.1949Z" fill="white"/>
<path opacity="0.7" d="M651.525 241.35C651.525 241.828 651.168 242.306 650.811 242.306C650.454 242.306 650.097 241.828 650.097 241.35C650.097 240.873 650.454 240.395 650.811 240.395C651.168 239.918 651.525 240.395 651.525 241.35Z" fill="white"/>
<path opacity="0.7" d="M440.227 276.213C440.227 277.168 439.513 278.123 438.799 278.123C438.085 278.123 437.371 277.168 437.371 276.213C437.371 275.258 438.085 274.303 438.799 274.303C439.513 274.303 440.227 274.78 440.227 276.213Z" fill="white"/>
<path opacity="0.7" d="M718.27 319.192C718.27 319.67 717.913 320.148 717.556 320.148C717.199 320.148 716.842 319.67 716.842 319.192C716.842 318.715 717.199 318.237 717.556 318.237C717.913 318.237 718.27 318.715 718.27 319.192Z" fill="white"/>
<path opacity="0.7" d="M573.359 329.221C573.359 330.176 573.002 330.653 572.289 330.653C571.575 330.653 571.218 330.176 571.218 329.221C571.218 328.266 571.575 327.788 572.289 327.788C573.002 327.788 573.359 328.266 573.359 329.221Z" fill="white"/>
<path opacity="0.7" d="M785.73 99.0404C785.73 99.5179 785.373 99.9955 785.016 99.9955C784.659 99.9955 784.302 99.5179 784.302 99.0404C784.302 98.5628 784.659 98.0853 785.016 98.0853C785.373 97.6077 785.73 98.0853 785.73 99.0404Z" fill="white"/>
<path opacity="0.7" d="M810 292.927C810 293.404 809.643 293.882 809.286 293.882C808.929 293.882 808.572 293.404 808.572 292.927C808.572 292.449 808.929 291.972 809.286 291.972C809.643 291.972 810 292.449 810 292.927Z" fill="white"/>
<path opacity="0.7" d="M736.118 216.996C736.118 217.951 735.404 218.906 734.69 218.906C733.977 218.906 733.263 217.951 733.263 216.996C733.263 216.041 733.977 215.085 734.69 215.085C735.404 215.085 736.118 216.041 736.118 216.996Z" fill="white"/>
<path opacity="0.7" d="M750.751 191.208C750.751 192.163 750.037 193.118 749.323 193.118C748.609 193.118 747.896 192.163 747.896 191.208C747.896 190.253 748.609 189.298 749.323 189.298C750.394 189.298 750.751 190.253 750.751 191.208Z" fill="white"/>
<path opacity="0.7" d="M738.973 319.192C738.973 320.148 738.259 321.103 737.545 321.103C736.831 321.103 736.117 320.148 736.117 319.192C736.117 318.237 736.831 317.282 737.545 317.282C738.259 317.282 738.973 318.237 738.973 319.192Z" fill="white"/>
<path opacity="0.7" d="M808.215 179.27C808.215 180.225 807.501 181.18 806.787 181.18C806.073 181.18 805.359 180.225 805.359 179.27C805.359 178.314 806.073 177.359 806.787 177.359C807.858 177.359 808.215 178.314 808.215 179.27Z" fill="white"/>
<path opacity="0.7" d="M777.162 307.731C777.162 308.686 776.806 309.163 776.092 309.163C775.378 309.163 775.021 308.686 775.021 307.731C775.021 306.775 775.378 306.298 776.092 306.298C776.806 306.298 777.162 306.775 777.162 307.731Z" fill="white"/>
<path opacity="0.7" d="M779.305 155.392C779.305 156.347 778.948 156.825 778.234 156.825C777.521 156.825 777.164 156.347 777.164 155.392C777.164 154.437 777.521 153.959 778.234 153.959C778.948 153.959 779.305 154.437 779.305 155.392Z" fill="white"/>
<path opacity="0.7" d="M794.653 506.826C794.653 507.304 794.296 507.781 793.939 507.781C793.582 507.781 793.226 507.304 793.226 506.826C793.226 506.349 793.582 505.871 793.939 505.871C794.296 505.393 794.653 505.871 794.653 506.826Z" fill="white"/>
<path opacity="0.7" d="M785.73 353.054C785.73 353.531 785.373 354.009 785.016 354.009C784.659 354.009 784.302 353.531 784.302 353.054C784.302 352.576 784.659 352.098 785.016 352.098C785.373 351.621 785.73 352.098 785.73 353.054Z" fill="white"/>
<path opacity="0.7" d="M736.118 471.009C736.118 471.964 735.404 472.919 734.69 472.919C733.977 472.919 733.263 471.964 733.263 471.009C733.263 470.054 733.977 469.099 734.69 469.099C735.404 469.099 736.118 470.054 736.118 471.009Z" fill="white"/>
<path opacity="0.7" d="M750.751 445.222C750.751 446.177 750.037 447.132 749.323 447.132C748.609 447.132 747.896 446.177 747.896 445.222C747.896 444.267 748.609 443.312 749.323 443.312C750.394 443.312 750.751 444.267 750.751 445.222Z" fill="white"/>
<path opacity="0.7" d="M808.215 433.283C808.215 434.238 807.501 435.193 806.787 435.193C806.073 435.193 805.359 434.238 805.359 433.283C805.359 432.328 806.073 431.373 806.787 431.373C807.858 431.373 808.215 432.328 808.215 433.283Z" fill="white"/>
<path opacity="0.7" d="M779.305 409.405C779.305 410.36 778.948 410.838 778.234 410.838C777.521 410.838 777.164 410.36 777.164 409.405C777.164 408.45 777.521 407.973 778.234 407.973C778.948 407.973 779.305 408.45 779.305 409.405Z" fill="white"/>
<path opacity="0.7" d="M759.675 1.14246C759.675 1.62001 759.318 2.09756 758.961 2.09756C758.605 2.09756 758.248 1.62001 758.248 1.14246C758.248 0.664903 758.605 0.187346 758.961 0.187346C759.318 -0.290208 759.675 0.18735 759.675 1.14246Z" fill="white"/>
<path opacity="0.7" d="M810 38.8685C810 39.3461 809.643 39.8236 809.286 39.8236C808.929 39.8236 808.572 39.3461 808.572 38.8685C808.572 38.391 808.929 37.9134 809.286 37.9134C809.643 37.4359 810 37.9134 810 38.8685Z" fill="white"/>
<path opacity="0.7" d="M791.084 15.4683C791.084 15.9458 790.727 16.4234 790.37 16.4234C790.013 16.4234 789.656 15.9458 789.656 15.4683C789.656 14.9907 790.013 14.5132 790.37 14.5132C790.727 14.5132 791.084 14.9907 791.084 15.4683Z" fill="white"/>
<path opacity="0.7" d="M352.067 293.882C352.067 295.315 350.997 296.747 349.926 296.747C348.855 296.747 347.784 295.315 347.784 293.882C347.784 292.449 348.855 291.017 349.926 291.017C351.353 291.494 352.067 292.449 352.067 293.882Z" fill="white"/>
<g opacity="0.7">
<path opacity="0.7" d="M392.4 80.4155L392.757 90.4441L400.609 91.3993L393.114 91.8768L392.4 102.383L391.686 91.8768L384.19 91.3993L391.686 90.4441L392.4 80.4155Z" fill="white"/>
<path opacity="0.7" d="M395.612 86.6245L393.113 90.9225L395.612 95.698L392.399 91.8776L388.83 96.1756L391.685 91.4L388.83 86.6245L392.399 90.4449L395.612 86.6245Z" fill="white"/>
</g>
<g opacity="0.7">
<path opacity="0.7" d="M311.378 59.8809L312.092 69.9095L319.587 70.8646L312.092 71.3421L311.378 81.8483L310.664 71.3421L303.169 70.8646L310.664 69.9095L311.378 59.8809Z" fill="white"/>
<path opacity="0.7" d="M314.59 66.0894L312.092 70.8649L314.59 75.1628L311.378 71.82L307.809 75.6404L311.021 70.8649L307.809 66.5669L311.378 69.9098L314.59 66.0894Z" fill="white"/>
</g>
<g opacity="0.7">
<path opacity="0.7" d="M363.132 323.491L363.489 330.177L368.843 331.132H363.489L363.132 338.773L362.775 331.132H357.421L362.775 330.177L363.132 323.491Z" fill="white"/>
<path opacity="0.7" d="M365.275 327.789L363.49 330.654L365.275 333.997L363.133 331.132L360.635 333.997L362.776 330.654L360.635 327.789L363.133 330.177L365.275 327.789Z" fill="white"/>
</g>
<g opacity="0.7">
<path opacity="0.7" d="M185.026 46.0322L185.383 52.718L190.737 53.6731H185.74L185.026 61.3139L184.669 53.6731H179.315L184.669 52.718L185.026 46.0322Z" fill="white"/>
<path opacity="0.7" d="M187.525 50.3301L185.741 53.1954L187.525 56.5383L185.027 54.1505L182.528 56.5383L184.67 53.6729L182.528 50.3301L185.027 52.7178L187.525 50.3301Z" fill="white"/>
</g>
<g opacity="0.7">
<path opacity="0.7" d="M516.966 38.3906L517.323 45.0763L522.676 46.0315H517.323L516.966 53.6723L516.609 46.0315H511.255L516.609 45.0763L516.966 38.3906Z" fill="white"/>
<path opacity="0.7" d="M519.465 42.688L517.324 45.5533L519.465 48.8962L516.967 46.5084L514.468 48.8962L516.61 46.0309L514.468 42.688L516.967 45.0758L519.465 42.688Z" fill="white"/>
</g>
<g opacity="0.7">
<path opacity="0.7" d="M670.087 295.792L670.801 305.343L678.296 306.776H670.801L670.087 317.759L669.373 306.776H661.878L669.373 305.343L670.087 295.792Z" fill="white"/>
<path opacity="0.7" d="M673.299 301.522L670.8 306.298L673.299 311.074L670.086 307.253L666.517 311.074L669.729 306.298L666.517 302L670.086 305.343L673.299 301.522Z" fill="white"/>
</g>
<g opacity="0.7">
<path opacity="0.7" d="M721.842 46.0322L722.199 52.718L727.553 53.6731H722.199L721.842 61.3139L721.485 53.6731H716.131L721.485 52.718L721.842 46.0322Z" fill="white"/>
<path opacity="0.7" d="M723.985 50.3301L722.2 53.1954L723.985 56.5383L721.843 54.1505L719.345 56.5383L721.486 53.6729L719.345 50.3301L721.843 52.7178L723.985 50.3301Z" fill="white"/>
</g>
<g opacity="0.7">
<path opacity="0.7" d="M607.981 205.058L608.338 212.221L613.692 212.698L608.338 213.176L607.981 220.339L607.624 213.176L602.271 212.698L607.624 212.221L607.981 205.058Z" fill="white"/>
<path opacity="0.7" d="M610.124 209.355L608.34 212.698L610.124 216.041L607.983 213.175L605.484 216.041L607.626 212.698L605.484 209.833L607.983 212.22L610.124 209.355Z" fill="white"/>
</g>
<g opacity="0.7">
<path opacity="0.7" d="M532.312 249.47L532.669 256.633L538.023 257.111L532.669 257.588L532.312 264.751L531.955 257.588L526.602 257.111L531.955 256.633L532.312 249.47Z" fill="white"/>
<path opacity="0.7" d="M534.455 253.768L532.67 257.11L534.455 260.453L532.313 257.588L529.815 260.453L531.957 257.11L529.815 254.245L532.313 256.633L534.455 253.768Z" fill="white"/>
</g>
<g opacity="0.7">
<path opacity="0.7" d="M564.795 60.3589L565.509 67.0446L570.506 67.9997H565.509L564.795 75.6406L564.438 67.9997H559.084L564.438 67.0446L564.795 60.3589Z" fill="white"/>
<path opacity="0.7" d="M567.294 64.6562L565.51 67.5216L567.294 70.8644L565.153 68.4767L562.297 70.8644L564.439 67.9991L562.297 64.6562L564.796 67.044L567.294 64.6562Z" fill="white"/>
</g>
<path opacity="0.7" d="M684.984 587.855C684.984 586.9 685.341 586.423 686.055 586.423C686.769 586.423 687.125 586.9 687.125 587.855C687.125 588.811 686.769 589.288 686.055 589.288C685.698 589.288 684.984 588.811 684.984 587.855Z" fill="white"/>
<path opacity="0.7" d="M641.143 584.681C641.143 584.203 641.5 583.726 641.856 583.726C642.213 583.726 642.57 584.203 642.57 584.681C642.57 585.158 642.213 585.636 641.856 585.636C641.5 586.113 641.143 585.636 641.143 584.681Z" fill="white"/>
<path opacity="0.7" d="M730.827 514.127C730.827 513.649 731.184 513.172 731.541 513.172C731.898 513.172 732.255 513.649 732.255 514.127C732.255 514.604 731.898 515.082 731.541 515.082C731.184 515.082 730.827 514.604 730.827 514.127Z" fill="white"/>
<path opacity="0.7" d="M234.509 536.817C234.509 536.34 234.866 535.862 235.223 535.862C235.58 535.862 235.937 536.34 235.937 536.817C235.937 537.295 235.58 537.772 235.223 537.772C234.866 537.772 234.509 537.295 234.509 536.817Z" fill="white"/>
<path opacity="0.7" d="M629.605 640.763C629.605 640.285 629.962 639.808 630.319 639.808C630.676 639.808 631.033 640.285 631.033 640.763C631.033 641.24 630.676 641.718 630.319 641.718C629.962 641.718 629.605 641.24 629.605 640.763Z" fill="white"/>
<path opacity="0.7" d="M632.312 608.915C632.312 608.437 632.668 607.96 633.025 607.96C633.382 607.96 633.739 608.437 633.739 608.915C633.739 609.393 633.382 609.87 633.025 609.87C632.668 609.87 632.312 609.393 632.312 608.915Z" fill="white"/>
<path opacity="0.7" d="M593.213 773.037C593.213 772.082 593.57 771.604 594.284 771.604C594.998 771.604 595.354 772.082 595.354 773.037C595.354 773.992 594.998 774.47 594.284 774.47C593.57 774.47 593.213 773.515 593.213 773.037Z" fill="white"/>
<path opacity="0.7" d="M598.287 548.177C598.287 547.222 599.001 546.266 599.714 546.266C600.428 546.266 601.142 547.222 601.142 548.177C601.142 549.132 600.428 550.087 599.714 550.087C598.644 550.087 598.287 549.132 598.287 548.177Z" fill="white"/>
<path opacity="0.7" d="M651.803 791.618C651.803 790.663 652.517 789.708 653.231 789.708C653.945 789.708 654.659 790.663 654.659 791.618C654.659 792.573 653.945 793.528 653.231 793.528C652.517 793.528 651.803 793.051 651.803 791.618Z" fill="white"/>
<path opacity="0.7" d="M776.472 641.799C776.472 640.844 777.186 639.889 777.9 639.889C778.614 639.889 779.328 640.844 779.328 641.799C779.328 642.754 778.614 643.709 777.9 643.709C777.186 643.709 776.472 642.754 776.472 641.799Z" fill="white"/>
<path opacity="0.7" d="M802.802 493.045C802.802 492.09 803.516 491.135 804.23 491.135C804.944 491.135 805.658 492.09 805.658 493.045C805.658 494 804.944 494.955 804.23 494.955C803.159 494.955 802.802 494 802.802 493.045Z" fill="white"/>
<path opacity="0.7" d="M727.708 627.775C727.708 626.82 728.421 625.865 729.135 625.865C729.849 625.865 730.563 626.82 730.563 627.775C730.563 628.73 729.849 629.686 729.135 629.686C728.421 629.686 727.708 628.73 727.708 627.775Z" fill="white"/>
<path opacity="0.7" d="M764.208 501.726C764.208 500.77 764.564 500.293 765.278 500.293C765.992 500.293 766.349 500.77 766.349 501.726C766.349 502.681 765.992 503.158 765.278 503.158C764.564 503.158 764.208 502.681 764.208 501.726Z" fill="white"/>
<path opacity="0.7" d="M737.681 691.115C737.681 690.16 738.038 689.683 738.751 689.683C739.465 689.683 739.822 690.16 739.822 691.115C739.822 692.07 739.465 692.548 738.751 692.548C738.038 692.548 737.681 691.593 737.681 691.115Z" fill="white"/>
<path opacity="0.7" d="M355.169 701.392C355.169 700.914 355.526 700.436 355.883 700.436C356.24 700.436 356.597 700.914 356.597 701.392C356.597 701.869 356.24 702.347 355.883 702.347C355.526 702.347 355.169 702.347 355.169 701.392Z" fill="white"/>
<path opacity="0.7" d="M680.241 741.96C680.241 741.482 680.598 741.005 680.955 741.005C681.312 741.005 681.668 741.482 681.668 741.96C681.668 742.437 681.312 742.915 680.955 742.915C680.598 742.915 680.241 742.437 680.241 741.96Z" fill="white"/>
<path opacity="0.7" d="M651.168 682.483C651.168 682.006 651.525 681.528 651.882 681.528C652.239 681.528 652.596 682.006 652.596 682.483C652.596 682.961 652.239 683.438 651.882 683.438C651.525 683.438 651.168 682.961 651.168 682.483Z" fill="white"/>
<path opacity="0.7" d="M717.049 474.399C717.049 473.922 717.406 473.444 717.763 473.444C718.12 473.444 718.477 473.922 718.477 474.399C718.477 474.877 718.12 475.354 717.763 475.354C717.406 475.354 717.049 474.877 717.049 474.399Z" fill="white"/>
<path opacity="0.7" d="M697.19 782.924C697.19 781.969 697.904 781.014 698.618 781.014C699.332 781.014 700.045 781.969 700.045 782.924C700.045 783.879 699.332 784.834 698.618 784.834C697.904 784.834 697.19 783.879 697.19 782.924Z" fill="white"/>
<path opacity="0.7" d="M393.165 716.607C393.165 715.652 393.879 714.697 394.593 714.697C395.307 714.697 396.021 715.652 396.021 716.607C396.021 717.562 395.307 718.518 394.593 718.518C393.522 718.518 393.165 718.04 393.165 716.607Z" fill="white"/>
<path opacity="0.7" d="M800.645 520.125C800.645 519.17 801.002 518.692 801.716 518.692C802.43 518.692 802.787 519.17 802.787 520.125C802.787 521.08 802.43 521.558 801.716 521.558C801.002 521.558 800.645 521.08 800.645 520.125Z" fill="white"/>
<path opacity="0.7" d="M635.567 509.777C635.567 508.345 636.638 506.912 637.709 506.912C638.779 506.912 639.85 508.345 639.85 509.777C639.85 511.21 638.779 512.643 637.709 512.643C636.638 512.165 635.567 511.21 635.567 509.777Z" fill="white"/>
<path opacity="0.7" d="M697.398 563.376C697.398 562.899 697.755 562.421 698.112 562.421C698.469 562.421 698.826 562.899 698.826 563.376C698.826 563.854 698.469 564.331 698.112 564.331C697.755 564.809 697.398 564.331 697.398 563.376Z" fill="white"/>
<path opacity="0.7" d="M656.75 480.59C656.75 480.112 657.106 479.635 657.463 479.635C657.82 479.635 658.177 480.112 658.177 480.59C658.177 481.067 657.82 481.545 657.463 481.545C657.106 481.545 656.75 481.067 656.75 480.59Z" fill="white"/>
<path opacity="0.7" d="M308.123 564.105C308.123 563.628 308.48 563.15 308.836 563.15C309.193 563.15 309.55 563.628 309.55 564.105C309.55 564.583 309.193 565.061 308.836 565.061C308.48 565.061 308.123 564.583 308.123 564.105Z" fill="white"/>
<path opacity="0.7" d="M290.88 459.089C290.88 458.611 291.237 458.134 291.594 458.134C291.951 458.134 292.308 458.611 292.308 459.089C292.308 459.566 291.951 460.044 291.594 460.044C291.237 460.044 290.88 459.566 290.88 459.089Z" fill="white"/>
<path opacity="0.7" d="M398.27 473.019C398.27 472.542 398.626 472.064 398.983 472.064C399.34 472.064 399.697 472.542 399.697 473.019C399.697 473.497 399.34 473.975 398.983 473.975C398.626 473.975 398.27 473.497 398.27 473.019Z" fill="white"/>
<path opacity="0.7" d="M246.554 503.728C246.554 503.25 246.911 502.773 247.268 502.773C247.624 502.773 247.981 503.25 247.981 503.728C247.981 504.205 247.624 504.683 247.268 504.683C246.911 505.16 246.554 504.683 246.554 503.728Z" fill="white"/>
<path opacity="0.7" d="M307.827 500.051C307.827 499.096 308.541 498.141 309.254 498.141C309.968 498.141 310.682 499.096 310.682 500.051C310.682 501.006 309.968 501.961 309.254 501.961C308.541 501.961 307.827 501.006 307.827 500.051Z" fill="white"/>
<path opacity="0.7" d="M328.17 599.073C328.17 598.118 328.884 597.163 329.598 597.163C330.312 597.163 331.025 598.118 331.025 599.073C331.025 600.028 330.312 600.983 329.598 600.983C328.884 600.983 328.17 600.028 328.17 599.073Z" fill="white"/>
<path opacity="0.7" d="M310.189 449.954C310.189 449.476 310.546 448.999 310.903 448.999C311.26 448.999 311.617 449.476 311.617 449.954C311.617 450.432 311.26 450.909 310.903 450.909C310.546 450.909 310.189 450.432 310.189 449.954Z" fill="white"/>
<path opacity="0.7" d="M280.704 713.258C280.704 712.78 281.061 712.303 281.418 712.303C281.775 712.303 282.132 712.78 282.132 713.258C282.132 713.735 281.775 714.213 281.418 714.213C281.061 714.213 280.704 713.735 280.704 713.258Z" fill="white"/>
<path opacity="0.7" d="M287.502 650.619C287.502 650.142 287.859 649.664 288.216 649.664C288.573 649.664 288.93 650.142 288.93 650.619C288.93 651.097 288.573 651.574 288.216 651.574C287.859 651.574 287.502 651.097 287.502 650.619Z" fill="white"/>
<path opacity="0.7" d="M321.126 739.118C321.126 738.641 321.483 738.163 321.84 738.163C322.197 738.163 322.554 738.641 322.554 739.118C322.554 739.596 322.197 740.073 321.84 740.073C321.483 740.551 321.126 740.073 321.126 739.118Z" fill="white"/>
<path opacity="0.7" d="M297.65 754.221C297.65 753.266 298.364 752.31 299.078 752.31C299.791 752.31 300.505 753.266 300.505 754.221C300.505 755.176 299.791 756.131 299.078 756.131C298.364 756.131 297.65 755.176 297.65 754.221Z" fill="white"/>
<path opacity="0.7" d="M363.277 614.986C363.277 614.031 363.991 613.076 364.705 613.076C365.419 613.076 366.133 614.031 366.133 614.986C366.133 615.941 365.419 616.896 364.705 616.896C363.991 616.896 363.277 615.941 363.277 614.986Z" fill="white"/>
<path opacity="0.7" d="M384.79 541.875C384.79 541.397 385.147 540.92 385.503 540.92C385.86 540.92 386.217 541.397 386.217 541.875C386.217 542.353 385.86 542.83 385.503 542.83C385.147 542.83 384.79 542.353 384.79 541.875Z" fill="white"/>
<path opacity="0.7" d="M778.967 481.265C778.967 480.309 779.324 479.832 780.038 479.832C780.752 479.832 781.109 480.309 781.109 481.265C781.109 482.22 780.752 482.697 780.038 482.697C779.324 482.697 778.967 482.22 778.967 481.265Z" fill="white"/>
<path opacity="0.7" d="M493.626 573.23C493.626 571.798 494.696 570.365 495.767 570.365C496.838 570.365 497.909 571.798 497.909 573.23C497.909 574.663 496.838 576.096 495.767 576.096C494.696 575.618 493.626 574.663 493.626 573.23Z" fill="white"/>
<path opacity="0.7" d="M518.405 579.212C518.405 578.734 518.762 578.257 519.119 578.257C519.476 578.257 519.833 578.734 519.833 579.212C519.833 579.689 519.476 580.167 519.119 580.167C518.762 580.167 518.405 579.689 518.405 579.212Z" fill="white"/>
<path opacity="0.7" d="M557.696 695.855C557.696 695.377 558.053 694.9 558.41 694.9C558.767 694.9 559.124 695.377 559.124 695.855C559.124 696.332 558.767 696.81 558.41 696.81C558.053 697.287 557.696 696.81 557.696 695.855Z" fill="white"/>
<path opacity="0.7" d="M500.809 474.17C500.809 473.692 501.166 473.215 501.522 473.215C501.879 473.215 502.236 473.692 502.236 474.17C502.236 474.647 501.879 475.125 501.522 475.125C501.166 475.125 500.809 474.647 500.809 474.17Z" fill="white"/>
<path opacity="0.7" d="M541.216 500.506C541.216 500.028 541.573 499.551 541.93 499.551C542.287 499.551 542.644 500.028 542.644 500.506C542.644 500.983 542.287 501.461 541.93 501.461C541.573 501.461 541.216 500.983 541.216 500.506Z" fill="white"/>
<path opacity="0.7" d="M448.332 454.617C448.332 454.14 448.689 453.662 449.045 453.662C449.402 453.662 449.759 454.14 449.759 454.617C449.759 455.095 449.402 455.572 449.045 455.572C448.689 455.572 448.332 455.095 448.332 454.617Z" fill="white"/>
<path opacity="0.7" d="M559.543 524.778C559.543 524.301 559.899 523.823 560.256 523.823C560.613 523.823 560.97 524.301 560.97 524.778C560.97 525.256 560.613 525.734 560.256 525.734C559.899 526.211 559.543 525.734 559.543 524.778Z" fill="white"/>
<path opacity="0.7" d="M442.699 595.294C442.699 594.816 443.056 594.339 443.413 594.339C443.77 594.339 444.127 594.816 444.127 595.294C444.127 595.771 443.77 596.249 443.413 596.249C443.056 596.249 442.699 595.771 442.699 595.294Z" fill="white"/>
<path opacity="0.7" d="M521.88 626.329C521.88 625.852 522.237 625.374 522.594 625.374C522.951 625.374 523.308 625.852 523.308 626.329C523.308 626.807 522.951 627.284 522.594 627.284C522.237 627.284 521.88 626.807 521.88 626.329Z" fill="white"/>
<path opacity="0.7" d="M611.955 581.679C611.955 580.724 612.669 579.768 613.382 579.768C614.096 579.768 614.81 580.724 614.81 581.679C614.81 582.634 614.096 583.589 613.382 583.589C612.669 583.589 611.955 582.634 611.955 581.679Z" fill="white"/>
<path opacity="0.7" d="M596.312 606.38C596.312 605.425 597.026 604.47 597.74 604.47C598.454 604.47 599.167 605.425 599.167 606.38C599.167 607.335 598.454 608.29 597.74 608.29C597.026 608.29 596.312 607.335 596.312 606.38Z" fill="white"/>
<path opacity="0.7" d="M613.19 479.424C613.19 478.469 613.904 477.514 614.618 477.514C615.332 477.514 616.045 478.469 616.045 479.424C616.045 480.379 615.332 481.334 614.618 481.334C613.904 481.334 613.19 480.379 613.19 479.424Z" fill="white"/>
<path opacity="0.7" d="M538.454 614.18C538.454 613.225 539.168 612.269 539.882 612.269C540.596 612.269 541.31 613.225 541.31 614.18C541.31 615.135 540.596 616.09 539.882 616.09C539.168 616.09 538.454 615.135 538.454 614.18Z" fill="white"/>
<path opacity="0.7" d="M574.598 488.104C574.598 487.149 574.955 486.672 575.669 486.672C576.383 486.672 576.74 487.149 576.74 488.104C576.74 489.06 576.383 489.537 575.669 489.537C574.955 489.537 574.598 489.06 574.598 488.104Z" fill="white"/>
<path opacity="0.7" d="M468.685 535.57C468.685 534.138 469.755 532.705 470.826 532.705C471.897 532.705 472.968 534.138 472.968 535.57C472.968 537.003 471.897 538.436 470.826 538.436C469.399 538.436 468.685 537.48 468.685 535.57Z" fill="white"/>
<path opacity="0.7" d="M566.367 640.07C566.367 639.115 566.724 638.638 567.438 638.638C568.152 638.638 568.509 639.115 568.509 640.07C568.509 641.025 568.152 641.503 567.438 641.503C567.081 641.503 566.367 641.025 566.367 640.07Z" fill="white"/>
<path opacity="0.7" d="M579.799 795.482C579.799 795.004 580.156 794.526 580.513 794.526C580.87 794.526 581.227 795.004 581.227 795.482C581.227 795.959 580.87 796.437 580.513 796.437C580.156 796.914 579.799 796.437 579.799 795.482Z" fill="white"/>
<path opacity="0.7" d="M583.045 696.719C583.045 696.241 583.402 695.764 583.759 695.764C584.116 695.764 584.473 696.241 584.473 696.719C584.473 697.196 584.116 697.674 583.759 697.674C583.402 697.674 583.045 697.196 583.045 696.719Z" fill="white"/>
<path opacity="0.7" d="M490.632 728.339C490.632 727.861 490.989 727.384 491.346 727.384C491.703 727.384 492.06 727.861 492.06 728.339C492.06 728.816 491.703 729.294 491.346 729.294C490.989 729.294 490.632 728.816 490.632 728.339Z" fill="white"/>
<path opacity="0.7" d="M497.427 665.7C497.427 665.223 497.784 664.745 498.141 664.745C498.498 664.745 498.854 665.223 498.854 665.7C498.854 666.178 498.498 666.655 498.141 666.655C497.784 666.655 497.427 666.178 497.427 665.7Z" fill="white"/>
<path opacity="0.7" d="M531.055 754.199C531.055 753.722 531.412 753.244 531.769 753.244C532.126 753.244 532.482 753.722 532.482 754.199C532.482 754.677 532.126 755.154 531.769 755.154C531.412 755.632 531.055 755.154 531.055 754.199Z" fill="white"/>
<path opacity="0.7" d="M462.27 667.906C461.876 667.906 461.556 668.334 461.556 668.861C461.556 669.389 461.876 669.816 462.27 669.816C462.664 669.816 462.984 669.389 462.984 668.861C462.984 668.334 462.664 667.906 462.27 667.906Z" fill="white"/>
<path opacity="0.7" d="M549.011 778.923C549.011 778.445 549.368 777.968 549.725 777.968C550.082 777.968 550.439 778.445 550.439 778.923C550.439 779.4 550.082 779.878 549.725 779.878C549.368 779.878 549.011 779.4 549.011 778.923Z" fill="white"/>
<path opacity="0.7" d="M787.01 807.122C787.01 805.689 788.081 804.257 789.152 804.257C790.223 804.257 791.293 805.689 791.293 807.122C791.293 808.555 790.223 809.987 789.152 809.987C787.724 809.987 787.01 808.555 787.01 807.122Z" fill="white"/>
<path opacity="0.7" d="M507.934 769.327C507.934 768.372 508.648 767.417 509.361 767.417C510.075 767.417 510.789 768.372 510.789 769.327C510.789 770.282 510.075 771.237 509.361 771.237C508.648 771.237 507.934 770.282 507.934 769.327Z" fill="white"/>
<path opacity="0.7" d="M524.081 669.58C524.081 668.625 524.795 667.67 525.509 667.67C526.223 667.67 526.937 668.625 526.937 669.58C526.937 670.535 526.223 671.49 525.509 671.49C524.438 671.49 524.081 670.535 524.081 669.58Z" fill="white"/>
<path opacity="0.7" d="M546.95 696.569C546.95 695.614 547.664 694.659 548.377 694.659C549.091 694.659 549.805 695.614 549.805 696.569C549.805 697.524 549.091 698.479 548.377 698.479C547.307 698.479 546.95 698.002 546.95 696.569Z" fill="white"/>
<path opacity="0.7" d="M603.033 733.117C603.033 732.162 603.747 731.207 604.46 731.207C605.174 731.207 605.888 732.162 605.888 733.117C605.888 734.072 605.174 735.027 604.46 735.027C603.747 735.027 603.033 734.55 603.033 733.117Z" fill="white"/>
<path opacity="0.7" d="M564.421 742.274C564.421 741.319 564.778 740.842 565.492 740.842C566.206 740.842 566.563 741.319 566.563 742.274C566.563 743.229 566.206 743.707 565.492 743.707C564.778 743.707 564.421 742.752 564.421 742.274Z" fill="white"/>
<path opacity="0.7" d="M585.328 675.388C585.328 674.433 585.685 673.955 586.399 673.955C587.113 673.955 587.47 674.433 587.47 675.388C587.47 676.343 587.113 676.82 586.399 676.82C586.042 676.82 585.328 676.343 585.328 675.388Z" fill="white"/>
<path opacity="0.7" d="M520.231 703.232C520.231 702.277 520.587 701.8 521.301 701.8C522.015 701.8 522.372 702.277 522.372 703.232C522.372 704.187 522.015 704.665 521.301 704.665C520.944 704.665 520.231 704.187 520.231 703.232Z" fill="white"/>
<path opacity="0.7" d="M609.315 683.405C609.315 681.973 610.386 680.54 611.457 680.54C612.527 680.54 613.598 681.973 613.598 683.405C613.598 684.838 612.527 686.271 611.457 686.271C610.029 686.271 609.315 684.838 609.315 683.405Z" fill="white"/>
<path opacity="0.7" d="M511.061 512.687C511.061 512.209 511.418 511.731 511.775 511.731C512.132 511.731 512.489 512.209 512.489 512.687C512.489 513.164 512.132 513.642 511.775 513.642C511.418 513.642 511.061 513.164 511.061 512.687Z" fill="white"/>
<path opacity="0.7" d="M589.714 467.669C589.714 466.714 590.071 466.236 590.785 466.236C591.499 466.236 591.855 466.714 591.855 467.669C591.855 468.624 591.499 469.102 590.785 469.102C590.071 469.102 589.714 468.624 589.714 467.669Z" fill="white"/>
<path opacity="0.7" d="M470.284 745.529C470.284 745.052 470.641 744.574 470.998 744.574C471.355 744.574 471.712 745.052 471.712 745.529C471.712 746.007 471.355 746.484 470.998 746.484C470.641 746.484 470.284 746.007 470.284 745.529Z" fill="white"/>
<path opacity="0.7" d="M483.55 628.46C483.55 627.027 484.621 625.595 485.691 625.595C486.762 625.595 487.833 627.027 487.833 628.46C487.833 629.893 486.762 631.325 485.691 631.325C484.621 631.325 483.55 629.893 483.55 628.46Z" fill="white"/>
<path opacity="0.7" d="M461.836 670.847C461.836 669.891 462.549 668.936 463.263 668.936C463.977 668.936 464.691 669.891 464.691 670.847C464.691 671.802 463.977 672.757 463.263 672.757C462.192 672.757 461.836 671.802 461.836 670.847Z" fill="white"/>
<path opacity="0.7" d="M434.285 742.995C434.285 742.04 434.999 741.085 435.712 741.085C436.426 741.085 437.14 742.04 437.14 742.995C437.14 743.95 436.426 744.905 435.712 744.905C434.642 744.905 434.285 743.95 434.285 742.995Z" fill="white"/>
<path opacity="0.7" d="M451.183 615.562C451.183 614.607 451.897 613.652 452.61 613.652C453.324 613.652 454.038 614.607 454.038 615.562C454.038 616.518 453.324 617.473 452.61 617.473C451.897 617.473 451.183 616.518 451.183 615.562Z" fill="white"/>
<path opacity="0.7" d="M427.329 604.258C427.329 603.303 427.686 602.825 428.399 602.825C429.113 602.825 429.47 603.303 429.47 604.258C429.47 605.213 429.113 605.69 428.399 605.69C428.042 605.69 427.329 604.735 427.329 604.258Z" fill="white"/>
<path opacity="0.7" d="M321.404 651.996C321.404 652.474 321.047 652.951 320.69 652.951C320.333 652.951 319.976 652.474 319.976 651.996C319.976 651.519 320.333 651.041 320.69 651.041C321.047 650.563 321.404 651.041 321.404 651.996Z" fill="white"/>
<path opacity="0.7" d="M338.641 757.012C338.641 757.489 338.284 757.967 337.927 757.967C337.57 757.967 337.213 757.489 337.213 757.012C337.213 756.534 337.57 756.057 337.927 756.057C338.284 756.057 338.641 756.057 338.641 757.012Z" fill="white"/>
<path opacity="0.7" d="M397.125 635.436C397.125 635.914 396.768 636.392 396.411 636.392C396.054 636.392 395.697 635.914 395.697 635.436C395.697 634.959 396.054 634.481 396.411 634.481C396.768 634.481 397.125 634.959 397.125 635.436Z" fill="white"/>
<path opacity="0.7" d="M383.501 752.48C383.501 753.913 382.43 755.346 381.359 755.346C380.289 755.346 379.218 753.913 379.218 752.48C379.218 751.048 380.289 749.615 381.359 749.615C382.43 749.615 383.501 751.048 383.501 752.48Z" fill="white"/>
<path opacity="0.7" d="M321.712 715.573C321.712 716.528 320.998 717.483 320.284 717.483C319.57 717.483 318.856 716.528 318.856 715.573C318.856 714.618 319.57 713.663 320.284 713.663C320.998 713.663 321.712 714.618 321.712 715.573Z" fill="white"/>
<path opacity="0.7" d="M342.04 565.005C342.04 565.482 341.683 565.96 341.326 565.96C340.969 565.96 340.612 565.482 340.612 565.005C340.612 564.527 340.969 564.05 341.326 564.05C341.683 564.05 342.04 564.527 342.04 565.005Z" fill="white"/>
<path opacity="0.7" d="M331.87 461.879C331.87 462.834 331.156 463.789 330.442 463.789C329.728 463.789 329.014 462.834 329.014 461.879C329.014 460.924 329.728 459.969 330.442 459.969C331.156 459.969 331.87 460.446 331.87 461.879Z" fill="white"/>
<path opacity="0.7" d="M650.839 753.137C650.839 753.614 650.482 754.092 650.125 754.092C649.768 754.092 649.411 753.614 649.411 753.137C649.411 752.659 649.768 752.182 650.125 752.182C650.482 752.182 650.839 752.659 650.839 753.137Z" fill="white"/>
<path opacity="0.7" d="M383.837 699.472C383.837 700.427 383.123 701.382 382.409 701.382C381.695 701.382 380.981 700.427 380.981 699.472C380.981 698.517 381.695 697.561 382.409 697.561C383.123 697.561 383.837 698.517 383.837 699.472Z" fill="white"/>
<path opacity="0.7" d="M415.87 765.379C415.87 766.334 415.156 767.289 414.442 767.289C413.729 767.289 413.015 766.334 413.015 765.379C413.015 764.424 413.729 763.469 414.442 763.469C415.156 763.469 415.87 764.424 415.87 765.379Z" fill="white"/>
<path opacity="0.7" d="M426.046 511.208C426.046 512.163 425.333 513.118 424.619 513.118C423.905 513.118 423.191 512.163 423.191 511.208C423.191 510.253 423.905 509.298 424.619 509.298C425.689 509.298 426.046 510.253 426.046 511.208Z" fill="white"/>
<path opacity="0.7" d="M419.765 560.92C419.765 562.353 418.694 563.785 417.624 563.785C416.553 563.785 415.482 562.353 415.482 560.92C415.482 559.487 416.553 558.055 417.624 558.055C419.051 558.532 419.765 559.487 419.765 560.92Z" fill="white"/>
<path opacity="0.7" d="M153.93 549.706C153.93 548.751 154.287 548.273 155.001 548.273C155.714 548.273 156.071 548.751 156.071 549.706C156.071 550.661 155.714 551.139 155.001 551.139C154.644 551.139 153.93 550.661 153.93 549.706Z" fill="white"/>
<path opacity="0.7" d="M176.605 554.657C176.605 554.18 176.961 553.702 177.318 553.702C177.675 553.702 178.032 554.18 178.032 554.657C178.032 555.135 177.675 555.612 177.318 555.612C176.961 555.612 176.605 555.135 176.605 554.657Z" fill="white"/>
<path opacity="0.7" d="M110.087 546.53C110.087 546.053 110.444 545.575 110.801 545.575C111.158 545.575 111.515 546.053 111.515 546.53C111.515 547.008 111.158 547.486 110.801 547.486C110.444 547.963 110.087 547.486 110.087 546.53Z" fill="white"/>
<path opacity="0.7" d="M159.363 449.641C159.363 449.163 159.72 448.685 160.077 448.685C160.434 448.685 160.791 449.163 160.791 449.641C160.791 450.118 160.434 450.596 160.077 450.596C159.72 450.596 159.363 450.118 159.363 449.641Z" fill="white"/>
<path opacity="0.7" d="M710.146 735.979C710.146 735.501 710.503 735.024 710.86 735.024C711.217 735.024 711.574 735.501 711.574 735.979C711.574 736.456 711.217 736.934 710.86 736.934C710.503 737.411 710.146 736.934 710.146 735.979Z" fill="white"/>
<path opacity="0.7" d="M23.8785 503.513C23.8785 503.035 24.2355 502.558 24.5924 502.558C24.9493 502.558 25.3062 503.035 25.3062 503.513C25.3062 503.99 24.9493 504.468 24.5924 504.468C24.2355 504.945 23.8785 504.468 23.8785 503.513Z" fill="white"/>
<path opacity="0.7" d="M101.257 570.766C101.257 570.288 101.614 569.811 101.971 569.811C102.328 569.811 102.685 570.288 102.685 570.766C102.685 571.243 102.328 571.721 101.971 571.721C101.614 571.721 101.257 571.243 101.257 570.766Z" fill="white"/>
<path opacity="0.7" d="M180.08 601.774C180.08 601.297 180.437 600.819 180.794 600.819C181.151 600.819 181.508 601.297 181.508 601.774C181.508 602.252 181.151 602.729 180.794 602.729C180.437 602.729 180.08 602.252 180.08 601.774Z" fill="white"/>
<path opacity="0.7" d="M195.826 538.847C195.826 537.892 196.183 537.414 196.897 537.414C197.611 537.414 197.968 537.892 197.968 538.847C197.968 539.802 197.611 540.279 196.897 540.279C196.54 540.279 195.826 539.802 195.826 538.847Z" fill="white"/>
<path opacity="0.7" d="M804.375 766.284C804.375 764.851 805.446 763.419 806.517 763.419C807.587 763.419 808.658 764.851 808.658 766.284C808.658 767.717 807.587 769.149 806.517 769.149C805.089 768.672 804.375 767.717 804.375 766.284Z" fill="white"/>
<path opacity="0.7" d="M254.511 581.826C254.511 580.871 255.225 579.916 255.939 579.916C256.653 579.916 257.367 580.871 257.367 581.826C257.367 582.781 256.653 583.736 255.939 583.736C255.225 583.736 254.511 582.781 254.511 581.826Z" fill="white"/>
<path opacity="0.7" d="M196.653 589.625C196.653 588.67 197.367 587.715 198.081 587.715C198.795 587.715 199.509 588.67 199.509 589.625C199.509 590.58 198.795 591.535 198.081 591.535C197.367 591.535 196.653 590.58 196.653 589.625Z" fill="white"/>
<path opacity="0.7" d="M238.356 770.953C238.356 770.476 238.713 769.998 239.07 769.998C239.427 769.998 239.784 770.476 239.784 770.953C239.784 771.431 239.427 771.908 239.07 771.908C238.713 772.386 238.356 771.908 238.356 770.953Z" fill="white"/>
<path opacity="0.7" d="M91.8277 716.907C91.8277 716.43 92.1846 715.952 92.5415 715.952C92.8984 715.952 93.2554 716.43 93.2554 716.907C93.2554 717.385 92.8984 717.862 92.5415 717.862C92.1846 718.34 91.8277 717.862 91.8277 716.907Z" fill="white"/>
<path opacity="0.7" d="M149.187 703.811C149.187 703.333 149.543 702.855 149.9 702.855C150.257 702.855 150.614 703.333 150.614 703.811C150.614 704.288 150.257 704.766 149.9 704.766C149.543 704.766 149.187 704.288 149.187 703.811Z" fill="white"/>
<path opacity="0.7" d="M155.984 641.171C155.984 640.693 156.341 640.216 156.698 640.216C157.055 640.216 157.412 640.693 157.412 641.171C157.412 641.648 157.055 642.126 156.698 642.126C156.341 642.126 155.984 641.648 155.984 641.171Z" fill="white"/>
<path opacity="0.7" d="M189.612 729.671C189.612 729.193 189.969 728.716 190.326 728.716C190.683 728.716 191.04 729.193 191.04 729.671C191.04 730.149 190.683 730.626 190.326 730.626C189.969 731.104 189.612 730.626 189.612 729.671Z" fill="white"/>
<path opacity="0.7" d="M120.114 644.333C120.114 643.855 120.471 643.378 120.828 643.378C121.185 643.378 121.542 643.855 121.542 644.333C121.542 644.811 121.185 645.288 120.828 645.288C120.471 645.288 120.114 644.811 120.114 644.333Z" fill="white"/>
<path opacity="0.7" d="M207.569 754.395C207.569 753.917 207.926 753.439 208.283 753.439C208.64 753.439 208.997 753.917 208.997 754.395C208.997 754.872 208.64 755.35 208.283 755.35C207.926 755.35 207.569 754.872 207.569 754.395Z" fill="white"/>
<path opacity="0.7" d="M166.136 744.773C166.136 743.818 166.85 742.863 167.564 742.863C168.278 742.863 168.992 743.818 168.992 744.773C168.992 745.728 168.278 746.684 167.564 746.684C166.85 746.684 166.136 745.728 166.136 744.773Z" fill="white"/>
<path opacity="0.7" d="M182.28 645.025C182.28 644.07 182.994 643.115 183.708 643.115C184.422 643.115 185.136 644.07 185.136 645.025C185.136 645.98 184.422 646.936 183.708 646.936C182.994 646.936 182.28 645.98 182.28 645.025Z" fill="white"/>
<path opacity="0.7" d="M205.149 672.015C205.149 671.059 205.863 670.104 206.577 670.104C207.291 670.104 208.005 671.059 208.005 672.015C208.005 672.97 207.291 673.925 206.577 673.925C205.863 673.925 205.149 673.447 205.149 672.015Z" fill="white"/>
<path opacity="0.7" d="M261.235 708.563C261.235 707.608 261.949 706.653 262.663 706.653C263.377 706.653 264.09 707.608 264.09 708.563C264.09 709.519 263.377 710.474 262.663 710.474C261.949 710.474 261.235 709.996 261.235 708.563Z" fill="white"/>
<path opacity="0.7" d="M222.976 717.746C222.976 716.791 223.333 716.313 224.047 716.313C224.761 716.313 225.118 716.791 225.118 717.746C225.118 718.701 224.761 719.179 224.047 719.179C223.333 719.179 222.976 718.224 222.976 717.746Z" fill="white"/>
<path opacity="0.7" d="M166.344 525.226C166.344 524.748 166.701 524.271 167.058 524.271C167.415 524.271 167.771 524.748 167.771 525.226C167.771 525.703 167.415 526.181 167.058 526.181C166.701 526.658 166.344 526.181 166.344 525.226Z" fill="white"/>
<path opacity="0.7" d="M378.735 505.623C378.735 504.668 379.449 503.713 380.163 503.713C380.877 503.713 381.591 504.668 381.591 505.623C381.591 506.578 380.877 507.533 380.163 507.533C379.449 507.533 378.735 507.056 378.735 505.623Z" fill="white"/>
<path opacity="0.7" d="M102.81 442.708C102.81 442.23 103.167 441.753 103.524 441.753C103.881 441.753 104.238 442.23 104.238 442.708C104.238 443.186 103.881 443.663 103.524 443.663C103.167 443.663 102.81 443.186 102.81 442.708Z" fill="white"/>
<path opacity="0.7" d="M247.913 443.114C247.913 442.159 248.27 441.682 248.984 441.682C249.698 441.682 250.055 442.159 250.055 443.114C250.055 444.069 249.698 444.547 248.984 444.547C248.27 444.547 247.913 444.069 247.913 443.114Z" fill="white"/>
<path opacity="0.7" d="M26.6411 657.705C26.6411 657.228 26.998 656.75 27.355 656.75C27.7119 656.75 28.0688 657.228 28.0688 657.705C28.0688 658.183 27.7119 658.66 27.355 658.66C26.998 659.138 26.6411 658.66 26.6411 657.705Z" fill="white"/>
<path opacity="0.7" d="M10.1617 462.356C10.1617 461.879 10.5186 461.401 10.8755 461.401C11.2325 461.401 11.5894 461.879 11.5894 462.356C11.5894 462.834 11.2325 463.312 10.8755 463.312C10.5186 463.312 10.1617 462.834 10.1617 462.356Z" fill="white"/>
<path opacity="0.7" d="M80.9005 543.529C80.9005 542.574 81.6143 541.619 82.3282 541.619C83.042 541.619 83.7559 542.574 83.7559 543.529C83.7559 544.484 83.042 545.439 82.3282 545.439C81.6143 545.439 80.9005 544.484 80.9005 543.529Z" fill="white"/>
<path opacity="0.7" d="M65.2579 568.229C65.2579 567.274 65.9717 566.319 66.6856 566.319C67.3995 566.319 68.1133 567.274 68.1133 568.229C68.1133 569.185 67.3995 570.14 66.6856 570.14C65.6148 570.14 65.2579 569.185 65.2579 568.229Z" fill="white"/>
<path opacity="0.7" d="M82.1358 441.273C82.1358 440.318 82.8496 439.363 83.5635 439.363C84.2773 439.363 84.9912 440.318 84.9912 441.273C84.9912 442.229 84.2773 443.184 83.5635 443.184C82.8496 443.184 82.1358 442.229 82.1358 441.273Z" fill="white"/>
<path opacity="0.7" d="M7.39913 576.029C7.39913 575.074 8.11293 574.119 8.82676 574.119C9.54059 574.119 10.2544 575.074 10.2544 576.029C10.2544 576.984 9.54059 577.939 8.82676 577.939C7.75602 577.939 7.39913 576.984 7.39913 576.029Z" fill="white"/>
<path opacity="0.7" d="M43.5436 449.954C43.5436 448.999 43.9005 448.521 44.6143 448.521C45.3282 448.521 45.6851 448.999 45.6851 449.954C45.6851 450.909 45.3282 451.387 44.6143 451.387C43.9005 451.387 43.5436 450.909 43.5436 449.954Z" fill="white"/>
<path opacity="0.7" d="M35.3125 601.921C35.3125 600.966 35.6695 600.488 36.3833 600.488C37.0972 600.488 37.4541 600.966 37.4541 601.921C37.4541 602.876 37.0972 603.354 36.3833 603.354C35.6695 603.354 35.3125 602.876 35.3125 601.921Z" fill="white"/>
<path opacity="0.7" d="M48.7447 757.331C48.7447 756.854 49.1016 756.376 49.4585 756.376C49.8154 756.376 50.1724 756.854 50.1724 757.331C50.1724 757.809 49.8154 758.286 49.4585 758.286C49.1016 758.764 48.7447 758.286 48.7447 757.331Z" fill="white"/>
<path opacity="0.7" d="M9.9659e-05 716.049C9.9659e-05 715.571 0.357003 715.094 0.713917 715.094C1.07083 715.094 1.42773 715.571 1.42773 716.049C1.42773 716.527 1.07083 717.004 0.713917 717.004C0.357003 717.482 9.9659e-05 717.004 9.9659e-05 716.049Z" fill="white"/>
<path opacity="0.7" d="M17.9575 740.773C17.9575 740.296 18.3145 739.818 18.6714 739.818C19.0283 739.818 19.3853 740.296 19.3853 740.773C19.3853 741.251 19.0283 741.729 18.6714 741.729C18.3145 741.729 17.9575 741.251 17.9575 740.773Z" fill="white"/>
<path opacity="0.7" d="M467.473 494.354C467.473 492.922 468.544 491.489 469.615 491.489C470.686 491.489 471.756 492.922 471.756 494.354C471.756 495.787 470.686 497.22 469.615 497.22C468.187 496.742 467.473 495.787 467.473 494.354Z" fill="white"/>
<g opacity="0.7">
<path opacity="0.7" d="M419.106 704.483L418.749 694.455L410.896 693.5L418.392 693.022L419.106 682.516L419.82 693.022L427.315 693.5L419.82 694.455L419.106 704.483Z" fill="white"/>
<path opacity="0.7" d="M415.894 698.275L418.392 693.977L415.894 689.202L419.106 693.022L422.675 688.724L419.82 693.5L422.675 698.275L419.106 694.455L415.894 698.275Z" fill="white"/>
</g>
<g opacity="0.7">
<path opacity="0.7" d="M499.191 730.801L498.477 720.772L490.981 719.817L498.477 719.34L499.191 708.833L499.904 719.34L507.4 719.817L499.904 720.772L499.191 730.801Z" fill="white"/>
<path opacity="0.7" d="M495.979 724.593L498.478 719.817L495.979 715.519L499.192 718.862L502.761 715.042L499.548 719.817L502.761 724.115L499.192 720.772L495.979 724.593Z" fill="white"/>
</g>
<g opacity="0.7">
<path opacity="0.7" d="M457.917 463.852L457.56 457.166L452.206 456.211H457.56L457.917 448.57L458.274 456.211H463.627L458.274 457.166L457.917 463.852Z" fill="white"/>
<path opacity="0.7" d="M455.774 459.554L457.559 456.688L455.774 453.346L457.916 456.211L460.414 453.346L458.273 456.688L460.414 459.554L457.916 457.166L455.774 459.554Z" fill="white"/>
</g>
<g opacity="0.7">
<path opacity="0.7" d="M624.674 753.689L624.317 747.004L618.963 746.049H623.96L624.674 738.408L625.031 746.049H630.385L625.031 747.004L624.674 753.689Z" fill="white"/>
<path opacity="0.7" d="M622.174 749.392L623.959 746.526L622.174 743.183L624.672 745.571L627.171 743.183L625.029 746.049L627.171 749.392L624.672 747.004L622.174 749.392Z" fill="white"/>
</g>
<g opacity="0.7">
<path opacity="0.7" d="M292.905 737.508L292.548 730.822L287.194 729.867H292.548L292.905 722.226L293.262 729.867H298.616L293.262 730.822L292.905 737.508Z" fill="white"/>
<path opacity="0.7" d="M290.405 733.21L292.547 730.345L290.405 727.002L292.904 729.39L295.402 727.002L293.261 729.867L295.402 733.21L292.904 730.822L290.405 733.21Z" fill="white"/>
</g>
<g opacity="0.7">
<path opacity="0.7" d="M150.428 469.496L149.715 459.945L142.219 458.512H149.715L150.428 447.529L151.142 458.512H158.638L151.142 459.945L150.428 469.496Z" fill="white"/>
<path opacity="0.7" d="M147.217 463.766L149.715 458.99L147.217 454.215L150.429 458.035L153.999 454.215L150.786 458.99L153.999 463.288L150.429 459.945L147.217 463.766Z" fill="white"/>
</g>
<g opacity="0.7">
<path opacity="0.7" d="M88.6286 715.181L88.2716 708.495L82.9177 707.54H88.2716L88.6286 699.899L88.9855 707.54H94.3394L88.9855 708.495L88.6286 715.181Z" fill="white"/>
<path opacity="0.7" d="M86.486 710.883L88.2706 708.018L86.486 704.675L88.6275 707.062L91.126 704.675L88.9844 707.54L91.126 710.883L88.6275 708.495L86.486 710.883Z" fill="white"/>
</g>
<g opacity="0.7">
<path opacity="0.7" d="M208.683 564.551L208.326 557.387L202.973 556.91L208.326 556.432L208.683 549.269L209.04 556.432L214.394 556.91L209.04 557.387L208.683 564.551Z" fill="white"/>
<path opacity="0.7" d="M206.541 560.253L208.325 556.91L206.541 553.567L208.682 556.433L211.181 553.567L209.039 556.91L211.181 559.775L208.682 557.388L206.541 560.253Z" fill="white"/>
</g>
<g opacity="0.7">
<path opacity="0.7" d="M286.02 525.63L285.663 518.467L280.309 517.989L285.663 517.511L286.02 510.348L286.377 517.511L291.73 517.989L286.377 518.467L286.02 525.63Z" fill="white"/>
<path opacity="0.7" d="M283.877 521.332L285.662 517.989L283.877 514.646L286.019 517.512L288.517 514.646L286.376 517.989L288.517 520.854L286.019 518.467L283.877 521.332Z" fill="white"/>
</g>
<path opacity="0.7" d="M684.984 405.284C684.984 404.329 685.341 403.851 686.055 403.851C686.769 403.851 687.125 404.329 687.125 405.284C687.125 406.239 686.769 406.717 686.055 406.717C685.698 406.717 684.984 406.239 684.984 405.284Z" fill="white"/>
<path opacity="0.7" d="M641.143 402.109C641.143 401.631 641.5 401.153 641.856 401.153C642.213 401.153 642.57 401.631 642.57 402.109C642.57 402.586 642.213 403.064 641.856 403.064C641.5 403.541 641.143 403.064 641.143 402.109Z" fill="white"/>
<path opacity="0.7" d="M234.509 354.246C234.509 353.769 234.866 353.291 235.223 353.291C235.58 353.291 235.937 353.769 235.937 354.246C235.937 354.724 235.58 355.201 235.223 355.201C234.866 355.201 234.509 354.724 234.509 354.246Z" fill="white"/>
<path opacity="0.7" d="M632.312 426.343C632.312 425.865 632.668 425.388 633.025 425.388C633.382 425.388 633.739 425.865 633.739 426.343C633.739 426.82 633.382 427.298 633.025 427.298C632.668 427.298 632.312 426.82 632.312 426.343Z" fill="white"/>
<path opacity="0.7" d="M598.287 365.605C598.287 364.65 599.001 363.695 599.714 363.695C600.428 363.695 601.142 364.65 601.142 365.605C601.142 366.561 600.428 367.516 599.714 367.516C598.644 367.516 598.287 366.561 598.287 365.605Z" fill="white"/>
<path opacity="0.7" d="M727.708 445.203C727.708 444.248 728.421 443.293 729.135 443.293C729.849 443.293 730.563 444.248 730.563 445.203C730.563 446.158 729.849 447.113 729.135 447.113C728.421 447.113 727.708 446.158 727.708 445.203Z" fill="white"/>
<path opacity="0.7" d="M697.398 380.805C697.398 380.327 697.755 379.85 698.112 379.85C698.469 379.85 698.826 380.327 698.826 380.805C698.826 381.282 698.469 381.76 698.112 381.76C697.755 382.237 697.398 381.76 697.398 380.805Z" fill="white"/>
<path opacity="0.7" d="M308.123 381.533C308.123 381.056 308.48 380.578 308.836 380.578C309.193 380.578 309.55 381.056 309.55 381.533C309.55 382.011 309.193 382.488 308.836 382.488C308.48 382.488 308.123 382.011 308.123 381.533Z" fill="white"/>
<path opacity="0.7" d="M328.17 416.501C328.17 415.546 328.884 414.591 329.598 414.591C330.312 414.591 331.025 415.546 331.025 416.501C331.025 417.456 330.312 418.411 329.598 418.411C328.884 418.411 328.17 417.456 328.17 416.501Z" fill="white"/>
<path opacity="0.7" d="M363.277 432.414C363.277 431.459 363.991 430.504 364.705 430.504C365.419 430.504 366.133 431.459 366.133 432.414C366.133 433.369 365.419 434.324 364.705 434.324C363.991 434.324 363.277 433.369 363.277 432.414Z" fill="white"/>
<path opacity="0.7" d="M384.79 359.303C384.79 358.825 385.147 358.348 385.503 358.348C385.86 358.348 386.217 358.825 386.217 359.303C386.217 359.78 385.86 360.258 385.503 360.258C385.147 360.258 384.79 359.78 384.79 359.303Z" fill="white"/>
<path opacity="0.7" d="M493.626 390.658C493.626 389.225 494.696 387.793 495.767 387.793C496.838 387.793 497.909 389.225 497.909 390.658C497.909 392.091 496.838 393.523 495.767 393.523C494.696 393.046 493.626 392.091 493.626 390.658Z" fill="white"/>
<path opacity="0.7" d="M518.405 396.64C518.405 396.162 518.762 395.685 519.119 395.685C519.476 395.685 519.833 396.162 519.833 396.64C519.833 397.117 519.476 397.595 519.119 397.595C518.762 397.595 518.405 397.117 518.405 396.64Z" fill="white"/>
<path opacity="0.7" d="M559.543 342.207C559.543 341.73 559.899 341.252 560.256 341.252C560.613 341.252 560.97 341.73 560.97 342.207C560.97 342.685 560.613 343.162 560.256 343.162C559.899 343.64 559.543 343.162 559.543 342.207Z" fill="white"/>
<path opacity="0.7" d="M442.699 412.722C442.699 412.244 443.056 411.767 443.413 411.767C443.77 411.767 444.127 412.244 444.127 412.722C444.127 413.199 443.77 413.677 443.413 413.677C443.056 413.677 442.699 413.199 442.699 412.722Z" fill="white"/>
<path opacity="0.7" d="M521.88 443.757C521.88 443.279 522.237 442.802 522.594 442.802C522.951 442.802 523.308 443.279 523.308 443.757C523.308 444.234 522.951 444.712 522.594 444.712C522.237 444.712 521.88 444.234 521.88 443.757Z" fill="white"/>
<path opacity="0.7" d="M611.955 399.107C611.955 398.152 612.669 397.197 613.382 397.197C614.096 397.197 614.81 398.152 614.81 399.107C614.81 400.062 614.096 401.018 613.382 401.018C612.669 401.018 611.955 400.062 611.955 399.107Z" fill="white"/>
<path opacity="0.7" d="M596.312 423.809C596.312 422.853 597.026 421.898 597.74 421.898C598.454 421.898 599.167 422.853 599.167 423.809C599.167 424.764 598.454 425.719 597.74 425.719C597.026 425.719 596.312 424.764 596.312 423.809Z" fill="white"/>
<path opacity="0.7" d="M538.454 431.607C538.454 430.652 539.168 429.697 539.882 429.697C540.596 429.697 541.31 430.652 541.31 431.607C541.31 432.562 540.596 433.518 539.882 433.518C539.168 433.518 538.454 432.562 538.454 431.607Z" fill="white"/>
<path opacity="0.7" d="M468.685 352.998C468.685 351.565 469.755 350.133 470.826 350.133C471.897 350.133 472.968 351.565 472.968 352.998C472.968 354.431 471.897 355.863 470.826 355.863C469.399 355.863 468.685 354.908 468.685 352.998Z" fill="white"/>
<path opacity="0.7" d="M483.55 445.888C483.55 444.455 484.621 443.022 485.691 443.022C486.762 443.022 487.833 444.455 487.833 445.888C487.833 447.32 486.762 448.753 485.691 448.753C484.621 448.753 483.55 447.32 483.55 445.888Z" fill="white"/>
<path opacity="0.7" d="M451.183 432.99C451.183 432.035 451.897 431.08 452.61 431.08C453.324 431.08 454.038 432.035 454.038 432.99C454.038 433.945 453.324 434.9 452.61 434.9C451.897 434.9 451.183 433.945 451.183 432.99Z" fill="white"/>
<path opacity="0.7" d="M427.329 421.686C427.329 420.731 427.686 420.254 428.399 420.254C429.113 420.254 429.47 420.731 429.47 421.686C429.47 422.642 429.113 423.119 428.399 423.119C428.042 423.119 427.329 422.164 427.329 421.686Z" fill="white"/>
<path opacity="0.7" d="M397.125 452.865C397.125 453.343 396.768 453.82 396.411 453.82C396.054 453.82 395.697 453.343 395.697 452.865C395.697 452.388 396.054 451.91 396.411 451.91C396.768 451.91 397.125 452.388 397.125 452.865Z" fill="white"/>
<path opacity="0.7" d="M342.04 382.433C342.04 382.91 341.683 383.388 341.326 383.388C340.969 383.388 340.612 382.91 340.612 382.433C340.612 381.955 340.969 381.477 341.326 381.477C341.683 381.477 342.04 381.955 342.04 382.433Z" fill="white"/>
<path opacity="0.7" d="M419.765 378.349C419.765 379.781 418.694 381.214 417.624 381.214C416.553 381.214 415.482 379.781 415.482 378.349C415.482 376.916 416.553 375.483 417.624 375.483C419.051 375.961 419.765 376.916 419.765 378.349Z" fill="white"/>
<path opacity="0.7" d="M153.93 367.134C153.93 366.179 154.287 365.701 155.001 365.701C155.714 365.701 156.071 366.179 156.071 367.134C156.071 368.089 155.714 368.566 155.001 368.566C154.644 368.566 153.93 368.089 153.93 367.134Z" fill="white"/>
<path opacity="0.7" d="M176.605 372.085C176.605 371.607 176.961 371.13 177.318 371.13C177.675 371.13 178.032 371.607 178.032 372.085C178.032 372.562 177.675 373.04 177.318 373.04C176.961 373.04 176.605 372.562 176.605 372.085Z" fill="white"/>
<path opacity="0.7" d="M110.087 363.959C110.087 363.482 110.444 363.004 110.801 363.004C111.158 363.004 111.515 363.482 111.515 363.959C111.515 364.437 111.158 364.914 110.801 364.914C110.444 365.392 110.087 364.914 110.087 363.959Z" fill="white"/>
<path opacity="0.7" d="M101.257 388.193C101.257 387.716 101.614 387.238 101.971 387.238C102.328 387.238 102.685 387.716 102.685 388.193C102.685 388.671 102.328 389.148 101.971 389.148C101.614 389.148 101.257 388.671 101.257 388.193Z" fill="white"/>
<path opacity="0.7" d="M180.08 419.203C180.08 418.726 180.437 418.248 180.794 418.248C181.151 418.248 181.508 418.726 181.508 419.203C181.508 419.681 181.151 420.158 180.794 420.158C180.437 420.158 180.08 419.681 180.08 419.203Z" fill="white"/>
<path opacity="0.7" d="M195.826 356.275C195.826 355.32 196.183 354.843 196.897 354.843C197.611 354.843 197.968 355.32 197.968 356.275C197.968 357.23 197.611 357.708 196.897 357.708C196.54 357.708 195.826 357.23 195.826 356.275Z" fill="white"/>
<path opacity="0.7" d="M254.511 399.254C254.511 398.299 255.225 397.344 255.939 397.344C256.653 397.344 257.367 398.299 257.367 399.254C257.367 400.209 256.653 401.164 255.939 401.164C255.225 401.164 254.511 400.209 254.511 399.254Z" fill="white"/>
<path opacity="0.7" d="M196.653 407.054C196.653 406.099 197.367 405.143 198.081 405.143C198.795 405.143 199.509 406.099 199.509 407.054C199.509 408.009 198.795 408.964 198.081 408.964C197.367 408.964 196.653 408.009 196.653 407.054Z" fill="white"/>
<path opacity="0.7" d="M166.344 342.654C166.344 342.177 166.701 341.699 167.058 341.699C167.415 341.699 167.771 342.177 167.771 342.654C167.771 343.132 167.415 343.61 167.058 343.61C166.701 344.087 166.344 343.61 166.344 342.654Z" fill="white"/>
<path opacity="0.7" d="M80.9005 360.958C80.9005 360.003 81.6143 359.048 82.3282 359.048C83.042 359.048 83.7559 360.003 83.7559 360.958C83.7559 361.913 83.042 362.868 82.3282 362.868C81.6143 362.868 80.9005 361.913 80.9005 360.958Z" fill="white"/>
<path opacity="0.7" d="M65.2579 385.658C65.2579 384.703 65.9717 383.748 66.6856 383.748C67.3995 383.748 68.1133 384.703 68.1133 385.658C68.1133 386.613 67.3995 387.568 66.6856 387.568C65.6148 387.568 65.2579 386.613 65.2579 385.658Z" fill="white"/>
<path opacity="0.7" d="M7.39913 393.458C7.39913 392.503 8.11293 391.548 8.82676 391.548C9.54059 391.548 10.2544 392.503 10.2544 393.458C10.2544 394.413 9.54059 395.368 8.82676 395.368C7.75602 395.368 7.39913 394.413 7.39913 393.458Z" fill="white"/>
<path opacity="0.7" d="M35.3125 419.349C35.3125 418.393 35.6695 417.916 36.3833 417.916C37.0972 417.916 37.4541 418.393 37.4541 419.349C37.4541 420.304 37.0972 420.781 36.3833 420.781C35.6695 420.781 35.3125 420.304 35.3125 419.349Z" fill="white"/>
<g opacity="0.7">
<path opacity="0.7" d="M208.683 381.979L208.326 374.815L202.973 374.338L208.326 373.86L208.683 366.697L209.04 373.86L214.394 374.338L209.04 374.815L208.683 381.979Z" fill="white"/>
<path opacity="0.7" d="M206.541 377.681L208.325 374.338L206.541 370.995L208.682 373.86L211.181 370.995L209.039 374.338L211.181 377.203L208.682 374.815L206.541 377.681Z" fill="white"/>
</g>
<g opacity="0.7">
<path opacity="0.7" d="M286.02 343.059L285.663 335.895L280.309 335.418L285.663 334.94L286.02 327.777L286.377 334.94L291.73 335.418L286.377 335.895L286.02 343.059Z" fill="white"/>
<path opacity="0.7" d="M283.877 338.761L285.662 335.418L283.877 332.075L286.019 334.94L288.517 332.075L286.376 335.418L288.517 338.283L286.019 335.895L283.877 338.761Z" fill="white"/>
</g>
<g opacity="0.7">
<path opacity="0.7" d="M246.023 712.14L245.309 705.454L240.312 704.499H245.309L246.023 696.858L246.38 704.499H251.734L246.38 705.454L246.023 712.14Z" fill="white"/>
<path opacity="0.7" d="M243.524 707.842L245.308 704.976L243.524 701.634L245.665 704.021L248.521 701.634L246.379 704.499L248.521 707.842L246.022 705.454L243.524 707.842Z" fill="white"/>
</g>
</g>
<defs>
<radialGradient id="paint0_radial_2204_76918" cx="0" cy="0" r="1" gradientUnits="userSpaceOnUse" gradientTransform="translate(655.234 97.2934) rotate(68.4166) scale(733.609 683.639)">
<stop stop-color="#1A000E"/>
<stop offset="0.5056" stop-color="#540048"/>
<stop offset="1" stop-color="#000027"/>
</radialGradient>
</defs>
</svg>
