<svg width="32" height="32" viewBox="0 0 32 32" fill="none" xmlns="http://www.w3.org/2000/svg">
<path d="M7.10646 21.2385C6.81294 19.9575 6.66533 18.6474 6.66646 17.3332C6.66646 10.5492 10.5371 4.75183 15.9998 2.42383C21.4625 4.75183 25.3331 10.5492 25.3331 17.3332C25.3331 18.6798 25.1811 19.9878 24.8931 21.2385L27.5865 23.6332C27.7024 23.7363 27.7787 23.8766 27.8023 24.0299C27.8259 24.1832 27.7953 24.34 27.7158 24.4732L24.4385 29.9345C24.3863 30.0213 24.315 30.095 24.2301 30.1502C24.1452 30.2053 24.0488 30.2404 23.9483 30.2527C23.8478 30.265 23.7459 30.2543 23.6501 30.2214C23.5544 30.1884 23.4674 30.1341 23.3958 30.0625L20.3905 27.0572C20.1405 26.8071 19.8014 26.6666 19.4478 26.6665H12.5518C12.1982 26.6666 11.8591 26.8071 11.6091 27.0572L8.60379 30.0625C8.53218 30.1341 8.44521 30.1884 8.34947 30.2214C8.25374 30.2543 8.15175 30.265 8.05125 30.2527C7.95076 30.2404 7.85439 30.2053 7.76947 30.1502C7.68455 30.095 7.6133 30.0213 7.56113 29.9345L4.28379 24.4745C4.20389 24.3412 4.17309 24.1841 4.19671 24.0305C4.22032 23.8769 4.29687 23.7363 4.41313 23.6332L7.10646 21.2385ZM15.9998 17.3332C16.707 17.3332 17.3853 17.0522 17.8854 16.5521C18.3855 16.052 18.6665 15.3737 18.6665 14.6665C18.6665 13.9593 18.3855 13.281 17.8854 12.7809C17.3853 12.2808 16.707 11.9998 15.9998 11.9998C15.2926 11.9998 14.6143 12.2808 14.1142 12.7809C13.6141 13.281 13.3331 13.9593 13.3331 14.6665C13.3331 15.3737 13.6141 16.052 14.1142 16.5521C14.6143 17.0522 15.2926 17.3332 15.9998 17.3332Z" fill="white"/>
</svg>
