<svg width="66" height="66" viewBox="0 0 66 66" fill="none" xmlns="http://www.w3.org/2000/svg">
<path fill-rule="evenodd" clip-rule="evenodd" d="M65.9241 39.9653L65.6586 40.8284C65.6586 40.8948 65.6586 40.8948 65.5922 40.9611C64.9283 43.2183 64.0652 45.3427 63.003 47.3344C61.2769 50.5874 58.9533 53.5748 56.2977 56.0976C53.1775 59.0186 49.4597 61.3422 45.3436 62.8691C41.6258 64.2633 37.6425 65.0599 33.46 65.0599C32.8625 65.0599 32.265 65.0599 31.6675 64.9935C30.8044 64.9271 29.9414 64.8608 29.0783 64.728C23.4353 63.9977 18.2569 61.8733 13.8753 58.6867C13.4769 58.3547 13.0786 58.0892 12.6803 57.7573C13.4769 57.0934 15.0703 57.027 15.0703 57.027L12.813 55.2345L7.16999 52.1807C6.10777 50.7865 5.11194 49.326 4.24888 47.7991C4.04972 47.4008 3.85055 47.0688 3.65139 46.6705C3.65139 46.6705 3.65139 46.6705 3.65139 46.6041C3.45222 46.2058 3.25306 45.8074 3.05389 45.4091C2.45639 44.1478 1.99166 42.82 1.52694 41.4258C1.19499 40.43 0.929448 39.4342 0.730281 38.4384C0.597504 37.7081 0.464722 36.9779 0.331944 36.2476C0.132778 34.7207 0 33.1274 0 31.5341C0 31.1357 0 30.8038 0 30.4055C0 29.8744 0.0663929 29.2769 0.0663929 28.7458C0.132782 28.2147 0.199158 27.6836 0.199158 27.1525C0.199158 27.0861 0.199158 27.0861 0.199158 27.0197C0.331936 26.2894 0.398329 25.5592 0.597496 24.8289C0.796662 23.7667 1.06223 22.7709 1.39417 21.7751C1.7925 20.3809 2.32361 18.9868 2.92111 17.7254C3.51861 16.464 4.18249 15.2027 4.91277 14.0077C7.16999 12.8127 8.63055 12.1488 8.63055 12.1488C8.63055 12.1488 47.6008 4.44784 48.1983 3.78397C48.7958 3.12009 51.7169 3.51841 51.7169 3.51841C53.5758 4.71339 55.2355 6.10753 56.8289 7.63445C57.2272 7.96639 57.5591 8.36472 57.8911 8.69666C58.0902 8.96221 58.3558 9.22777 58.555 9.49332C58.9533 9.95804 59.2852 10.3564 59.6836 10.8211C61.0114 12.5472 62.2063 14.3396 63.2022 16.2649C63.6005 16.9951 63.9325 17.7918 64.2644 18.5221C67.2519 30.2727 63.5341 40.2973 63.5341 40.2973C64.53 40.0981 65.3266 40.0317 65.9241 39.9653Z" fill="url(#paint0_radial_2204_77353)"/>
<path fill-rule="evenodd" clip-rule="evenodd" d="M65.9241 39.9653L65.6586 40.8284C65.6586 40.8948 65.6586 40.8948 65.5922 40.9611C64.9283 43.2183 64.0652 45.3427 63.003 47.3344C61.2769 50.5874 58.9533 53.5748 56.2977 56.0976C53.1775 59.0186 49.4597 61.3422 45.3436 62.8691C41.6258 64.2633 37.6425 65.0599 33.46 65.0599C32.8625 65.0599 32.265 65.0599 31.6675 64.9935C30.8044 64.9271 29.9414 64.8608 29.0783 64.728C23.4353 63.9977 18.2569 61.8733 13.8753 58.6867C13.4769 58.3547 13.0786 58.0892 12.6803 57.7573C13.4769 57.0934 15.0703 57.027 15.0703 57.027L12.813 55.2345L7.16999 52.1807C6.10777 50.7865 5.11194 49.326 4.24888 47.7991C4.04972 47.4008 3.85055 47.0688 3.65139 46.6705C3.65139 46.6705 3.65139 46.6705 3.65139 46.6041C3.45222 46.2058 3.25306 45.8074 3.05389 45.4091C2.45639 44.1478 1.99166 42.82 1.52694 41.4258C1.19499 40.43 0.929448 39.4342 0.730281 38.4384C0.597504 37.7081 0.464722 36.9779 0.331944 36.2476C0.132778 34.7207 0 33.1274 0 31.5341C0 31.1357 0 30.8038 0 30.4055C0 29.8744 0.0663929 29.2769 0.0663929 28.7458C0.132782 28.2147 0.199158 27.6836 0.199158 27.1525C0.199158 27.0861 0.199158 27.0861 0.199158 27.0197C0.331936 26.2894 0.398329 25.5592 0.597496 24.8289C0.796662 23.7667 1.06223 22.7709 1.39417 21.7751C1.7925 20.3809 2.32361 18.9868 2.92111 17.7254C3.51861 16.464 4.18249 15.2027 4.91277 14.0077C7.16999 12.8127 8.63055 12.1488 8.63055 12.1488C8.63055 12.1488 47.6008 4.44784 48.1983 3.78397C48.7958 3.12009 51.7169 3.51841 51.7169 3.51841C53.5758 4.71339 55.2355 6.10753 56.8289 7.63445C57.2272 7.96639 57.5591 8.36472 57.8911 8.69666C58.0902 8.96221 58.3558 9.22777 58.555 9.49332C58.9533 9.95804 59.2852 10.3564 59.6836 10.8211C61.0114 12.5472 62.2063 14.3396 63.2022 16.2649C63.6005 16.9951 63.9325 17.7918 64.2644 18.5221C67.2519 30.2727 63.5341 40.2973 63.5341 40.2973C64.53 40.0981 65.3266 40.0317 65.9241 39.9653Z" fill="url(#paint1_radial_2204_77353)"/>
<path fill-rule="evenodd" clip-rule="evenodd" d="M64.9948 31.6006C64.9948 32.7956 64.9284 33.9906 64.7956 35.1192C64.5965 36.9116 64.2645 38.6377 63.7998 40.2974C63.7998 40.3638 63.7998 40.3638 63.7998 40.4302C63.2023 42.5546 62.3392 44.5462 61.3434 46.4051C59.6837 49.4589 57.5592 52.2472 55.0365 54.6372C52.1154 57.3591 48.5967 59.5499 44.7462 61.0104C41.294 62.3382 37.5098 63.0684 33.5929 63.0684C33.0618 63.0684 32.4643 63.0684 31.9331 63.002C31.1365 62.9357 30.2734 62.8693 29.4768 62.8029C24.1656 62.139 19.3193 60.081 15.2031 57.0935C14.6057 56.6288 14.0081 56.1641 13.4106 55.6994C13.2779 55.5666 13.0787 55.4339 12.9459 55.3011C11.4854 53.9733 10.0912 52.5792 8.89621 50.9859C7.90038 49.7245 6.97092 48.3303 6.10787 46.8698C5.9087 46.5379 5.70954 46.2059 5.57677 45.8076C5.57677 45.8076 5.57677 45.8076 5.57677 45.7412C5.3776 45.3429 5.17844 45.011 5.04566 44.6126C4.51455 43.4177 4.04983 42.1563 3.65149 40.8949C3.38594 39.9655 3.12038 39.036 2.92121 38.1066C2.78844 37.4427 2.65566 36.7789 2.58927 36.0486C2.3901 34.5881 2.25732 33.1275 2.25732 31.6006C2.25732 31.2687 2.25732 30.8703 2.25732 30.5384C2.25732 30.0073 2.32372 29.4762 2.32372 29.0115C2.39011 28.4804 2.39009 28.0157 2.45648 27.4846C2.45648 27.4182 2.45648 27.4182 2.45648 27.3518C2.52287 26.6879 2.65565 25.9576 2.78843 25.2938C2.98759 24.298 3.25315 23.3685 3.51871 22.3727C3.91704 21.045 4.38177 19.7836 4.97927 18.5222C5.57677 17.1944 6.30704 15.8667 7.1037 14.6053C7.63481 13.7423 8.23232 12.8792 8.89621 12.0826C9.75926 10.954 10.7551 9.89178 11.7509 8.89597C17.394 3.38578 25.1615 0 33.6592 0C33.9912 0 34.3231 0 34.6551 0C34.987 0 35.3854 4.051e-06 35.7173 0.0663919C36.7131 0.13278 37.6426 0.265555 38.6384 0.398331C38.6384 0.398331 38.6384 0.398331 38.7048 0.398331C39.5015 0.531107 40.2981 0.66388 41.0284 0.863044C42.0242 1.1286 43.0201 1.39415 43.9495 1.72609C44.6134 1.92525 45.2109 2.19081 45.8748 2.45636C46.3395 2.65552 46.8042 2.85468 47.269 3.05384C47.3353 3.12023 47.4018 3.12023 47.5345 3.18662C50.5884 4.64715 53.3767 6.63879 55.7667 9.02875C56.0987 9.36069 56.4306 9.69263 56.7626 10.0246C56.9617 10.2901 57.2273 10.4893 57.4265 10.7548C57.7584 11.1532 58.1567 11.6179 58.4887 12.0162C59.7501 13.6095 60.8123 15.3356 61.7417 17.1281C62.804 19.2525 63.667 21.5097 64.2645 23.8332C64.6628 25.2938 64.862 26.8207 65.0612 28.414C64.9284 29.5426 64.9948 30.5384 64.9948 31.6006Z" fill="url(#paint2_radial_2204_77353)"/>
<path fill-rule="evenodd" clip-rule="evenodd" d="M18.1903 19.0533C18.1903 19.0533 17.3273 20.9121 18.0575 22.771C18.7214 24.6298 20.7131 23.4349 23.0367 22.771C25.3603 22.1071 27.7503 19.7171 29.2773 18.1902C30.8042 16.6633 32.2648 14.6053 32.132 12.6136C31.9992 10.622 29.8748 9.29424 29.8748 9.29424C29.8748 9.29424 30.6714 8.29842 30.0075 12.2817C29.3437 16.1986 28.4806 17.6591 27.6176 18.2566C26.7545 18.8541 24.2317 20.381 22.8376 21.244C21.4434 22.1071 19.8501 22.9701 18.9206 22.771C17.9248 22.439 17.4601 20.381 18.1903 19.0533Z" fill="url(#paint3_radial_2204_77353)"/>
<path fill-rule="evenodd" clip-rule="evenodd" d="M22.4394 17.6593C22.4394 17.6593 21.2444 18.7215 21.5763 19.5846C21.9083 20.4476 24.1655 19.9165 25.626 18.0577C27.0866 16.1988 25.958 14.7383 25.958 14.7383C25.958 14.7383 25.4269 17.7921 24.0327 18.3232C22.6385 18.8543 22.1738 18.6552 22.1738 18.6552C22.1738 18.6552 21.8419 18.3896 22.4394 17.6593Z" fill="url(#paint4_radial_2204_77353)"/>
<path fill-rule="evenodd" clip-rule="evenodd" d="M18.855 18.987C18.855 18.987 19.9836 17.6592 21.3114 16.4643C22.6392 15.2029 24.8964 14.7382 24.8964 14.7382C24.8964 14.7382 23.5686 14.0079 21.8425 15.0037C20.1828 16.0659 18.855 18.987 18.855 18.987Z" fill="url(#paint5_radial_2204_77353)"/>
<path fill-rule="evenodd" clip-rule="evenodd" d="M14.0747 19.0531C14.0747 19.0531 16.7966 16.0657 20.0497 14.8043C23.3028 13.5429 24.4314 13.1446 25.8919 11.9496C27.3525 10.7546 28.9458 9.8252 28.9458 9.8252C28.9458 9.8252 25.7592 9.95797 20.9128 13.0782C16.0664 16.0656 14.0747 18.0573 14.0747 19.0531Z" fill="url(#paint6_radial_2204_77353)"/>
<path fill-rule="evenodd" clip-rule="evenodd" d="M7.50244 18.4559C7.50244 18.4559 12.1497 13.8087 15.801 11.9498C19.4524 10.091 21.9088 8.96239 25.1619 8.09935C28.4149 7.30269 33.4605 5.84216 33.4605 5.84216L34.3899 5.37744C34.3899 5.37744 23.9669 5.57661 17.1952 9.69265C10.4236 13.8087 7.50244 18.4559 7.50244 18.4559Z" fill="url(#paint7_radial_2204_77353)"/>
<path fill-rule="evenodd" clip-rule="evenodd" d="M13.1449 23.8334C13.1449 23.8334 13.9416 30.273 15.0702 30.5386C16.1988 30.8041 20.1821 30.8042 26.1571 27.7503C32.1321 24.6965 33.3271 25.4267 36.6466 22.041C39.966 18.6552 41.3602 14.8047 42.356 12.2819C43.4182 9.7592 43.6838 6.83814 43.3518 5.9751C43.3518 5.9751 44.4805 6.63899 44.4805 9.16173C44.4805 11.6845 43.7502 15.9333 42.688 18.3232C41.6257 20.7796 38.8374 24.6301 35.518 26.4889C32.1985 28.3478 25.4933 31.9991 18.9871 31.9327C12.4146 31.8664 13.4769 31.4016 12.813 30.0739C12.0827 28.7461 13.1449 23.8334 13.1449 23.8334Z" fill="url(#paint8_radial_2204_77353)"/>
<path opacity="0.5" fill-rule="evenodd" clip-rule="evenodd" d="M2.92139 29.2771C2.92139 29.2771 4.11639 31.8662 4.71389 34.2562C5.37778 36.6461 5.245 40.6294 7.96694 41.2933C10.6889 41.8908 14.473 43.6832 15.8672 43.2185C17.3278 42.7538 22.6389 41.8244 25.6264 42.4219C28.6139 43.0194 33.9914 42.6874 35.8503 41.758C37.7092 40.8286 41.8253 38.3722 43.7505 37.642C45.6758 36.9117 48.3314 34.7873 50.655 32.4637C52.9786 30.1401 52.9122 27.4846 53.5097 26.1568C54.1072 24.8291 55.2358 19.5845 55.103 17.1945C54.9703 14.8045 53.5097 10.3566 53.5097 10.3566L52.1819 8.9624C52.1819 8.9624 53.8416 15.0701 53.1114 19.4517C52.3811 23.7669 53.045 25.5594 50.0575 29.6754C47.07 33.8578 42.8211 37.1109 38.1075 38.6378C33.3939 40.2311 30.34 40.0319 25.4936 40.4966C20.9128 40.8949 15.2033 40.6294 12.9461 40.0319C10.8881 39.5008 8.1661 38.173 6.10804 34.8537C3.91721 31.4015 2.92139 29.2771 2.92139 29.2771Z" fill="#7D72B3"/>
<path opacity="0.4" fill-rule="evenodd" clip-rule="evenodd" d="M13.3444 22.5051C13.3444 22.5051 13.8092 29.4759 14.6722 30.0734C15.5353 30.6708 17.4605 30.9364 19.1867 30.3389C20.9792 29.7414 26.9541 27.7498 28.0164 27.1523C29.0786 26.5548 35.3855 23.3682 36.6469 22.3724C37.9083 21.4429 39.568 18.0572 40.1655 17.3933C40.763 16.7294 42.29 12.547 42.6883 10.9536C43.153 9.36034 43.4186 7.50149 43.4186 7.50149C43.4186 7.50149 43.5514 6.63844 42.8211 6.3065C42.0908 6.04095 41.958 6.3065 41.958 6.3065C41.958 6.3065 41.8253 7.36871 41.1614 10.3562C40.4975 13.3436 31.6014 23.5673 27.0869 26.2892C22.5725 28.9448 18.3236 29.0775 16.7967 28.8784C15.2033 28.6792 13.2781 23.7001 13.3444 22.5051Z" fill="#7D72B3"/>
<path opacity="0.4" fill-rule="evenodd" clip-rule="evenodd" d="M13.1453 23.833C13.1453 23.833 13.3445 19.5178 14.4731 18.0573C15.6017 16.5968 19.3859 13.6093 21.5767 12.4807C23.8339 11.3521 27.0206 9.75881 28.1492 9.49326C29.2778 9.22771 30.0745 9.49326 30.0745 9.49326C30.0745 9.49326 28.7467 8.76298 25.6264 9.55963C22.5061 10.3563 18.9875 13.211 17.2614 14.1404C15.5353 15.0035 12.9461 17.1942 12.2823 18.3228C11.6848 19.3187 13.1453 23.833 13.1453 23.833Z" fill="#7D72B3"/>
<path opacity="0.4" fill-rule="evenodd" clip-rule="evenodd" d="M5.44385 19.2522L15.0702 10.821L21.0452 8.0991C21.0452 8.0991 26.9538 6.10746 29.6758 5.44358C32.3977 4.77971 38.4391 4.64692 38.4391 4.64692L41.6258 4.97886C41.6258 4.97886 36.1155 1.99141 27.8833 4.18221C19.7175 6.37301 14.2736 9.1613 11.8836 11.4185C9.55997 13.6093 5.90857 18.1237 5.44385 19.2522Z" fill="#7D72B3"/>
<path fill-rule="evenodd" clip-rule="evenodd" d="M5.17881 19.5844C5.17881 19.5844 0.000475645 25.8249 2.52325 29.6754C5.04603 33.5259 6.17464 39.1024 6.90492 40.3638C7.6352 41.6252 16.0002 43.6168 17.7263 43.2185C19.4524 42.8201 23.6349 41.7579 26.3568 42.7538C26.3568 42.7538 31.2032 42.3554 32.531 42.3554C33.9252 42.3554 36.448 41.1605 37.0455 40.8949C37.643 40.6294 40.896 39.5671 42.5557 38.9033C44.2155 38.2394 46.9374 36.115 47.9996 35.3183C49.0618 34.4553 51.9166 31.0695 52.5141 30.0073C53.0452 28.9451 54.7049 22.8374 55.1032 19.9163C55.5016 16.9953 54.3066 11.4187 53.3107 9.49347C52.3149 7.56822 49.3938 5.77575 49.3938 5.77575L49.5929 4.91269L51.9166 3.51855C51.9166 3.51855 55.9663 8.7632 56.2982 13.344C56.4974 15.9995 57.1613 21.7088 56.431 24.1652C55.8999 26.1568 53.9746 31.8662 52.2485 33.9242C50.5888 35.9822 45.5432 41.2268 42.8877 42.2891C40.2321 43.2849 32.2655 44.679 27.6182 44.7454C24.166 44.8118 16.5977 44.2143 12.8799 44.0815C9.16214 43.9487 6.5066 41.6252 5.04604 40.4302C3.58549 39.2352 4.0502 36.0486 2.58964 33.4595C1.0627 30.9367 0.266035 27.551 0.597979 25.6921C0.929924 23.966 5.17881 19.5844 5.17881 19.5844Z" fill="url(#paint9_radial_2204_77353)"/>
<path fill-rule="evenodd" clip-rule="evenodd" d="M14.274 43.4177C13.4773 43.2185 12.7471 42.8202 11.9504 42.621C11.4857 42.4883 11.0873 42.4219 10.6226 42.2891C10.1579 42.1563 9.69316 42.0899 9.22844 42.0899C8.299 42.0235 7.36955 41.8244 6.77205 41.0941C6.24093 40.4302 5.90901 39.7 5.70984 38.8369C5.3779 37.7083 5.11232 36.5797 4.78038 35.5175C4.44844 34.4553 4.0501 33.5923 3.4526 32.6629C3.25344 32.3309 3.05427 31.9326 2.78871 31.6007C2.58955 31.2687 2.25762 31.0032 2.05845 30.6048C1.59373 29.6754 1.46094 28.6796 1.46094 27.6174C1.46094 27.0863 1.59373 26.5552 1.72651 26.0241C1.85929 25.3602 2.05845 24.7627 2.3904 24.1652C2.72234 23.6341 2.98789 23.0366 3.31984 22.5055C4.05011 21.2442 4.78039 19.9828 5.64345 18.8542C6.77206 17.46 8.03345 16.0659 9.36123 14.8045C10.0915 14.0743 10.9545 13.4104 11.8176 12.7465C12.5479 12.2154 13.2118 11.6179 13.8757 11.0868C15.0707 10.1574 16.4648 9.5599 17.859 8.89602C19.5187 8.09936 21.1784 7.30272 22.9045 6.70523C24.9626 5.97496 27.0207 5.37746 29.1451 4.91275C31.6015 4.44803 34.1243 4.31526 36.5807 4.31526C37.9084 4.31526 39.369 4.18249 40.6968 4.6472C41.427 4.91275 42.2901 5.24469 42.8876 5.64302C43.0204 5.77579 43.0868 5.77579 43.2195 5.90857C43.2859 5.97495 43.2859 6.10774 43.3523 6.17413C43.4851 6.43968 43.5515 6.77162 43.5515 7.03717C43.5515 7.30272 43.4187 7.56828 43.4187 7.83383C43.4187 8.23215 43.2859 8.63047 43.2859 9.0288C43.2859 9.49352 43.1531 9.82545 43.0868 10.2902C42.954 11.0868 42.8212 11.8835 42.4893 12.6801C42.0245 13.8087 41.6926 15.0037 41.2279 16.0659C41.0951 16.3979 40.8295 16.6634 40.6304 16.9953C40.4976 17.3273 40.3648 17.5264 40.1656 17.8584C39.8337 18.3895 39.5681 18.987 39.1698 19.4517C38.3731 20.5139 37.6429 21.6425 36.5807 22.5055C35.3193 23.5013 33.9915 24.3644 32.5973 25.0947C31.6679 25.5594 30.7384 25.9577 29.809 26.4224C29.0123 26.8207 28.1493 27.2855 27.2862 27.6838C25.1618 28.6796 22.8382 29.4099 20.5809 30.1401C19.917 30.3393 19.3196 30.5385 18.6557 30.6712C18.0582 30.7376 17.3279 30.9368 16.7304 30.9368C16.0665 30.9368 15.4026 30.7376 14.7387 30.5385C13.6765 30.2065 13.5437 29.0115 13.4773 28.0157C13.4109 27.2855 13.3446 26.5552 13.2118 25.8913C13.079 25.2938 13.079 24.7627 12.9462 24.1652C12.8134 23.5677 12.747 22.9702 12.747 22.3728C12.747 21.5761 13.0126 20.9122 13.2118 20.1156C13.3446 19.6509 13.3446 19.1197 13.6101 18.655C13.8757 17.9912 14.4068 17.3937 15.0043 16.9289C15.5354 16.4642 16.1329 15.9331 16.664 15.4684C16.9959 15.1365 17.3943 14.9373 17.7262 14.6718C18.3237 14.2071 18.9876 13.8087 19.7179 13.4768C20.249 13.2112 20.6473 12.7465 21.1784 12.4146C21.7095 12.0826 22.307 11.7507 22.8382 11.4188C23.3029 11.1532 23.834 11.0204 24.3651 10.8213C24.7634 10.6885 25.1618 10.4229 25.5601 10.2902C25.9584 10.1574 26.3568 10.091 26.7551 9.95823C27.1534 9.82545 27.4854 9.69267 27.8837 9.5599C28.3484 9.42712 28.8132 9.29435 29.2115 9.29435C30.0745 9.29435 30.4729 9.69267 30.7384 10.5557C31.0704 11.6843 30.672 12.6801 30.2737 13.7423C29.9418 14.6054 29.5434 15.402 29.2779 16.2651C28.8795 17.3937 27.8173 17.9912 26.9543 18.7878C26.0248 19.5845 24.8962 20.3811 23.834 20.8458C23.502 20.9786 23.1037 21.1114 22.7718 21.2442C22.5062 21.3769 22.1743 21.5761 21.9087 21.7089C21.7095 21.8417 21.5768 21.9744 21.3776 22.1072C21.2448 22.24 21.0457 22.24 20.8465 22.3728C20.4482 22.6383 20.0498 22.9039 19.5851 23.103C19.1868 23.3022 18.3237 23.435 18.0582 22.9039C17.9254 22.6383 17.9254 22.3064 17.859 22.0408C17.7926 21.7089 17.7926 21.3769 17.7926 21.045C17.7926 20.7131 17.859 20.4475 17.9254 20.1156C17.9918 19.7836 18.1246 19.5181 18.2573 19.1861C18.5893 18.2567 19.1868 17.5928 19.7179 16.8626C20.0498 16.3978 20.3818 15.9331 20.7801 15.4684C21.3776 14.8045 22.2406 14.539 23.0373 14.2734C23.7676 14.0743 24.8962 13.8751 25.6265 14.2734C26.224 14.6718 25.8257 15.4684 25.6265 15.9331C25.4937 16.1987 25.4273 16.4642 25.2946 16.7298C25.2282 16.929 25.2281 17.1945 25.0954 17.3937C24.8298 17.792 24.3651 18.0575 23.9668 18.3895C23.834 18.5223 23.5684 18.7214 23.3693 18.7878C23.1037 18.8542 22.8382 18.8542 22.5726 18.9206C22.4398 18.9206 22.3734 19.1198 22.2407 19.0534C22.1079 18.987 22.1079 18.8542 22.1079 18.7214C22.1079 18.5887 22.1743 18.4559 22.2407 18.3231C22.2407 18.3231 22.2407 18.2567 22.2407 18.1903C22.3734 17.792 22.8381 17.3273 23.0373 16.9953C23.3693 17.1281 23.1701 17.3273 23.1037 17.5264C23.0373 17.6592 23.0373 17.792 23.0373 17.9248C23.0373 18.0575 22.8382 18.2567 22.9709 18.3895C23.0373 18.4559 23.3693 18.3231 23.4357 18.3231C24.2323 18.0575 24.6971 17.1945 24.9626 16.4642C25.0954 15.9331 25.0954 15.1365 24.5643 14.8709C24.1659 14.7381 23.6348 14.8045 23.2365 14.8045C21.7095 14.8045 20.7801 16.4642 19.917 17.5264C19.3859 18.2567 18.9212 19.0534 18.5893 19.9164C18.3901 20.5139 18.2573 21.1114 18.1245 21.7089C17.9918 22.1736 17.859 22.8375 18.5229 22.7711C18.9212 22.7047 19.3195 22.5055 19.7179 22.3728C20.0498 22.24 20.3154 22.1736 20.6473 21.9744C21.1121 21.7089 21.7095 21.6425 22.1743 21.3769C22.5726 21.1778 22.9709 20.9786 23.3693 20.7795C24.3651 20.2484 25.4273 19.2525 26.0912 18.3895C26.5559 17.792 27.2862 17.3273 27.8173 16.7962C28.4148 16.2651 28.6804 15.5348 29.0787 14.8709C29.477 14.1407 29.6762 13.4768 29.8754 12.7465C30.0082 12.0826 30.4729 11.286 30.2073 10.5557C30.0082 9.82545 29.0123 9.82545 28.4148 9.89183C27.8837 9.95822 27.3526 10.091 26.8215 10.2238C25.892 10.5557 25.029 10.954 24.1659 11.3524C22.7718 11.9499 21.5768 12.8793 20.3154 13.6759C19.6515 14.0743 18.9212 14.4062 18.3237 14.8709C17.859 15.2029 17.4607 15.6676 16.9959 15.9995C16.664 16.2651 16.4648 16.597 16.0665 16.7962C15.6018 17.1281 15.2034 17.46 14.8715 17.8584C14.6059 18.1903 14.274 18.655 14.1412 19.0534C14.0084 19.3853 14.1412 19.7172 14.1412 20.0492C14.1412 20.5139 14.0084 20.9786 14.0084 21.4433C14.0084 21.908 14.0084 22.4391 14.0084 22.9039C14.0084 23.8997 13.8757 24.8291 13.8757 25.7585C13.8757 26.356 14.0084 27.0199 14.1412 27.551C14.2076 28.0157 14.4068 28.414 14.4732 28.8788C14.4732 29.2107 14.5395 29.609 14.8051 29.8082C14.9379 29.8746 15.1371 29.941 15.2698 30.0074C15.4026 30.0737 15.5354 30.1401 15.6682 30.1401C15.7346 30.1401 15.8009 30.2065 15.9337 30.2065C16.0001 30.2065 16.0665 30.3393 16.0665 30.3393C16.1993 30.4057 16.4648 30.3393 16.5976 30.3393C16.9959 30.2729 17.3943 30.2065 17.7262 30.0737C18.722 29.941 19.6515 29.941 20.5809 29.609C21.6432 29.2107 22.639 28.6132 23.6348 28.2149C25.1618 27.551 26.8879 27.0863 28.3484 26.2896C29.0123 25.9577 29.7426 25.5594 30.4065 25.2938C32.0662 24.5636 33.7923 23.9661 35.1865 22.8375C35.7176 22.4391 36.1823 21.908 36.647 21.4433C36.9126 21.1778 37.1781 20.9122 37.4437 20.5803C38.174 19.6508 38.8379 18.655 39.369 17.6592C39.6345 17.2609 39.7673 16.7298 39.9665 16.3315C40.3648 15.6676 40.7631 15.0701 41.1615 14.4062C41.4934 13.7423 41.6926 13.0785 41.8918 12.3482C42.0245 11.8835 42.1573 11.5515 42.0909 11.0868C42.0909 10.1574 42.1573 9.36075 42.5557 8.49771C42.7548 8.03299 43.0868 7.36911 42.8876 6.83801C42.8212 6.57246 42.4229 6.50607 42.2237 6.43968C41.6926 6.24052 41.1615 6.10773 40.6304 5.90857C40.1656 5.7094 39.8337 5.44386 39.3026 5.37747C39.1034 5.31108 38.9043 5.31108 38.7051 5.31108C38.174 5.31108 37.7757 5.70941 37.2445 5.64302C37.1118 5.64302 36.979 5.57663 36.7798 5.57663C36.5143 5.51024 36.2487 5.57663 35.9831 5.57663C35.3856 5.57663 34.8545 5.44386 34.257 5.44386C33.5932 5.44386 32.9293 5.51024 32.2654 5.57663C31.6015 5.64301 31.004 5.57663 30.3401 5.57663C29.9418 5.57663 29.6762 5.77579 29.3443 5.90857C29.0123 6.04134 28.6804 6.10773 28.3484 6.2405C28.0165 6.37328 27.7509 6.43968 27.419 6.50607C26.9543 6.50607 26.5559 6.43967 26.0912 6.57244C25.5601 6.70522 25.029 6.90439 24.4979 7.10356C23.1037 7.70105 21.7095 8.49769 20.249 8.96241C19.5187 9.16157 18.7884 9.29434 18.1245 9.5599C17.859 9.69267 17.6598 9.82545 17.3943 10.0246C16.9295 10.3566 16.4648 10.6221 16.0001 10.8877C14.9379 11.5515 13.942 12.2818 12.8798 13.0785C11.6848 13.9415 10.5562 14.8709 9.56039 15.9995C7.83428 17.9912 6.04177 19.9828 4.51483 22.1736C3.78455 23.1694 2.98789 24.298 2.52316 25.4266V25.493C2.25761 26.1569 2.12483 26.8207 2.19122 27.551C2.19122 27.551 2.19122 27.551 2.19122 27.6174C2.25761 28.2149 2.52318 28.8788 2.72234 29.4099C2.9879 29.941 3.12066 30.4721 3.4526 31.0032C3.78455 31.5343 4.24927 31.999 4.44844 32.5965C4.71399 33.3267 4.97955 34.1234 5.24511 34.9201C5.51067 35.8495 5.77622 36.8453 5.909 37.8411C6.04178 38.4386 6.10816 39.1025 6.4401 39.6336C6.83843 40.4302 7.70149 40.6958 8.43177 41.1605C8.8301 41.4261 9.02927 41.4924 9.49399 41.4924C10.0915 41.5588 10.7554 41.6916 11.3529 41.8908C12.6143 42.2891 13.9421 42.5546 15.2698 42.5546C16.0665 42.5546 16.8632 42.3555 17.5934 42.2227C18.3237 42.1563 19.054 42.0899 19.7843 41.9572C20.4482 41.8244 21.112 41.6916 21.7759 41.6916C22.4398 41.6916 23.1701 41.8244 23.7676 41.9572C24.8962 42.2891 25.9584 42.4883 27.087 42.4883C27.8173 42.4883 28.4812 42.2891 29.2115 42.2891C29.8754 42.2227 30.4729 42.3555 31.1368 42.4219C32.2654 42.4883 33.394 42.2227 34.4562 41.8244C35.1865 41.5588 35.784 41.2269 36.4479 40.8286C36.979 40.4966 37.5101 40.4302 38.0412 40.2975C39.1698 39.9655 40.2984 39.5672 41.3606 38.9697C42.6884 38.1731 43.817 37.0445 45.1448 36.2478C45.8751 35.7831 46.7381 35.4512 47.4684 34.9864C48.0659 34.5881 48.6634 34.1234 49.1281 33.5923C49.7256 32.9948 50.2568 32.3973 50.8543 31.7998C51.319 31.3351 51.5181 30.7376 51.7173 30.2065C52.1156 29.3435 52.2484 28.4804 52.3812 27.551C52.514 26.6216 52.9123 25.8249 53.3106 25.0283C53.8417 23.9661 54.2401 22.9703 54.3065 21.7753C54.3729 20.8458 54.5056 19.9828 54.5056 19.0534C54.5056 18.4559 54.4392 17.9248 54.3065 17.3273C54.2401 16.7962 54.1073 16.2651 54.0409 15.734C53.9081 15.0701 53.9081 14.4062 53.7754 13.7423C53.6426 13.2112 53.5098 12.6137 53.377 12.0163C53.2443 11.6179 53.1115 11.2196 52.9787 10.8213C52.7131 10.1574 52.3148 9.49351 51.8501 8.89602C51.6509 8.63047 51.3854 8.56409 51.1862 8.43131C50.987 8.29854 50.987 8.16576 50.7879 8.09938C50.5223 7.9666 50.2567 7.83382 49.9912 7.70104C49.5265 7.43549 49.0617 7.36911 48.597 7.10356C48.1987 6.90439 47.8004 6.57245 47.402 6.3069C46.9373 6.04135 46.4726 5.84219 46.0743 5.44386C45.6759 5.04554 45.4104 4.58082 45.0784 4.24888C44.6801 3.85055 44.149 3.585 43.7506 3.25306C43.0204 2.65557 42.0909 2.58918 41.2942 2.25725C40.8959 2.05808 40.4312 2.05808 40.0329 1.92531C39.5018 1.79253 39.1698 1.52698 38.6387 1.46059C38.174 1.39421 37.7093 1.3942 37.1782 1.26143C36.9126 1.19504 36.647 1.12865 36.3151 1.12865C35.784 1.06227 35.1865 1.12865 34.6554 1.19504C34.1906 1.26142 33.6595 1.19504 33.1948 1.19504C32.7965 1.19504 32.3318 1.26142 31.9334 1.19504C30.7384 0.995873 29.477 1.06227 28.282 1.12865C27.1534 1.19504 26.0248 1.26142 24.9626 1.65975C24.0332 1.99169 23.1701 2.25725 22.2407 2.58918C21.6432 2.85474 21.112 3.18667 20.5145 3.51861C19.1204 4.31526 17.859 5.2447 16.5976 6.10774C15.1371 7.10356 13.7429 8.16575 12.3487 9.22796C11.4193 9.89183 10.4898 10.6221 9.62678 11.286C9.22845 11.6179 8.8301 11.9499 8.49816 12.2818C9.36121 11.1532 10.3571 10.091 11.3529 9.09519C16.9959 3.585 24.7634 0.199219 33.2612 0.199219C33.5932 0.199219 33.9251 0.199219 34.257 0.199219C34.589 0.199219 34.9873 0.199223 35.3193 0.265611C36.3151 0.331998 37.2445 0.464774 38.2404 0.59755C38.2404 0.59755 38.2404 0.59755 38.3068 0.59755C39.369 0.863101 40.4312 1.19504 41.5598 1.52698C42.4893 1.79253 43.3523 2.05808 44.2154 2.32363C44.8129 2.52279 45.344 2.78834 45.9415 2.98751C46.4726 3.18667 47.0037 3.38583 47.4684 3.65138C48.2651 4.1161 48.9954 4.64721 49.6592 5.17832C50.124 5.51025 50.5887 5.97496 50.987 6.37329C51.5845 6.97078 52.1156 7.63465 52.5804 8.29853C53.6426 9.95823 54.5056 11.8171 54.904 13.8087C55.2359 15.4684 55.2359 17.1945 55.1695 18.8542C55.1031 19.7172 54.9704 20.7131 54.7712 21.5761C54.572 22.5719 54.2401 23.435 54.1073 24.4308C54.0409 24.8955 54.1073 25.4266 54.0409 25.8913C53.9745 26.2896 53.8418 26.688 53.7754 27.0863C53.6426 27.8829 53.377 28.746 52.9787 29.4762C52.4476 30.5384 51.7837 31.4015 50.987 32.2645C50.124 33.2604 49.2609 34.2562 48.3315 35.1856C47.4684 36.1814 46.4062 36.9781 45.2776 37.642C44.4145 38.1731 43.4851 38.8369 42.5557 39.1689C41.6262 39.5008 40.6304 40.0319 39.6345 40.1647C38.9043 40.2311 38.3068 40.4966 37.7093 40.9613C37.3773 41.2269 37.0454 41.5588 36.7134 41.8908C36.3815 42.1563 36.0495 42.2227 35.6512 42.3555C34.7881 42.621 33.9251 42.5546 32.9956 42.5546C31.6679 42.5546 30.4065 42.6874 29.1451 42.8202C28.4812 42.8866 27.8173 42.953 27.2198 42.8866C26.6223 42.8202 26.0248 42.6874 25.4937 42.621C24.8298 42.5547 24.2323 42.5546 23.5684 42.4219C23.0373 42.3555 22.639 42.3555 22.1743 42.4219C21.7759 42.4883 21.3776 42.4219 20.9129 42.4219C20.5145 42.4883 20.0498 42.5547 19.6515 42.621C18.0582 43.0194 16.2657 43.8824 14.274 43.4177Z" fill="#00C4FF"/>
<path fill-rule="evenodd" clip-rule="evenodd" d="M12.7466 57.8238C12.7466 57.8238 20.1157 59.0852 23.4352 59.0188C28.4807 58.886 34.323 59.4835 38.8374 59.6163C43.3519 59.7491 51.2521 56.0313 52.7127 55.3674C54.1732 54.7036 57.6255 52.7119 60.6793 49.3262C63.7332 45.9404 64.9282 40.4302 64.9282 40.4302H63.6668C63.6668 40.4302 63.2021 42.8201 61.3432 45.4757C60.2146 47.069 58.6213 48.4631 56.4305 50.3883C53.2438 53.1103 49.1277 55.2347 44.9452 56.2969C39.3685 57.691 34.4557 57.2927 31.0035 57.8238C26.0907 58.5541 15.0702 56.828 15.0702 56.828L12.7466 57.8238Z" fill="url(#paint10_radial_2204_77353)"/>
<path fill-rule="evenodd" clip-rule="evenodd" d="M10.8218 54.1724C10.8218 54.1724 12.0168 57.2262 12.747 57.8237C12.747 57.8237 14.3404 57.8901 15.1371 57.0934L12.8798 55.301L10.8218 54.1724Z" fill="url(#paint11_radial_2204_77353)"/>
<path fill-rule="evenodd" clip-rule="evenodd" d="M65.0612 34.7207C65.0612 34.7207 65.8578 38.1729 65.9242 40.0317C65.9242 40.0317 64.6628 40.8284 63.7334 40.43C63.7334 40.43 64.862 36.1812 65.0612 34.7207Z" fill="url(#paint12_radial_2204_77353)"/>
<path fill-rule="evenodd" clip-rule="evenodd" d="M43.7505 1.85889C43.7505 1.85889 50.323 2.52277 51.8499 3.58497C51.8499 3.58497 50.7877 4.77995 49.5263 4.97911C49.5927 4.91272 44.2816 1.99166 43.7505 1.85889Z" fill="#EE8CFF"/>
<path fill-rule="evenodd" clip-rule="evenodd" d="M4.979 14.0739L7.70095 13.6756L8.76316 12.2814C8.76316 12.215 6.83789 13.0781 4.979 14.0739Z" fill="#FF61C7"/>
<path opacity="0.5" fill-rule="evenodd" clip-rule="evenodd" d="M7.17041 52.2471C7.17041 52.2471 19.9171 55.9648 29.809 56.164C39.7673 56.3631 43.4851 54.1723 47.8004 52.4462C52.1157 50.7865 59.1529 47.0024 61.2773 44.1478C63.4018 41.3595 65.0615 34.7207 65.0615 34.7207C65.0615 34.7207 63.0034 44.6789 61.2773 46.4049C59.4848 48.131 51.6509 53.5084 50.2568 54.1723C48.8626 54.8362 45.1448 57.6909 38.3068 56.8942C38.3068 56.8942 33.726 57.5581 32.0662 57.4253C30.4065 57.2926 27.8173 58.9522 23.1037 57.4253C23.1037 57.4253 16.5312 57.0934 15.1371 56.7614C13.6765 56.4959 7.17041 52.2471 7.17041 52.2471Z" fill="#54469B"/>
<path fill-rule="evenodd" clip-rule="evenodd" d="M10.2905 38.8367C10.2905 38.8367 20.8464 40.6955 28.4811 39.8989C36.1158 39.1022 40.2319 37.177 42.4227 35.7828C44.6136 34.3887 48.8624 29.8079 50.4558 27.6835C52.0491 25.6255 52.8458 20.3809 52.8458 20.3809C52.8458 20.3809 53.1113 25.4263 51.85 27.6835C50.5222 29.8743 46.0741 34.0567 44.2152 35.2517C42.3563 36.4467 37.1116 39.3678 34.3897 39.8325C31.6677 40.2972 27.1533 41.6913 23.8338 41.0939C20.6472 40.5627 12.6805 40.6955 10.2905 38.8367Z" fill="#B04FE2"/>
<path fill-rule="evenodd" clip-rule="evenodd" d="M24.896 55.7655C24.896 55.7655 35.8501 55.0352 39.6343 54.1722C43.4185 53.3091 48.3977 51.3175 51.8499 49.9897C55.3021 48.7284 57.9576 46.2056 59.8829 44.8115C61.8082 43.4173 64.2646 37.5752 64.2646 37.5752C64.2646 37.5752 62.6712 43.3509 60.2812 45.2098C57.8912 47.0687 51.7171 50.5208 44.8127 53.6411C37.0452 57.0932 31.0702 56.0974 24.896 55.7655Z" fill="#8B40E0"/>
<path fill-rule="evenodd" clip-rule="evenodd" d="M63.2026 41.9571C63.4018 41.426 63.5346 40.8949 63.7338 40.4302C63.1363 42.5546 62.2732 44.5462 61.2774 46.4051C61.0118 46.6706 60.6135 46.9362 60.3479 47.2017C60.0824 47.5337 59.8168 47.7992 59.5512 48.1312C58.0907 49.5253 56.4974 50.7867 54.7713 51.8489C53.0451 52.9775 51.319 54.0397 49.3938 54.9027C47.9332 55.5666 46.4063 56.0977 44.8793 56.496C43.6179 56.828 42.2901 56.9607 41.0288 57.0271C40.3649 57.0935 39.7674 57.1599 39.1035 57.2263C38.3068 57.2927 37.4438 57.2927 36.7135 57.4255C35.3193 57.691 33.9252 57.8902 32.531 57.9566C31.336 58.023 30.141 58.2221 28.946 58.2221C27.4191 58.2221 25.8921 57.9566 24.3651 57.9566C22.9046 57.9566 21.3777 57.8902 19.9171 57.7574C19.0541 57.691 18.191 57.4919 17.3279 57.4255C16.5977 57.3591 15.8674 57.1599 15.1371 57.0935C14.5396 56.6288 13.9421 56.1641 13.3446 55.6994C13.2118 55.5666 13.0127 55.4338 12.8799 55.3011C13.7429 55.5666 14.5396 55.8322 15.4027 56.0977C16.5977 56.496 17.9254 56.6952 19.1204 56.828C20.1163 56.9608 21.3776 57.0271 22.3735 56.7616C23.4357 56.496 24.166 56.828 25.0954 57.2263C25.5602 57.4255 25.9585 57.4919 26.4232 57.6246C27.0871 57.8238 27.5518 57.7574 28.2157 57.691C28.8132 57.6246 29.4107 57.4919 29.9418 57.4255C30.4065 57.2927 30.9376 57.0935 31.4024 57.0271C32.2654 56.8944 33.1949 56.7616 34.0579 56.9608C35.0538 57.1599 36.0496 57.2263 37.0454 57.0935C38.1076 56.8944 39.0371 56.828 40.0993 56.828C40.4313 56.828 40.7632 56.8944 41.0951 56.8944C41.4935 56.9608 41.8254 56.828 42.2238 56.828C42.8877 56.7616 43.5515 56.6288 44.2154 56.4296C44.8129 56.2305 45.4104 55.9649 46.0079 55.7658C47.2029 55.3011 48.1987 54.9027 49.261 54.1725C50.124 53.575 51.1199 53.1767 51.9829 52.5792C52.846 52.0481 53.5763 51.3178 54.4393 50.8531C55.3688 50.322 56.1654 49.5917 57.0285 48.9942C57.5596 48.5959 58.0907 48.1312 58.6218 47.7328C59.0865 47.4009 59.6176 47.1353 60.0824 46.737C60.8126 46.0731 61.5429 45.4093 62.074 44.4798C62.5388 43.6832 62.9371 42.8202 63.2026 41.9571Z" fill="#00C4FF"/>
<path fill-rule="evenodd" clip-rule="evenodd" d="M29.4771 24.4971C29.4771 24.4971 37.0454 18.2566 40.2321 12.2153C40.2984 12.2153 31.4023 21.3105 29.4771 24.4971Z" fill="#FF77F4"/>
<path fill-rule="evenodd" clip-rule="evenodd" d="M21.5103 31.8662C21.5103 31.8662 26.2903 31.8662 31.6014 29.6754C36.9125 27.4846 39.568 22.9038 39.568 22.9038C39.568 22.9038 35.983 26.356 32.0661 28.2812C28.1491 30.2065 25.228 30.6712 21.5103 31.8662Z" fill="#F9C6FF"/>
<path fill-rule="evenodd" clip-rule="evenodd" d="M40.4312 21.8417C40.4312 21.8417 40.9623 20.4475 41.9581 18.0576C42.9539 15.6676 43.7506 14.3398 43.7506 14.3398C43.7506 14.3398 43.485 18.0576 40.4312 21.8417Z" fill="#EA9CF4"/>
<path fill-rule="evenodd" clip-rule="evenodd" d="M19.8506 44.5461C19.8506 44.5461 26.4895 46.1394 35.1864 44.5461C43.8834 42.9528 44.2153 42.4217 46.6053 40.4965C48.9953 38.6376 50.7214 36.2476 51.6508 35.3182C52.5803 34.3888 53.7753 31.2686 53.7753 31.2686C53.7753 31.2686 51.3189 35.6502 47.8003 38.6376C44.2817 41.5587 41.3606 43.0192 35.452 43.9486C29.6097 44.8117 22.8381 44.6789 19.8506 44.5461Z" fill="#D374F4"/>
<path fill-rule="evenodd" clip-rule="evenodd" d="M25.6924 59.0186C25.6924 59.0186 31.7338 59.5497 34.1902 60.0144C36.6466 60.5455 41.3602 60.4791 44.0821 59.4833C46.804 58.4875 52.1152 55.6328 52.1152 55.6328C52.1152 55.6328 47.136 58.4211 41.161 59.085C35.2524 59.6825 31.601 58.6866 25.6924 59.0186Z" fill="#D374F4"/>
<path fill-rule="evenodd" clip-rule="evenodd" d="M53.9077 54.7695C53.9077 54.7695 57.7583 52.1804 59.6172 50.5207C59.6172 50.4543 57.6255 53.2426 53.9077 54.7695Z" fill="#D374F4"/>
<path fill-rule="evenodd" clip-rule="evenodd" d="M24.7637 21.9745C24.7637 21.9745 29.1453 18.6551 30.5395 16.3315C31.9337 13.9415 32.0664 12.6138 32.0664 12.6138C32.0664 12.6138 32.6639 14.9373 30.0748 17.8584C27.4192 20.7795 24.7637 21.9745 24.7637 21.9745Z" fill="#F2C4F8"/>
<path fill-rule="evenodd" clip-rule="evenodd" d="M4.18298 39.3018C4.11659 40.7623 4.91326 42.422 7.50242 43.4178C10.0916 44.4136 12.0832 44.1481 12.0832 44.1481C12.0832 44.1481 9.09575 43.5506 7.43603 42.422C5.77631 41.1606 4.18298 39.3018 4.18298 39.3018Z" fill="#F5CEFA"/>
<defs>
<radialGradient id="paint0_radial_2204_77353" cx="0" cy="0" r="1" gradientUnits="userSpaceOnUse" gradientTransform="translate(12.5967 19.8402) scale(51.3973 51.3965)">
<stop offset="0.00558659" stop-color="#FF9AFF"/>
<stop offset="0.0930098" stop-color="#FB94FF"/>
<stop offset="0.2093" stop-color="#F183FF"/>
<stop offset="0.3418" stop-color="#E068FF"/>
<stop offset="0.4864" stop-color="#C841FF"/>
<stop offset="0.639" stop-color="#A910FF"/>
<stop offset="0.6844" stop-color="#9F00FF"/>
<stop offset="0.7432" stop-color="#9900F8"/>
<stop offset="0.8282" stop-color="#8700E5"/>
<stop offset="0.9287" stop-color="#6A00C6"/>
<stop offset="1" stop-color="#5200AB"/>
</radialGradient>
<radialGradient id="paint1_radial_2204_77353" cx="0" cy="0" r="1" gradientUnits="userSpaceOnUse" gradientTransform="translate(12.5967 19.8402) scale(51.3973 51.3965)">
<stop offset="0.00558659" stop-color="#FF9AFF"/>
<stop offset="0.0930098" stop-color="#FB94FF"/>
<stop offset="0.2093" stop-color="#F183FF"/>
<stop offset="0.3418" stop-color="#E068FF"/>
<stop offset="0.4864" stop-color="#C841FF"/>
<stop offset="0.639" stop-color="#A910FF"/>
<stop offset="0.6844" stop-color="#9F00FF"/>
<stop offset="0.7432" stop-color="#9900F8"/>
<stop offset="0.8282" stop-color="#8700E5"/>
<stop offset="0.9287" stop-color="#6A00C6"/>
<stop offset="1" stop-color="#5200AB"/>
</radialGradient>
<radialGradient id="paint2_radial_2204_77353" cx="0" cy="0" r="1" gradientUnits="userSpaceOnUse" gradientTransform="translate(14.0543 16.8664) scale(50.5229 50.5221)">
<stop offset="0.00558659" stop-color="#FF9AFF"/>
<stop offset="0.0930098" stop-color="#FB94FF"/>
<stop offset="0.2093" stop-color="#F183FF"/>
<stop offset="0.3418" stop-color="#E068FF"/>
<stop offset="0.4864" stop-color="#C841FF"/>
<stop offset="0.639" stop-color="#A910FF"/>
<stop offset="0.6844" stop-color="#9F00FF"/>
<stop offset="0.7432" stop-color="#9900F8"/>
<stop offset="0.8282" stop-color="#8700E5"/>
<stop offset="0.9287" stop-color="#6A00C6"/>
<stop offset="1" stop-color="#5200AB"/>
</radialGradient>
<radialGradient id="paint3_radial_2204_77353" cx="0" cy="0" r="1" gradientUnits="userSpaceOnUse" gradientTransform="translate(20.698 11.523) scale(11.2971 11.297)">
<stop offset="0.630208" stop-color="white"/>
<stop offset="1" stop-color="#EF9AFF"/>
</radialGradient>
<radialGradient id="paint4_radial_2204_77353" cx="0" cy="0" r="1" gradientUnits="userSpaceOnUse" gradientTransform="translate(22.4955 15.607) scale(3.93009 3.93002)">
<stop stop-color="white"/>
<stop offset="1" stop-color="#F7ABFF"/>
</radialGradient>
<radialGradient id="paint5_radial_2204_77353" cx="0" cy="0" r="1" gradientUnits="userSpaceOnUse" gradientTransform="translate(20.0791 15.2431) scale(4.14134 4.14127)">
<stop stop-color="white"/>
<stop offset="1" stop-color="#F9D0FD"/>
</radialGradient>
<radialGradient id="paint6_radial_2204_77353" cx="0" cy="0" r="1" gradientUnits="userSpaceOnUse" gradientTransform="translate(17.1496 11.2544) scale(9.56631 9.56615)">
<stop stop-color="white"/>
<stop offset="1" stop-color="#F7C2FC"/>
</radialGradient>
<radialGradient id="paint7_radial_2204_77353" cx="0" cy="0" r="1" gradientUnits="userSpaceOnUse" gradientTransform="translate(13.0609 7.53644) scale(16.2193 16.219)">
<stop stop-color="white"/>
<stop offset="1" stop-color="#F5AEFE"/>
</radialGradient>
<radialGradient id="paint8_radial_2204_77353" cx="0" cy="0" r="1" gradientUnits="userSpaceOnUse" gradientTransform="translate(19.0718 10.1056) scale(22.5995 22.5992)">
<stop offset="0.744792" stop-color="white"/>
<stop offset="0.9998" stop-color="#E886FF"/>
<stop offset="0.9999" stop-color="#ED8CFF"/>
</radialGradient>
<radialGradient id="paint9_radial_2204_77353" cx="0" cy="0" r="1" gradientUnits="userSpaceOnUse" gradientTransform="translate(12.0254 10.2717) scale(38.1808 38.1802)">
<stop offset="0.84375" stop-color="#EEADFE"/>
<stop offset="1" stop-color="#B439EE"/>
</radialGradient>
<radialGradient id="paint10_radial_2204_77353" cx="0" cy="0" r="1" gradientUnits="userSpaceOnUse" gradientTransform="translate(23.4696 43.5235) scale(30.0921 30.0916)">
<stop offset="0.572917" stop-color="#EEB9FF"/>
<stop offset="1" stop-color="#7801BD"/>
</radialGradient>
<radialGradient id="paint11_radial_2204_77353" cx="0" cy="0" r="1" gradientUnits="userSpaceOnUse" gradientTransform="translate(11.6203 55.1332) scale(3.24774 3.24769)">
<stop stop-color="#6D00C2"/>
<stop offset="0.3995" stop-color="#6600BC"/>
<stop offset="0.976" stop-color="#5300AC"/>
<stop offset="1" stop-color="#5200AB"/>
</radialGradient>
<radialGradient id="paint12_radial_2204_77353" cx="0" cy="0" r="1" gradientUnits="userSpaceOnUse" gradientTransform="translate(64.1462 36.2496) scale(3.39226 3.39221)">
<stop stop-color="#1F0081"/>
<stop offset="0.73" stop-color="#260087"/>
<stop offset="1" stop-color="#2A008B"/>
</radialGradient>
</defs>
</svg>
