<svg width="109" height="123" viewBox="0 0 109 123" fill="none" xmlns="http://www.w3.org/2000/svg">
<path fill-rule="evenodd" clip-rule="evenodd" d="M8.43213 41.1756C8.43213 41.1756 9.06977 35.862 9.49486 32.9927C9.49486 32.9927 13.1081 27.8917 18.8469 23.7471L26.4986 24.1722C26.4986 24.1722 10.9827 36.6059 8.43213 41.1756Z" fill="url(#paint0_linear_2204_77401)"/>
<path fill-rule="evenodd" clip-rule="evenodd" d="M18.8472 23.7471C18.8472 23.7471 18.8472 27.9979 14.9151 31.3986C10.983 34.7993 9.28262 33.6303 9.28262 33.6303L8.32617 40.4317L26.3926 24.1722L18.8472 23.7471Z" fill="url(#paint1_linear_2204_77401)"/>
<path fill-rule="evenodd" clip-rule="evenodd" d="M101.314 68.2747C101.314 73.0569 100.676 77.8391 99.4011 82.1963C96.8505 91.1231 91.8556 98.9872 85.2667 105.151C80.5907 109.508 74.9582 113.015 68.7944 115.353C63.2682 117.478 57.2106 118.647 50.9405 118.647C50.0903 118.647 49.1339 118.647 48.2837 118.541C47.0084 118.435 45.6268 118.329 44.3516 118.222C34.6807 116.947 25.7538 112.909 18.6335 106.851C15.9767 104.62 13.5324 102.069 11.3007 99.306C9.70655 97.1805 8.21872 95.0551 6.94345 92.7171C6.62463 92.1858 6.30581 91.5482 5.987 91.0168C5.987 91.0168 5.987 91.0168 5.987 90.9105C5.66818 90.2729 5.34934 89.7415 5.13679 89.1039C4.28661 87.191 3.54269 85.1719 2.90505 83.1527C2.47996 81.6649 2.05489 80.1771 1.73607 78.6893C1.52352 77.6266 1.31098 76.5639 1.20471 75.3949C0.885886 73.0569 0.67334 70.7189 0.67334 68.2747C0.67334 66.8932 0.67332 65.5117 0.885867 64.1301C0.99214 63.2799 1.09843 62.4298 1.20471 61.5796C1.84234 56.5848 3.22388 51.9089 5.24307 47.5518C6.19953 45.4263 7.36855 43.3009 8.64382 41.388C10.7693 38.0936 13.2136 35.0117 16.0829 32.2487C25.1162 23.4281 37.5501 18.0083 51.1531 18.0083C51.6844 18.0083 52.2158 18.0083 52.7472 18.0083C53.2785 18.0083 53.9161 18.0083 54.4475 18.1146C57.3169 18.3271 60.1863 18.7522 62.9494 19.3898C64.5435 19.8149 66.1376 20.24 67.6254 20.7714C68.6881 21.0902 69.6446 21.5153 70.7073 21.9403C71.4512 22.2592 72.1951 22.578 72.9391 22.8968C73.0453 23.0031 73.1516 23.0031 73.3641 23.1093C78.2527 25.4473 82.7162 28.6354 86.542 32.4612C87.0734 32.9926 87.6047 33.5239 88.1361 34.1616C88.4549 34.5866 88.88 34.9055 89.1988 35.3305C89.8365 35.9682 90.3678 36.7121 90.8992 37.3497C92.9184 39.9002 94.6188 42.6633 96.1066 45.5326C97.807 48.9333 99.1885 52.5465 100.145 56.266C100.783 59.9855 101.314 64.0238 101.314 68.2747Z" fill="url(#paint2_radial_2204_77401)"/>
<path fill-rule="evenodd" clip-rule="evenodd" d="M73.0453 23.0028C72.8328 23.0028 72.7265 23.0028 72.5139 23.1091C71.9826 23.2153 71.4512 23.109 70.9198 23.0028C70.4948 22.8965 70.2822 22.684 69.7509 22.684C69.1132 22.5777 68.5818 22.3652 67.9442 22.2589C67.3066 22.1526 66.7752 21.9401 66.1376 21.7275C65.6062 21.515 65.3937 21.6213 64.9686 21.7275C64.5435 21.8338 64.2247 21.6213 63.7996 21.515C63.3745 21.3024 62.8431 21.3024 62.418 21.1962C61.1427 20.9836 59.8675 20.5585 58.5922 20.2397C57.8483 20.0272 57.1044 20.0272 56.2542 20.0272C55.6165 20.0272 55.0851 20.2397 54.4475 20.2397C54.0224 20.2397 53.7036 20.1335 53.2785 20.1335C52.8534 20.0272 52.4283 20.1335 52.0032 20.1335C51.3656 20.0272 51.0468 19.9209 50.4091 20.1335C49.8778 20.2397 49.559 20.2397 49.0276 20.346C48.4962 20.346 47.8586 20.5585 47.3272 20.6648C46.3708 20.8774 45.308 21.0899 44.3516 21.0899C43.7139 21.0899 42.8637 20.8773 42.3324 21.0899C42.0136 21.1962 41.801 21.6213 41.4822 21.8338C40.9508 22.3652 40.4195 22.7902 39.9944 23.3216C39.5693 23.853 39.1442 24.4906 39.1442 25.2345C39.1442 25.8721 39.463 26.616 39.7818 27.1474C40.1007 27.785 40.2069 28.3164 39.5693 28.7414C38.8254 29.2728 37.8689 29.6979 37.0187 30.0167C36.3811 30.2292 35.8497 30.3355 35.4246 29.9104C35.2121 29.8042 35.1058 29.4853 34.8933 29.2728C34.6807 29.1665 34.3619 29.2728 34.1494 29.3791C33.5117 29.5916 32.8741 29.8042 32.2364 29.9104C31.8113 30.0167 31.4925 30.2292 31.0674 30.2292C30.6423 30.3355 30.3235 30.0167 29.7922 30.123C29.1545 30.2292 28.4106 30.5481 27.773 30.5481C27.2416 30.5481 26.604 30.3355 26.1789 30.123C25.9663 30.0167 25.8601 29.8042 25.5412 29.9104C25.3287 29.9104 25.0099 30.2292 24.9036 30.4418C24.6911 30.6543 24.6911 30.9731 24.4785 31.1857C24.266 31.5045 24.1597 31.717 23.9471 32.0359C23.6283 32.5672 23.3095 33.0986 22.9907 33.6299C22.7781 33.9487 22.5656 34.4801 22.2468 34.7989C22.1405 35.0115 21.8217 35.1177 21.6091 35.224C21.0778 35.5428 20.5464 35.9679 20.015 36.2867C19.0586 37.0306 18.1021 37.8808 17.1457 38.6247C16.4018 39.156 15.339 39.4749 14.4888 39.8999C13.9575 40.1125 13.4261 40.325 12.8947 40.5376C12.6822 40.6438 12.3634 40.6438 12.2571 40.8564C12.0446 41.0689 11.9383 41.2815 11.832 41.6003C11.4069 42.1316 10.8755 42.7693 10.5567 43.4069C10.3442 43.832 10.2379 44.1508 10.0254 44.5759C9.81281 45.1072 9.49399 45.6386 9.38772 46.2762C8.96262 47.4452 8.96263 48.7205 8.43126 49.8895C8.21872 50.5271 7.79363 51.1647 7.47481 51.8023C6.94345 52.8651 6.83716 54.1403 6.73089 55.3093C6.62461 55.9469 6.73089 56.7971 6.83717 57.4347C6.94344 58.1786 6.94345 58.9225 6.94345 59.6664C6.94345 60.4103 6.41209 61.2605 5.987 61.7919C5.5619 62.3232 4.81799 62.5358 4.28662 63.0671C3.86153 63.4922 3.33015 63.9173 3.11761 64.5549C3.01134 64.7675 3.11761 65.0863 3.11761 65.4051C3.01134 66.0427 2.7988 66.5741 2.7988 67.2117C2.69253 67.9556 2.69252 68.6995 2.69252 69.5497C2.69252 69.9748 2.69252 70.2936 2.69252 70.7187C2.69252 71.1438 2.79878 71.4626 2.90505 71.7814C2.90505 71.9939 2.90505 72.3127 2.90505 72.5253C2.90505 72.8441 3.11761 73.1629 3.11761 73.3755C3.33015 74.1194 3.43642 74.757 3.54269 75.5009C3.64897 76.1385 3.96779 76.7761 4.07406 77.4138C4.39288 78.2639 4.49916 79.1141 4.71171 80.0706C4.81798 80.7082 4.81799 81.4521 4.92426 82.0897C5.03054 82.6211 5.13679 83.1524 5.13679 83.6838C5.13679 84.534 4.92426 85.2779 4.92426 86.128C4.92426 87.5096 5.45562 88.8911 5.77444 90.2726C5.88071 90.6977 5.98697 91.0165 6.09324 91.4416C2.58623 84.6402 0.67334 76.8824 0.67334 68.6995C0.67334 58.71 3.54271 49.4644 8.53754 41.7066C10.663 38.4121 13.1073 35.3303 15.9767 32.6735C25.0099 23.8529 37.4438 18.4331 51.0468 18.4331C52.1095 18.4331 53.2785 18.4331 54.3413 18.5394C60.9302 18.4331 67.3066 20.1334 73.0453 23.0028Z" fill="url(#paint3_linear_2204_77401)"/>
<path opacity="0.1" fill-rule="evenodd" clip-rule="evenodd" d="M54.1294 91.8668C54.1294 91.8668 58.8054 98.7745 65.0755 104.407C71.3456 110.039 72.1958 113.865 72.1958 113.865C72.1958 113.865 83.9921 108.977 92.3877 97.2867C100.783 85.7031 54.1294 91.8668 54.1294 91.8668Z" fill="black"/>
<path opacity="0.4" fill-rule="evenodd" clip-rule="evenodd" d="M62.6319 19.2839C59.8688 18.6462 57.1057 18.2212 54.13 18.0086C53.5987 18.0086 52.961 17.9023 52.4297 17.9023C53.5987 18.54 54.7677 19.709 54.9802 20.9842C55.4053 23.1096 56.1492 25.0225 56.4681 27.0417C56.8932 29.0609 56.7869 31.6114 55.8304 33.418C55.299 34.587 54.5551 35.5434 53.5987 36.4999C52.961 37.1375 52.3234 37.5626 51.8983 38.4127C51.4732 39.2629 50.9418 40.0068 50.4105 40.7507C49.6666 41.9197 48.8164 43.0887 47.8599 44.1514C47.5411 44.5765 47.2223 44.789 46.9035 45.2141C46.5847 45.7455 46.3721 46.2768 45.947 46.7019C44.9905 47.6584 43.609 48.296 42.44 48.7211C40.8459 49.3587 39.4643 49.9963 37.9765 50.8465C35.8511 52.0155 34.0444 53.397 31.6001 53.5033C30.7499 53.5033 29.8998 53.397 29.0496 53.5033C27.9868 53.6096 27.0304 54.0346 26.0739 54.2472C25.2238 54.4597 24.2673 54.566 23.4171 54.7785C21.9293 54.9911 20.7603 55.5224 19.3787 55.8413C17.5721 56.2663 15.6592 56.1601 13.7463 56.4789C12.0459 56.6914 10.6643 56.904 8.96397 56.4789C6.41341 55.8413 5.03185 54.6723 5.56322 51.9092C5.88204 50.1026 5.77579 48.7211 4.9256 47.4458C2.90642 51.8029 1.52485 56.5852 0.887207 61.4737C2.05621 62.005 3.43776 62.2175 4.60677 62.3238C8.32632 62.7489 12.3647 61.0486 15.7654 59.7733C17.4658 59.1357 19.2725 58.1792 21.1854 57.9667C23.2046 57.7541 24.9049 57.9667 26.9241 57.5416C33.7256 55.8413 40.4208 53.5033 46.5846 49.8901C49.1352 48.4023 50.1979 46.2768 52.0046 44.1514C53.4924 42.2385 55.299 40.7507 57.1057 39.1566C58.9123 37.5626 60.5064 36.0748 61.5692 33.9493C62.7382 31.7176 63.6946 29.1671 64.226 26.7229C64.7573 23.9598 64.0134 21.4093 62.6319 19.2839ZM62.3131 26.0852C62.2068 26.6166 62.1005 27.2542 61.9942 27.7856C61.5691 29.1671 60.719 30.5487 59.4437 31.1863C58.9123 31.5051 58.0621 31.2926 57.7433 30.7612C57.5308 30.4424 57.5308 30.0173 57.5308 29.6985C57.4245 28.9546 57.3182 28.3169 57.3182 27.573C57.3182 25.8727 57.3182 24.1724 57.1057 22.472C57.3182 23.4285 57.1057 20.9842 58.5935 20.3466C59.3374 20.0278 60.4001 20.3466 60.9315 20.8779C61.5691 21.6218 61.7817 22.7908 61.9942 23.641C62.2068 24.5974 62.4194 25.2351 62.3131 26.0852Z" fill="url(#paint4_linear_2204_77401)"/>
<path opacity="0.4" fill-rule="evenodd" clip-rule="evenodd" d="M54.979 106.533C54.8727 106.533 54.6602 106.639 54.5539 106.639L55.5104 106.745C55.5104 106.639 55.2978 106.533 54.979 106.533ZM54.979 106.533C54.8727 106.533 54.6602 106.639 54.5539 106.639L55.5104 106.745C55.5104 106.639 55.2978 106.533 54.979 106.533ZM99.8263 56.0537C99.8263 57.329 99.4012 58.7105 99.4012 59.9858C99.4012 61.7924 99.0824 63.1739 98.6573 64.8742C98.3384 66.0432 97.7008 66.8934 97.382 68.0624C96.9569 69.3376 96.3193 70.5066 95.6816 71.6756C94.4063 74.0136 93.0248 76.4578 92.4934 79.1146C91.9621 81.5589 91.8558 83.578 90.6868 85.8097C89.5178 87.9352 87.8174 89.7418 86.5421 91.8672C86.0108 92.8236 85.5857 92.8236 84.6292 93.4613C83.6728 94.2052 82.7163 95.2679 81.7598 96.0118C79.7407 97.6059 77.8277 98.7748 75.2772 99.7313C73.6831 100.369 72.1953 100.794 70.4949 101.007C69.4322 101.219 68.3694 101.007 67.3067 101.219C65.6063 101.538 64.0122 101.963 62.3119 102.494C59.655 103.345 56.8919 103.876 54.2351 104.726C52.3222 105.257 50.5155 105.682 48.6026 106.001C47.4336 106.214 46.4772 106.851 45.3082 106.639C44.1392 106.426 42.9701 106.001 41.8011 105.576C40.3133 105.151 39.038 105.045 37.4439 105.045C35.3185 105.045 32.7679 105.364 30.5362 104.939C28.0919 104.514 25.7539 103.77 23.3096 103.345C21.8218 103.026 20.7591 102.388 19.3775 101.857C18.1022 101.219 16.827 101.113 15.4454 100.688C14.0639 100.263 12.6823 99.625 11.3008 99.3062C13.4262 102.069 15.8705 104.62 18.6336 106.851C25.7539 112.909 34.5746 116.947 44.3517 118.223C45.627 118.329 46.9023 118.541 48.2838 118.541C51.1532 117.904 53.9163 117.054 56.7857 116.203C61.568 114.716 65.7126 111.846 70.4949 110.465C72.3015 109.933 73.8956 109.402 75.4897 108.552C76.765 107.914 78.0403 107.808 79.2093 107.277C83.6728 105.364 86.9672 101.113 88.9864 96.862C89.8366 94.9491 90.6868 92.8236 92.3872 91.3358C93.0248 90.6982 93.875 90.2731 94.4063 89.5292C95.044 88.7853 95.4691 87.9352 96.1067 87.085C97.1694 85.7035 98.1259 84.2157 99.0824 82.8341C99.1886 82.6216 99.2949 82.5153 99.4012 82.3028C100.676 77.8394 101.314 73.1634 101.314 68.3812C101.314 64.0241 100.783 59.9858 99.8263 56.0537ZM53.5975 106.851C53.81 106.745 54.0226 106.533 54.2351 106.426C54.4477 106.32 54.7665 106.426 54.979 106.533C55.4041 106.426 55.7229 106.426 56.0417 106.639C56.2543 106.745 56.5731 106.958 56.6794 107.17C56.7857 107.383 56.6794 107.489 56.4669 107.702C56.2543 107.914 56.148 107.914 55.8292 107.914C55.2978 108.02 54.7665 108.127 54.1288 108.02C53.81 108.02 53.2786 107.914 53.0661 107.702C53.0661 107.277 53.3849 107.064 53.5975 106.851ZM56.8919 113.44C56.5731 113.865 56.2543 114.29 55.8292 114.503C55.4041 114.822 54.979 114.928 54.6602 115.247C53.5975 115.778 52.5347 116.416 51.472 116.735C51.0469 116.841 50.5156 116.841 50.0905 116.841C49.5591 116.947 48.9215 116.947 48.3901 116.947C47.7525 116.947 47.0085 117.054 46.3709 117.16C45.7333 117.16 44.9893 117.266 44.3517 117.266C43.1827 117.372 42.2262 117.16 41.1635 116.735C40.207 116.416 39.2506 115.885 38.4004 115.353C37.7628 114.928 37.2314 114.397 36.8063 113.865C36.275 113.44 35.9561 112.909 35.6373 112.271C35.531 112.059 35.4248 111.846 35.531 111.527C35.531 111.421 35.6373 111.315 35.6373 111.315C35.8499 111.209 36.0624 110.996 36.1687 110.996C36.4875 110.784 36.9126 110.784 37.3377 110.677C38.2942 110.571 39.2506 110.677 40.207 110.784C40.7384 110.784 41.2698 110.89 41.8011 110.784C42.5451 110.677 43.289 110.465 43.9266 110.252C45.627 109.827 47.3274 109.402 49.0277 109.296C50.7281 109.083 52.641 108.871 54.3414 109.189C54.979 109.296 55.8292 109.508 56.3606 109.827C56.7857 110.146 57.1045 110.571 57.317 110.996C57.6358 111.846 57.4233 112.696 56.8919 113.44ZM70.2824 109.083C69.9635 109.402 69.5384 109.615 69.1133 109.933C68.582 110.358 68.0506 110.571 67.5193 110.89C67.0942 111.209 66.5628 111.421 66.1377 111.634C65.6063 111.846 65.1812 112.059 64.6499 112.378C64.1185 112.59 63.5871 112.803 63.0558 113.015C62.6307 113.121 62.2056 113.334 61.7805 113.228C61.4617 113.121 61.0366 113.015 60.824 112.803C60.3989 112.378 60.5052 111.953 60.6115 111.74C60.6115 111.421 60.5052 110.89 60.6115 110.465C60.7178 110.252 60.9303 109.933 61.0366 109.721C61.4617 108.871 62.0993 108.339 62.737 107.702C63.2683 107.17 63.906 106.745 64.6499 106.426C65.5 106.108 66.5628 106.001 67.413 105.895C68.3694 105.789 70.0698 105.682 70.6012 106.851C70.92 107.595 70.8137 108.339 70.2824 109.083ZM55.6166 106.639C55.5104 106.639 55.2978 106.533 55.0853 106.426C54.979 106.426 54.7665 106.533 54.6602 106.533L55.6166 106.639Z" fill="url(#paint5_linear_2204_77401)"/>
<path opacity="0.4" fill-rule="evenodd" clip-rule="evenodd" d="M95.7884 45.3202V45.5328C95.6821 46.9143 95.1508 47.8707 94.6194 49.146C94.1943 50.2087 93.7692 51.0589 93.2378 52.0153C92.3876 53.6094 91.9626 55.0972 91.3249 56.9038C90.2622 59.5606 89.8371 62.4299 88.243 64.8742C86.8615 67.1059 86.4364 69.7627 85.3736 72.1006C84.0984 74.7574 82.0792 76.564 79.9537 78.4769C78.9972 79.3271 78.147 80.3898 77.2969 81.3462C76.3404 82.3027 75.7028 83.578 74.5338 84.4281C72.1958 86.1285 69.5389 87.6163 67.2009 89.4229C65.8194 90.4856 64.8629 91.9734 63.2688 92.8236C61.781 93.78 60.0806 94.4176 58.5928 95.2678C57.2113 96.118 55.8297 96.9682 54.3419 97.6058C52.6415 98.2434 51.26 98.0309 49.4533 98.1371C47.5404 98.2434 45.5212 98.7748 43.7146 99.4124C42.2268 99.9438 40.9515 100.475 39.3574 99.9438C38.2946 99.6249 37.4444 98.881 36.3817 98.6685C33.8312 98.1371 31.0681 98.6685 28.5175 98.5622C26.4983 98.456 24.3729 98.0309 22.3537 97.6058C20.4408 97.287 18.8467 95.9054 17.04 95.3741C14.702 94.7365 12.0452 95.2678 9.91971 94.4176C8.96325 94.0988 8.11308 93.3549 7.36916 92.8236C7.15662 92.7173 7.05035 92.611 6.8378 92.5048C6.51898 91.9734 6.20017 91.3358 5.88135 90.8044C6.41271 91.017 6.94408 91.2295 7.47544 91.5483C10.3448 92.9298 13.9581 92.7173 17.04 93.2487C20.547 93.8863 24.054 94.7365 27.5611 95.1615C29.0489 95.3741 30.4304 95.2678 31.9183 95.1615C33.9375 94.949 35.9566 94.949 37.9758 94.6302C41.3765 93.9926 44.7773 92.3985 48.2843 92.8236C48.922 92.9298 49.6659 93.2487 50.3035 93.2487C51.26 93.2487 52.0039 92.3985 52.7478 91.8671C54.1293 91.017 55.6172 91.1232 56.8924 89.9542C58.0614 88.7853 59.443 88.0414 60.9308 87.2975C64.7566 85.3846 67.8386 82.1964 70.9205 79.1145C73.471 76.564 75.9153 73.9072 77.6157 70.8254C79.3161 67.7435 78.9973 64.024 80.2725 60.8358C81.229 58.4979 81.9729 56.3724 83.4607 54.3533C84.2046 53.3968 85.0548 52.5467 85.7987 51.5902C86.6489 50.6338 87.074 49.5711 87.7116 48.4021C88.3493 47.1268 89.3057 46.0641 89.8371 44.6826C90.3685 43.4073 90.2622 42.3446 90.2622 40.9631C90.2622 39.5816 90.2622 38.0938 90.2622 36.606C92.4939 39.6878 94.3006 42.4509 95.7884 45.3202Z" fill="url(#paint6_linear_2204_77401)"/>
<path opacity="0.4" fill-rule="evenodd" clip-rule="evenodd" d="M87.8173 33.9493C87.2859 33.4179 86.7546 32.7803 86.2232 32.2489C82.3974 28.4232 77.9339 25.3413 73.0453 22.8971C72.939 22.7908 72.8328 22.7908 72.6202 22.6845C71.8763 22.3657 71.1324 22.0469 70.3885 21.7281C69.3257 21.303 68.3693 20.8779 67.3066 20.5591C67.6254 20.7716 68.0505 20.9842 68.1568 20.9842C68.7944 21.303 69.3258 21.5155 69.7509 22.0469C70.176 22.5782 70.3885 23.0033 70.3885 23.7472C70.3885 24.3849 70.4948 25.1288 70.601 25.7664C70.7073 26.404 71.0261 26.9354 71.1324 27.573C71.2387 27.8918 71.2387 28.2106 71.345 28.6357C71.5575 29.4859 71.8763 30.3361 72.0889 31.1862C72.4077 32.7803 71.5575 34.0556 71.0261 35.4371C70.1759 37.6688 69.6446 39.9005 68.9007 42.2385C68.3693 44.0451 67.4129 45.8517 66.0313 47.2332C64.6498 48.5085 62.6305 48.8273 61.4615 50.2088C60.3988 51.4841 59.1235 52.6531 57.6357 53.2907C55.9353 54.1409 54.0224 54.7785 52.2158 55.3099C50.9405 55.7349 49.559 55.7349 48.1774 56.0537C46.477 56.4788 44.9892 57.329 43.5014 57.9666C41.801 58.7105 40.3132 59.5607 38.6128 60.3046C36.9125 61.0485 35.4246 62.005 33.7243 62.6426C32.8741 62.9614 32.0239 63.1739 31.28 63.3865C29.5796 64.0241 27.9855 65.0868 26.1789 65.2994C25.5412 65.4056 24.9036 65.5119 24.266 65.5119C23.7346 65.5119 23.3095 65.6182 22.8844 65.7245C21.2903 66.3621 20.3339 68.0624 18.5272 68.1687C16.8268 68.1687 15.2327 68.0624 13.6386 68.275C12.7885 68.3812 12.0446 68.275 11.3007 68.3812C11.0881 68.3812 10.7693 68.4875 10.5567 68.3812C10.3442 68.275 10.0254 68.0624 9.70655 67.8499C9.06892 67.5311 8.53754 67.106 8.00618 66.6809C6.94345 65.8307 5.5619 66.3621 4.3929 66.0433C4.07408 65.937 3.54271 66.0433 3.22389 65.8307C2.47998 65.4056 1.52351 64.4492 0.885867 63.9178C0.779593 65.2994 0.67334 66.6809 0.67334 68.0624C0.67334 70.5067 0.885886 72.8446 1.20471 75.1826C1.31098 76.2453 1.52352 77.3081 1.73607 78.477C2.05489 79.9648 2.47996 81.5589 2.90505 82.9404C3.54269 84.9596 4.28661 86.9788 5.13679 88.8916C6.51834 89.1042 7.89989 89.3167 9.28144 89.1042C11.3006 88.7854 13.2135 88.4666 15.2327 88.5728C17.1457 88.6791 18.846 89.3167 20.6527 89.6355C22.6719 89.9544 24.7973 90.2732 26.9228 90.3794C28.8357 90.4857 30.7486 90.6982 32.5553 90.9108C33.9368 91.1233 35.4246 91.3359 36.8062 91.4421C40.5258 91.6547 44.139 90.6982 47.7523 90.3794C49.559 90.1669 51.3656 89.7418 53.1723 89.3167C54.235 89.1042 55.2977 88.7854 56.2542 88.1477C57.5294 87.2976 58.3796 86.1286 59.4424 85.1721C60.7176 84.1094 61.9929 83.0467 63.2682 82.0903C64.3309 81.2401 65.3937 80.2837 66.5627 79.5398C67.4129 79.0084 68.3693 78.3708 69.2195 77.7331C70.8136 76.4579 72.1951 74.9701 73.5767 73.376C75.4896 71.1443 76.2335 68.0624 76.9774 65.2994C77.7213 62.7489 78.1464 60.3046 79.528 57.9666C80.1656 56.9039 80.697 55.6287 81.0158 54.3534C81.2283 53.6095 81.3346 52.6531 81.6534 51.9092C82.1848 50.7402 83.3538 49.7837 83.9915 48.721C84.5228 47.8709 85.1605 47.0207 85.4793 45.958C86.2232 44.0451 86.7545 42.1322 87.0734 40.0068C87.2859 38.519 87.8173 37.0312 88.2424 35.5434C88.3487 35.3308 88.3486 35.012 88.4549 34.7995C88.4549 34.6932 88.1361 34.2681 87.8173 33.9493ZM22.2468 68.3812C22.353 68.1687 24.266 67.4248 24.4785 67.3185C24.4785 67.3185 24.4785 67.3185 24.3722 67.3185L23.0969 67.8499C24.4785 67.4248 26.9228 68.8063 25.7538 70.2941C25.4349 70.7192 24.4785 70.9318 23.9471 71.038C23.4158 71.1443 23.097 70.9318 22.7781 70.5067C22.4593 70.0816 22.2468 69.444 22.2468 68.9126C22.2468 68.8063 22.2468 68.4875 22.2468 68.3812ZM7.26225 81.8777C5.77443 81.4526 4.81797 80.9213 3.96778 79.646C3.33014 78.7958 2.90507 78.0519 2.69252 77.0955C2.58625 76.2453 2.26742 75.6077 2.47996 74.7575C2.58624 74.1199 2.90507 73.376 3.22389 72.8446C3.54271 72.207 4.07406 71.4631 4.07406 71.2506C5.56188 71.1443 6.94343 71.038 8.32498 71.038C9.91908 71.038 11.6195 71.2506 13.2136 71.2506C13.9575 71.2506 14.7014 71.2506 15.4453 71.1443C16.1892 71.038 16.8268 70.8255 17.5708 70.7192C18.846 70.5067 20.015 70.4004 21.184 70.9318C22.0342 71.3568 22.4593 72.4196 22.8844 73.2697C23.097 73.8011 23.3095 74.1199 23.3095 74.7575C23.3095 75.5014 23.3095 76.1391 23.2032 76.7767C23.2032 76.9892 23.0969 77.308 23.0969 77.5206C22.0342 79.7523 19.2711 80.4962 17.1457 81.3464C13.9575 82.6216 10.4504 82.7279 7.26225 81.8777ZM29.8984 86.7662C29.2608 88.4666 26.4977 88.9979 24.9036 89.1042C24.1597 89.1042 23.2032 88.9979 22.4593 88.5728C22.0342 88.3603 21.7154 87.9352 21.3966 87.5101C21.1841 87.1913 20.8652 86.6599 20.015 86.8725C20.2276 85.916 20.4401 85.0659 20.8652 84.2157C21.1841 83.7906 21.6091 83.4718 22.0342 83.0467C22.7781 82.4091 23.6283 81.7715 24.4785 81.3464C25.8601 80.6025 27.3479 81.1338 28.6232 81.7715C29.5796 82.1965 30.2173 82.8342 30.4298 83.7906C30.7486 84.9596 30.3235 85.7035 29.8984 86.7662ZM48.6025 86.4474C48.0711 87.6164 47.3272 87.9352 46.2645 88.5728C44.9892 89.2104 43.2888 89.7418 41.9073 89.7418C41.1634 89.7418 40.4195 89.423 39.7818 89.1042C39.3567 88.8916 38.8254 88.7854 38.5065 88.4665C37.5501 87.5101 37.3375 86.2349 37.9752 86.4474C37.5501 85.5972 37.3376 84.7471 37.2313 83.8969C37.4438 83.7906 37.5501 83.5781 37.5501 83.3655C38.0815 82.4091 39.0379 81.5589 40.1006 81.0275C41.801 80.0711 44.0327 79.8586 45.9457 80.7087C46.7958 81.0275 47.3272 81.4526 47.8586 82.0903C48.1774 82.4091 48.4962 82.6216 48.815 83.0467C49.1339 83.8969 48.9213 85.491 48.6025 86.4474ZM54.235 86.2348C53.9162 86.4474 53.3848 86.8725 53.066 86.8725C52.7472 86.7662 52.2158 86.2348 52.2158 85.8098L52.0032 85.5972C52.4283 84.8533 52.8534 84.2157 53.2785 83.4718C53.9162 83.7906 54.5538 83.6843 54.9789 84.4282C55.5102 85.1721 54.7663 85.8098 54.235 86.2348ZM68.5819 52.7593C68.0505 53.5032 67.3066 54.2471 66.4564 54.566C65.3937 54.991 63.9058 55.4161 63.7996 53.7158C63.7996 52.7593 63.9058 52.0154 64.3309 51.1653C64.9686 49.89 65.4999 49.5712 66.7752 48.9336C67.2003 48.9336 67.7317 49.1461 68.0505 49.2524C68.6881 49.4649 69.3258 50.1026 69.432 50.8465C69.5383 51.5904 69.0069 52.228 68.5819 52.7593ZM81.866 45.6392C81.3346 47.3395 80.5907 48.9336 79.8468 50.4214C78.9966 52.3343 78.8903 54.3534 78.359 56.3726C78.1464 57.5416 77.5088 58.8168 76.4461 59.2419C75.9147 59.4544 75.4896 59.3482 74.9582 59.3482C74.4269 59.3482 73.5767 59.5607 73.5767 59.9858C73.2579 59.1356 72.8328 58.0729 72.6202 57.2227C72.4077 56.2663 72.3014 55.2036 72.1951 54.1409C71.9826 53.0782 71.9826 52.0154 71.8763 50.9527C71.7701 49.9963 71.5575 48.9336 71.5575 47.9771C71.5575 44.6827 73.4704 40.5381 76.5523 39.0503C77.5088 38.6252 78.4652 38.4127 79.528 38.519C80.697 38.7315 81.4409 39.0503 81.9723 40.2193C82.6099 41.8134 82.2911 43.9388 81.866 45.6392Z" fill="url(#paint7_linear_2204_77401)"/>
<path opacity="0.4" fill-rule="evenodd" clip-rule="evenodd" d="M67.3809 50.0078C67.2746 50.1141 67.0621 50.1141 66.9558 50.2204C66.637 50.2204 66.4245 50.1141 66.2119 50.2204L67.3809 50.0078Z" fill="url(#paint8_linear_2204_77401)"/>
<path fill-rule="evenodd" clip-rule="evenodd" d="M52.8224 74.45C50.6969 73.3873 53.1412 63.9291 55.2667 61.8037C57.3921 59.6783 63.0246 64.5668 63.6622 68.4988C64.4061 72.5371 57.8172 76.788 52.8224 74.45Z" fill="url(#paint9_linear_2204_77401)"/>
<path opacity="0.4" fill-rule="evenodd" clip-rule="evenodd" d="M3.96839 71.2506C3.86211 71.2506 3.75586 71.2506 3.75586 71.2506C3.96841 71.1443 3.96839 71.1443 3.96839 71.2506Z" fill="url(#paint10_linear_2204_77401)"/>
<path fill-rule="evenodd" clip-rule="evenodd" d="M60.6118 18.8585L69.4325 15.3516C69.4325 15.3516 83.4605 20.7714 92.3875 32.7801L92.9188 40.4316C92.9188 40.4316 76.1277 33.9491 60.6118 18.8585Z" fill="url(#paint11_linear_2204_77401)"/>
<path fill-rule="evenodd" clip-rule="evenodd" d="M92.7063 96.5432C92.7063 96.5432 85.2672 104.62 79.741 106.32L75.1712 107.702C75.1712 107.702 54.2355 100.156 53.0664 87.085C52.11 76.0328 70.9203 59.1356 76.0214 57.1164C81.1226 55.0973 87.0738 56.2663 87.0738 56.2663L92.7063 96.5432Z" fill="url(#paint12_linear_2204_77401)"/>
<path fill-rule="evenodd" clip-rule="evenodd" d="M87.0745 56.2661C82.6111 54.8846 63.5882 63.7051 58.3808 83.3653C57.3181 87.4036 66.9889 102.6 78.5727 106.32C82.3985 107.595 100.04 92.1858 100.784 81.7712C101.528 71.3566 93.6635 58.3915 87.0745 56.2661Z" fill="url(#paint13_linear_2204_77401)"/>
<path fill-rule="evenodd" clip-rule="evenodd" d="M59.6554 85.7036C62.4185 63.3866 82.7167 56.0539 87.1801 57.4354C90.3683 58.4981 95.0443 63.174 97.8074 67.7437C95.0443 62.0051 90.8997 57.3291 87.1801 56.1601C82.7167 54.7786 63.6938 63.5991 58.4864 83.2594C58.1676 84.6409 59.0177 87.4039 60.9307 90.5921C59.7616 88.5729 59.4428 86.7663 59.6554 85.7036Z" fill="url(#paint14_linear_2204_77401)"/>
<path opacity="0.3" fill-rule="evenodd" clip-rule="evenodd" d="M22.2477 109.721C22.2477 109.721 26.8174 111.421 30.1119 110.465C30.1119 110.465 31.3872 99.7314 27.3488 92.8237C23.3104 85.9161 16.4027 96.3307 16.4027 96.3307L14.8086 102.92C14.8086 102.92 18.6344 107.489 22.2477 109.721Z" fill="black"/>
<path fill-rule="evenodd" clip-rule="evenodd" d="M26.1798 108.02L29.0491 107.276C29.0491 107.276 30.4307 101.325 27.9864 94.5238C25.2233 86.8723 15.0211 81.1336 13.5333 81.0273C12.0454 80.9211 10.5576 84.3218 10.5576 84.3218L26.1798 108.02Z" fill="url(#paint15_linear_2204_77401)"/>
<path fill-rule="evenodd" clip-rule="evenodd" d="M72.1954 113.866L67.3069 120.136C67.3069 120.136 58.9113 124.174 50.4094 122.261L44.2456 118.117L72.1954 113.866Z" fill="url(#paint16_linear_2204_77401)"/>
<path fill-rule="evenodd" clip-rule="evenodd" d="M8.43226 88.9976C8.96363 86.6596 10.9828 82.8339 12.7895 82.4088C14.5961 81.9837 23.3105 90.2729 25.3297 95.5865C27.3489 100.9 26.2862 106.745 26.1799 107.914C26.0736 109.083 16.2965 105.789 11.3016 101.75C6.41309 97.7119 8.43226 88.9976 8.43226 88.9976Z" fill="url(#paint17_linear_2204_77401)"/>
<path fill-rule="evenodd" clip-rule="evenodd" d="M25.3292 95.5866C23.3101 90.273 14.702 82.0901 12.789 82.4089C12.0451 82.5152 11.3012 83.2591 10.6636 84.1093C11.0887 83.6842 11.5137 83.4717 11.9388 83.3654C13.7455 82.9403 22.5662 89.5291 24.5854 94.8427C27.0296 101.325 25.6481 106.001 25.4355 108.127C25.8606 108.127 26.1795 108.127 26.1795 107.914C26.2857 106.745 27.3484 100.9 25.3292 95.5866Z" fill="url(#paint18_linear_2204_77401)"/>
<path fill-rule="evenodd" clip-rule="evenodd" d="M54.7676 72.4196C53.0672 71.5694 54.9801 63.7053 56.6805 61.8987C58.3809 60.1984 62.8443 64.2367 63.482 67.5311C64.1196 70.8255 58.806 74.3325 54.7676 72.4196Z" fill="url(#paint19_linear_2204_77401)"/>
<path fill-rule="evenodd" clip-rule="evenodd" d="M69.4325 15.3516C69.4325 15.3516 69.8576 20.6651 75.9151 27.254C81.9727 33.8428 92.3875 32.7801 92.3875 32.7801L92.9188 40.4316C92.9188 40.4316 70.814 30.6547 60.6118 18.8585L69.4325 15.3516Z" fill="url(#paint20_linear_2204_77401)"/>
<path fill-rule="evenodd" clip-rule="evenodd" d="M86.7557 62.8551C86.5432 63.0676 85.9055 63.4927 86.4369 63.8115C86.5431 63.9178 86.6494 63.8115 86.7557 63.9178C86.862 63.9178 86.862 64.0241 86.9682 64.0241C87.287 63.8115 87.1808 62.7488 86.7557 62.8551Z" fill="#0EDBFF"/>
<path fill-rule="evenodd" clip-rule="evenodd" d="M107.585 53.9281C107.373 54.1407 106.735 54.5657 107.266 54.8846C107.373 54.9908 107.479 54.8846 107.585 54.9908C107.692 54.9908 107.692 55.0971 107.798 55.0971C108.223 54.7783 108.01 53.8218 107.585 53.9281Z" fill="#0EDBFF"/>
<path fill-rule="evenodd" clip-rule="evenodd" d="M98.4456 90.9108C98.2331 91.1233 97.5954 91.5484 98.1268 91.8672C98.2331 91.9735 98.3394 91.8672 98.4456 91.9735C98.5519 91.9735 98.5519 92.0798 98.6582 92.0798C99.0833 91.8672 98.8707 90.8045 98.4456 90.9108Z" fill="#0EDBFF"/>
<path fill-rule="evenodd" clip-rule="evenodd" d="M88.5625 66.5745C88.775 66.4683 88.8813 66.4683 89.0939 66.4683C89.0939 66.6808 89.3064 67.1059 88.9876 67.3184C88.775 67.4247 88.7751 66.9996 88.6688 66.8933L88.5625 66.5745Z" fill="#0EDBFF"/>
<path fill-rule="evenodd" clip-rule="evenodd" d="M55.5114 68.8064C55.8302 68.9127 56.149 69.1253 56.4678 69.2315C56.5741 69.1253 56.6804 69.1253 56.8929 69.1253C57.1055 69.019 57.2117 68.8064 57.2117 68.5939C57.318 68.2751 57.2118 68.0625 56.9992 67.85C56.8929 67.7437 56.7866 67.5312 56.6804 67.4249C56.5741 67.3186 56.2553 67.3186 56.0427 67.4249C55.8302 67.5312 55.7239 67.7437 55.6176 67.9563C55.5114 68.1688 55.2988 68.3814 55.2988 68.5939C55.2988 68.8064 55.5114 69.019 55.6176 69.2315L55.5114 68.8064Z" fill="#0EDBFF"/>
<path fill-rule="evenodd" clip-rule="evenodd" d="M8.53873 93.886C8.85755 93.9923 9.17636 94.2048 9.49518 94.3111C9.60146 94.2048 9.70772 94.2049 9.92027 94.2049C10.1328 94.0986 10.2391 93.886 10.2391 93.6735C10.3454 93.3547 10.2391 93.1421 10.0265 92.9296C9.92027 92.8233 9.81401 92.6108 9.70774 92.5045C9.60147 92.3982 9.28264 92.3982 9.0701 92.5045C8.85755 92.6108 8.75128 92.8233 8.64501 93.0359C8.53874 93.2484 8.32617 93.4609 8.32617 93.6735C8.32617 93.886 8.53874 94.0986 8.64501 94.3111L8.53873 93.886Z" fill="#0EDBFF"/>
<path fill-rule="evenodd" clip-rule="evenodd" d="M100.04 106.958C100.359 107.064 100.677 107.277 100.996 107.383C101.102 107.277 101.209 107.277 101.421 107.277C101.634 107.17 101.74 106.958 101.74 106.745C101.846 106.426 101.74 106.214 101.528 106.001C101.421 105.895 101.315 105.683 101.209 105.576C101.102 105.47 100.784 105.47 100.571 105.576C100.359 105.683 100.252 105.895 100.146 106.108C100.04 106.32 99.8271 106.533 99.8271 106.745C99.8271 106.958 100.04 107.17 100.146 107.383L100.04 106.958Z" fill="#0EDBFF"/>
<path fill-rule="evenodd" clip-rule="evenodd" d="M93.4508 97.8187C93.7697 97.9249 94.0885 98.1375 94.4073 98.2437C94.5136 98.1375 94.6198 98.1375 94.8324 98.1375C95.0449 98.0312 95.1512 97.8187 95.1512 97.6061C95.2575 97.2873 95.1512 97.0748 94.9387 96.8622C94.8324 96.7559 94.7261 96.5434 94.6199 96.4371C94.5136 96.3309 94.1948 96.3309 93.9822 96.4371C93.7697 96.5434 93.6634 96.7559 93.5571 96.9685C93.4508 97.181 93.2383 97.3936 93.2383 97.6061C93.2383 97.8187 93.4508 98.0312 93.5571 98.2437L93.4508 97.8187Z" fill="#0EDBFF"/>
<path fill-rule="evenodd" clip-rule="evenodd" d="M2.16227 34.4805C3.01245 34.7993 3.86263 35.1181 4.71281 35.5432C5.03163 35.3306 5.35045 35.3306 5.66927 35.1181C6.09436 34.7993 6.41317 34.2679 6.62572 33.8428C6.83826 33.0989 6.51945 32.5676 6.20063 32.0362C5.98809 31.7174 5.77556 31.186 5.45674 30.8672C5.03165 30.5484 4.28773 30.6547 3.86264 30.8672C3.33128 31.0798 3.01245 31.6111 2.69363 32.0362C2.37481 32.4613 2.05598 33.2052 1.94971 33.7366C1.94971 34.2679 2.37482 34.9055 2.79991 35.2244L2.16227 34.4805Z" fill="#0EDBFF"/>
<path fill-rule="evenodd" clip-rule="evenodd" d="M57.6368 3.8745C58.487 4.19331 59.3372 4.51213 60.1874 4.93721C60.5062 4.72467 60.8251 4.72467 61.1439 4.51213C61.569 4.19332 61.8878 3.66196 62.1003 3.23687C62.3129 2.49297 61.9941 1.96161 61.6752 1.43026C61.4627 1.11144 61.2501 0.580087 60.9313 0.261272C60.5062 -0.0575424 59.7623 0.0487291 59.3372 0.261272C58.8059 0.473815 58.487 1.00517 58.1682 1.43026C57.8494 1.85534 57.5306 2.59925 57.4243 3.1306C57.4243 3.66196 57.8494 4.29959 58.2745 4.6184L57.6368 3.8745Z" fill="#0EDBFF"/>
<path fill-rule="evenodd" clip-rule="evenodd" d="M64.9697 77.0958C64.8634 77.2021 64.7572 77.3084 64.6509 77.5209C64.7572 77.7335 64.8634 77.8397 65.076 77.946C65.1822 77.946 65.2885 77.946 65.3948 77.946C65.5011 77.8397 65.3948 77.7335 65.5011 77.6272C65.6074 77.4147 65.6074 77.3084 65.5011 77.0958C65.3948 76.9896 65.3948 76.8833 65.2885 76.8833C65.1823 76.8833 64.9697 76.8833 64.9697 76.9896V77.0958Z" fill="#0EDBFF"/>
<path fill-rule="evenodd" clip-rule="evenodd" d="M65.7135 82.4092C65.7135 82.5155 65.3947 83.1531 65.7135 82.9405C65.926 82.8343 65.926 82.5155 65.7135 82.4092C65.8197 82.4092 65.8197 82.4092 65.7135 82.4092Z" fill="#0EDBFF"/>
<path fill-rule="evenodd" clip-rule="evenodd" d="M82.3984 91.9738C82.1859 92.2926 82.1859 92.3989 82.0796 92.7177C82.1859 92.824 82.3984 92.824 82.5047 92.824C82.7173 92.824 82.7172 92.7177 82.7172 92.6114C82.7172 92.5052 82.8235 92.2926 82.7172 92.1864C82.611 91.9738 82.5047 91.8675 82.3984 91.9738Z" fill="#0EDBFF"/>
<path fill-rule="evenodd" clip-rule="evenodd" d="M68.3706 77.733C68.4769 77.8393 68.5832 77.9456 68.5832 78.1581C68.3706 78.1581 68.3706 78.0519 68.3706 77.8393C68.3706 77.6268 68.4769 77.7331 68.5832 77.5205C68.5832 77.5205 68.5832 77.5205 68.6894 77.5205L68.3706 77.733Z" fill="#0EDBFF"/>
<path fill-rule="evenodd" clip-rule="evenodd" d="M84.3115 63.4928C84.2052 63.5991 84.0989 63.7054 83.9927 63.8117C84.0989 63.9179 83.9927 64.1305 84.2052 64.1305C84.3115 64.1305 84.4178 64.0242 84.524 63.8117C84.6303 63.7054 84.6303 63.5991 84.6303 63.3866C84.6303 63.2803 84.6303 62.9615 84.524 63.174L84.3115 63.4928Z" fill="#0EDBFF"/>
<path fill-rule="evenodd" clip-rule="evenodd" d="M82.0796 26.4041C82.2921 26.4041 82.3984 26.2979 82.611 26.2979C82.611 26.2979 82.7172 26.2979 82.8235 26.2979C83.0361 26.2979 83.0361 26.2978 83.0361 26.4041C83.1423 26.5104 83.1423 26.7229 83.1423 26.8292C83.036 27.4668 82.1859 26.5104 82.5047 26.2979L82.0796 26.4041Z" fill="#0EDBFF"/>
<path fill-rule="evenodd" clip-rule="evenodd" d="M14.49 27.5727C14.1712 27.679 13.7461 27.679 13.7461 27.9978C13.7461 28.3166 14.1712 28.5292 14.3837 28.6354C14.8088 28.7417 15.4465 28.848 15.659 28.3166C15.7653 27.9978 15.659 27.4664 15.5527 27.2539C15.2339 26.7225 14.49 26.9351 13.9587 27.1476L14.49 27.5727Z" fill="#0EDBFF"/>
<path fill-rule="evenodd" clip-rule="evenodd" d="M86.2244 92.6111C86.1181 91.6546 85.9055 90.6982 86.7557 90.1668C87.1808 89.848 88.031 89.848 88.5624 90.1668C88.8812 90.3794 89.2 90.8045 89.3063 91.1233C89.6251 91.6546 89.5188 91.6546 89.4126 92.0797C89.0937 93.1424 88.7749 93.7801 87.8185 93.7801C86.4369 93.7801 86.2244 92.7174 86.2244 91.4421V92.6111Z" fill="#0EDBFF"/>
<path fill-rule="evenodd" clip-rule="evenodd" d="M86.8618 65.5119C87.2869 65.4056 87.6058 65.1931 87.8183 64.8743C87.4995 64.6617 86.9681 64.3429 86.8618 64.8743V65.5119Z" fill="#0EDBFF"/>
<path fill-rule="evenodd" clip-rule="evenodd" d="M10.6641 90.0607C11.0892 89.9545 11.408 89.7419 11.6205 89.4231C11.3017 89.2106 10.7703 88.8918 10.6641 89.4231V90.0607Z" fill="#0EDBFF"/>
<path fill-rule="evenodd" clip-rule="evenodd" d="M10.6641 98.1374C11.0892 98.0311 11.408 97.8186 11.6205 97.4998C11.3017 97.2872 10.7703 96.9684 10.6641 97.4998V98.1374Z" fill="#0EDBFF"/>
<path fill-rule="evenodd" clip-rule="evenodd" d="M67.6265 69.2316C68.0516 68.8066 68.583 67.9564 69.2206 68.3815C69.6457 68.7003 69.7519 69.3379 69.3269 69.6567C69.008 69.8693 68.6892 69.9755 68.2641 70.0818C67.9453 70.1881 67.5202 69.9755 67.6265 69.5505V69.2316Z" fill="#0EDBFF"/>
<path fill-rule="evenodd" clip-rule="evenodd" d="M80.273 90.0607C80.6981 89.6357 81.2294 88.7855 81.8671 89.2106C82.2922 89.5294 82.3985 90.167 81.9734 90.4858C81.6545 90.6984 81.3357 90.8047 80.9106 90.9109C80.5918 91.0172 80.1667 90.8047 80.273 90.3796V90.0607Z" fill="#0EDBFF"/>
<path fill-rule="evenodd" clip-rule="evenodd" d="M78.3603 20.9844C78.8917 21.0906 79.9544 21.0906 79.8481 21.9408C79.8481 22.3659 79.2105 22.8973 78.7854 22.6847C78.3603 22.4722 78.1477 22.2596 77.8289 21.9408C77.6164 21.7283 77.5101 21.1969 78.0415 21.0906L78.3603 20.9844Z" fill="#0EDBFF"/>
<path fill-rule="evenodd" clip-rule="evenodd" d="M76.2344 95.4807C76.6595 95.0556 77.1909 94.2054 77.8285 94.6305C78.2536 94.9493 78.3599 95.5869 77.9348 95.9058C77.616 96.1183 77.2972 96.2246 76.8721 96.3308C76.5532 96.4371 76.1281 96.2246 76.2344 95.7995V95.4807Z" fill="#0EDBFF"/>
<path fill-rule="evenodd" clip-rule="evenodd" d="M59.0183 68.4874C58.5932 68.8062 57.743 69.1251 57.6367 69.869C57.6367 70.294 57.743 70.5066 58.1681 70.7191C58.4869 70.8254 58.912 70.8254 59.2308 70.7191C59.6559 70.5066 60.1873 70.0815 60.3998 69.6564C60.5061 69.3376 60.5061 69.1251 60.3998 68.8062C60.2936 68.5937 60.1873 68.3812 59.9747 68.3812C59.3371 68.1686 59.0183 68.8062 58.5932 69.0188L59.0183 68.4874Z" fill="#0EDBFF"/>
<path fill-rule="evenodd" clip-rule="evenodd" d="M60.6122 66.7868C60.8248 66.8931 61.1436 66.9994 61.2499 67.2119C61.0373 67.3182 60.7185 67.5307 60.3997 67.4245C60.0809 67.3182 59.9746 66.9994 60.0809 66.6806C60.0809 66.468 60.3997 66.1492 60.6122 66.2555C60.7185 66.2555 60.7185 66.468 60.7185 66.468C60.8248 66.6806 60.8248 66.5743 60.7185 66.7868H60.6122Z" fill="#0EDBFF"/>
<path fill-rule="evenodd" clip-rule="evenodd" d="M73.7906 63.9181C72.5153 64.9808 71.3463 66.3623 70.7086 67.9564C70.3898 68.8066 70.9212 68.8066 71.6651 68.7003C73.0466 68.3815 74.5345 68.0627 75.916 67.6376C76.7662 67.4251 77.9352 67 78.4666 66.2561C78.8917 65.7247 79.1042 64.7683 78.9979 64.1306C78.8917 63.1742 78.1477 62.8554 77.2976 62.5366C75.2784 62.0052 72.5153 64.1306 71.7714 65.9373L73.7906 63.9181Z" fill="#0EDBFF"/>
<path fill-rule="evenodd" clip-rule="evenodd" d="M66.7761 71.144C67.2012 71.144 67.52 71.2503 67.9451 71.4629C67.8388 71.5691 67.8388 71.7817 67.8388 71.8879C67.7325 72.1005 67.52 72.313 67.4137 72.4193C67.0949 72.6318 66.5635 72.7381 66.2447 72.5256C65.182 72.1005 66.7761 70.8252 67.2012 71.3566L66.7761 71.144Z" fill="#0EDBFF"/>
<path fill-rule="evenodd" clip-rule="evenodd" d="M7.68844 111.421C7.58216 111.527 7.4759 111.634 7.36963 111.846C7.4759 112.059 7.58217 112.165 7.79471 112.271C7.90099 112.271 8.00728 112.271 8.11355 112.271C8.21983 112.165 8.11353 112.059 8.2198 111.952C8.32607 111.74 8.32607 111.634 8.2198 111.421C8.11353 111.315 8.11355 111.208 8.00727 111.208C7.901 111.208 7.68844 111.208 7.68844 111.315V111.421Z" fill="#0EDBFF"/>
<path fill-rule="evenodd" clip-rule="evenodd" d="M8.53867 116.734C8.53867 116.841 8.21985 117.478 8.53867 117.266C8.75122 117.159 8.64494 116.841 8.53867 116.734C8.53867 116.841 8.53867 116.734 8.53867 116.734Z" fill="#0EDBFF"/>
<path fill-rule="evenodd" clip-rule="evenodd" d="M11.0894 112.059C11.1956 112.165 11.3019 112.271 11.3019 112.484C11.0894 112.484 11.0894 112.378 11.0894 112.165C11.0894 111.952 11.1956 112.059 11.3019 111.846C11.3019 111.846 11.3019 111.846 11.4082 111.846L11.0894 112.059Z" fill="#0EDBFF"/>
<path fill-rule="evenodd" clip-rule="evenodd" d="M9.49484 105.47C9.91993 105.47 10.2388 105.576 10.6639 105.789C10.5576 105.895 10.5576 106.107 10.5576 106.214C10.4513 106.426 10.2388 106.639 10.1325 106.745C9.81367 106.958 9.28229 107.064 8.96347 106.851C7.90074 106.426 9.49483 105.151 9.91993 105.682L9.49484 105.47Z" fill="#0EDBFF"/>
<path fill-rule="evenodd" clip-rule="evenodd" d="M76.2343 21.9406C76.5531 22.1532 76.9782 22.3657 77.297 22.6845C77.6159 23.1096 77.9347 23.4284 78.1472 23.8535C78.2535 24.0661 78.5723 24.5974 78.1472 24.5974C77.7221 24.7037 76.872 24.0661 76.4469 23.7473C75.8092 23.3222 75.2779 23.0034 74.8528 22.3657C74.6402 22.0469 74.3214 21.5156 74.534 21.1967C74.7465 20.8779 74.959 20.8779 75.2779 20.8779C75.5967 20.8779 75.8092 20.9842 76.1281 21.1967C76.2343 21.303 76.872 21.9406 76.6594 22.0469L76.2343 21.9406Z" fill="#0EDBFF"/>
<path fill-rule="evenodd" clip-rule="evenodd" d="M80.9104 62.1113C80.6978 62.2176 79.4225 62.9615 80.0602 63.2803C80.379 63.4929 81.1229 63.3866 81.4417 63.2803C81.7606 63.174 82.0794 62.9615 81.8668 62.6427C81.4417 61.8988 80.4853 62.3239 79.9539 62.6427L80.9104 62.1113Z" fill="#0EDBFF"/>
<path fill-rule="evenodd" clip-rule="evenodd" d="M90.475 18.4336C90.0499 18.7524 86.6491 20.559 88.2432 21.4092C89.0934 21.8343 90.7938 21.728 91.6439 21.3029C92.3879 20.9841 93.238 20.4528 92.7067 19.6026C91.7502 17.796 89.3059 18.8587 88.0307 19.6026L90.475 18.4336Z" fill="#0EDBFF"/>
<path fill-rule="evenodd" clip-rule="evenodd" d="M11.1953 94.4177C11.3016 95.1616 11.5141 96.0117 12.1518 96.5431C12.8957 97.0745 13.6396 96.8619 14.3835 96.4368C14.9149 96.118 15.34 95.7992 15.8713 95.4804C16.1901 95.2678 16.4027 95.2678 16.4027 94.8427C16.4027 94.4177 15.9776 93.78 15.765 93.4612C15.4462 93.0361 14.8086 92.6111 14.3835 92.3985C13.3208 91.9734 11.3016 92.3985 11.3016 93.78L11.1953 94.4177Z" fill="#0EDBFF"/>
<path fill-rule="evenodd" clip-rule="evenodd" d="M81.5483 96.0118C81.6546 96.5432 81.7609 97.1808 82.186 97.4996C82.7174 97.9247 83.2487 97.7122 83.7801 97.3934C84.0989 97.1808 84.524 96.9683 84.8428 96.7557C85.0554 96.6495 85.2679 96.6495 85.2679 96.3306C85.2679 96.0118 84.9491 95.5867 84.8428 95.3742C84.6303 95.0554 84.2052 94.7366 83.8864 94.6303C83.1424 94.3115 81.7609 94.6303 81.7609 95.5867L81.5483 96.0118Z" fill="#0EDBFF"/>
<path fill-rule="evenodd" clip-rule="evenodd" d="M69.5391 16.2017C69.5391 16.2017 71.8771 25.9786 78.3597 29.6981C86.5427 34.3741 92.2815 32.78 92.2815 32.78C92.2815 32.78 84.9487 32.5675 78.1472 27.8915C72.5147 23.9595 69.5391 16.2017 69.5391 16.2017Z" fill="url(#paint21_linear_2204_77401)"/>
<path opacity="0.2" fill-rule="evenodd" clip-rule="evenodd" d="M54.1294 91.867L58.4866 85.4907C58.4866 85.4907 64.1191 101.431 78.5722 106.426L75.384 108.445C75.4903 108.445 60.6121 104.195 54.1294 91.867Z" fill="black"/>
<path opacity="0.3" fill-rule="evenodd" clip-rule="evenodd" d="M62.4189 20.9839C62.4189 20.9839 83.3548 42.0256 98.4456 51.3775C98.4456 51.3775 96.9577 45.6389 92.9193 40.3253C92.9193 40.4316 80.2728 36.287 62.4189 20.9839Z" fill="black"/>
<defs>
<linearGradient id="paint0_linear_2204_77401" x1="17.4828" y1="41.2252" x2="17.4828" y2="23.789" gradientUnits="userSpaceOnUse">
<stop stop-color="#9A00B3"/>
<stop offset="1" stop-color="#7F72FF"/>
</linearGradient>
<linearGradient id="paint1_linear_2204_77401" x1="13.6241" y1="42.1084" x2="20.1757" y2="22.1069" gradientUnits="userSpaceOnUse">
<stop stop-color="#5B008B"/>
<stop offset="1" stop-color="#8E00FF"/>
</linearGradient>
<radialGradient id="paint2_radial_2204_77401" cx="0" cy="0" r="1" gradientUnits="userSpaceOnUse" gradientTransform="translate(19.7466 44.6888) scale(80.8754 80.8742)">
<stop offset="0.00558659" stop-color="#60DBFF"/>
<stop offset="0.0937306" stop-color="#60D5FF"/>
<stop offset="0.211" stop-color="#5FC4FF"/>
<stop offset="0.3446" stop-color="#5DA9FF"/>
<stop offset="0.4903" stop-color="#5A82FF"/>
<stop offset="0.6442" stop-color="#5751FF"/>
<stop offset="0.6844" stop-color="#5643FF"/>
<stop offset="0.7432" stop-color="#563DF8"/>
<stop offset="0.8282" stop-color="#552EE5"/>
<stop offset="0.9287" stop-color="#5315C6"/>
<stop offset="1" stop-color="#5200AB"/>
</radialGradient>
<linearGradient id="paint3_linear_2204_77401" x1="0.579607" y1="54.4249" x2="73.0045" y2="54.4249" gradientUnits="userSpaceOnUse">
<stop offset="0.0111732" stop-color="#81E0FF"/>
<stop offset="0.3224" stop-color="#82DDFF"/>
<stop offset="0.5506" stop-color="#86D4FF"/>
<stop offset="0.7523" stop-color="#8BC4FF"/>
<stop offset="0.9375" stop-color="#94ADFF"/>
<stop offset="1" stop-color="#97A4FF"/>
</linearGradient>
<linearGradient id="paint4_linear_2204_77401" x1="1.04013" y1="40.1748" x2="64.3585" y2="40.1748" gradientUnits="userSpaceOnUse">
<stop stop-color="#B8C2FF"/>
<stop offset="1" stop-color="#7D72B3"/>
</linearGradient>
<linearGradient id="paint5_linear_2204_77401" x1="11.3156" y1="87.3048" x2="101.276" y2="87.3048" gradientUnits="userSpaceOnUse">
<stop stop-color="#B8C2FF"/>
<stop offset="1" stop-color="#7D72B3"/>
</linearGradient>
<linearGradient id="paint6_linear_2204_77401" x1="6.00239" y1="68.6974" x2="95.782" y2="68.6974" gradientUnits="userSpaceOnUse">
<stop stop-color="#B8C2FF"/>
<stop offset="1" stop-color="#7D72B3"/>
</linearGradient>
<linearGradient id="paint7_linear_2204_77401" x1="0.581839" y1="56.1513" x2="88.831" y2="56.1513" gradientUnits="userSpaceOnUse">
<stop stop-color="#B8C2FF"/>
<stop offset="1" stop-color="#7D72B3"/>
</linearGradient>
<linearGradient id="paint8_linear_2204_77401" x1="66.1418" y1="50.1639" x2="67.3532" y2="50.1639" gradientUnits="userSpaceOnUse">
<stop stop-color="#E8DDFF"/>
<stop offset="1" stop-color="#AA8AD8"/>
</linearGradient>
<linearGradient id="paint9_linear_2204_77401" x1="55.9282" y1="75.5213" x2="60.2356" y2="62.3715" gradientUnits="userSpaceOnUse">
<stop stop-color="#5B008B"/>
<stop offset="1" stop-color="#8E00FF"/>
</linearGradient>
<linearGradient id="paint10_linear_2204_77401" x1="3.73875" y1="71.2619" x2="3.99028" y2="71.2619" gradientUnits="userSpaceOnUse">
<stop stop-color="#E8DDFF"/>
<stop offset="1" stop-color="#AA8AD8"/>
</linearGradient>
<linearGradient id="paint11_linear_2204_77401" x1="60.5799" y1="27.8726" x2="92.893" y2="27.8726" gradientUnits="userSpaceOnUse">
<stop stop-color="#7F72FF"/>
<stop offset="1" stop-color="#9A00B3"/>
</linearGradient>
<linearGradient id="paint12_linear_2204_77401" x1="67.9196" y1="105.44" x2="84.3102" y2="55.4012" gradientUnits="userSpaceOnUse">
<stop stop-color="#280077"/>
<stop offset="1" stop-color="#812CFF"/>
</linearGradient>
<linearGradient id="paint13_linear_2204_77401" x1="72.6123" y1="104.422" x2="88.2481" y2="56.6904" gradientUnits="userSpaceOnUse">
<stop stop-color="#7A00B3"/>
<stop offset="1" stop-color="#B136FF"/>
</linearGradient>
<linearGradient id="paint14_linear_2204_77401" x1="77.9983" y1="90.7296" x2="77.9983" y2="56.1555" gradientUnits="userSpaceOnUse">
<stop stop-color="#8E00B3"/>
<stop offset="1" stop-color="#E05CFF"/>
</linearGradient>
<linearGradient id="paint15_linear_2204_77401" x1="16.8597" y1="104.912" x2="23.6302" y2="84.2416" gradientUnits="userSpaceOnUse">
<stop stop-color="#280077"/>
<stop offset="1" stop-color="#812CFF"/>
</linearGradient>
<linearGradient id="paint16_linear_2204_77401" x1="58.2583" y1="122.831" x2="58.2583" y2="113.877" gradientUnits="userSpaceOnUse">
<stop stop-color="#7A00B3"/>
<stop offset="0.9162" stop-color="#7006FC"/>
<stop offset="1" stop-color="#7006F9"/>
</linearGradient>
<linearGradient id="paint17_linear_2204_77401" x1="17.266" y1="108.215" x2="17.266" y2="82.4781" gradientUnits="userSpaceOnUse">
<stop stop-color="#7A00B3"/>
<stop offset="1" stop-color="#B136FF"/>
</linearGradient>
<linearGradient id="paint18_linear_2204_77401" x1="18.6145" y1="108.205" x2="18.6145" y2="82.4782" gradientUnits="userSpaceOnUse">
<stop stop-color="#8E00B3"/>
<stop offset="1" stop-color="#E05CFF"/>
</linearGradient>
<linearGradient id="paint19_linear_2204_77401" x1="57.2488" y1="73.2851" x2="60.8115" y2="62.4086" gradientUnits="userSpaceOnUse">
<stop stop-color="#A400CA"/>
<stop offset="1" stop-color="#B136FF"/>
</linearGradient>
<linearGradient id="paint20_linear_2204_77401" x1="75.1088" y1="34.5823" x2="80.2504" y2="18.8856" gradientUnits="userSpaceOnUse">
<stop stop-color="#5B008B"/>
<stop offset="1" stop-color="#8E00FF"/>
</linearGradient>
<linearGradient id="paint21_linear_2204_77401" x1="80.954" y1="33.046" x2="80.954" y2="16.2129" gradientUnits="userSpaceOnUse">
<stop stop-color="#B000D9"/>
<stop offset="1" stop-color="#E05CFF"/>
</linearGradient>
</defs>
</svg>
