<svg width="87" height="87" viewBox="0 0 87 87" fill="none" xmlns="http://www.w3.org/2000/svg">
<path opacity="0.92" fill-rule="evenodd" clip-rule="evenodd" d="M86.6734 43.3535C86.6734 55.8813 81.3895 67.1308 72.867 75.0566C68.7763 78.8064 64.0037 81.8744 58.7197 83.8345C53.9472 85.6242 48.7485 86.6469 43.3793 86.6469C41.4192 86.6469 39.5442 86.4765 37.6693 86.306C35.9648 86.0503 34.2603 85.7947 32.641 85.3686C28.7207 84.3459 25.056 82.8119 21.647 80.8517C19.5164 79.5734 17.471 78.2098 15.5109 76.5906C10.994 72.8407 7.32932 68.1535 4.68735 62.9548C2.98286 59.6311 1.78972 56.137 0.937469 52.3872C0.340897 49.4896 0 46.5067 0 43.4387C0 34.9164 2.47151 26.9054 6.73274 20.1728C8.52246 17.3604 10.6531 14.7185 13.1246 12.3322C20.9653 4.74733 31.6183 0.0600586 43.2941 0.0600586C44.2316 0.0600586 45.169 0.0600508 46.1065 0.145274C51.0495 0.486167 55.7369 1.59407 60.0833 3.38376C60.8504 3.72465 61.6174 4.06555 62.2992 4.40644C65.4525 5.94046 68.3501 7.81537 70.9921 10.1164C71.9296 10.8834 72.7818 11.6504 73.5488 12.4174C73.8897 12.6731 74.1454 13.014 74.4011 13.3549C82.0713 21.1102 86.6734 31.6779 86.6734 43.3535Z" fill="url(#paint0_radial_2204_77386)"/>
<path fill-rule="evenodd" clip-rule="evenodd" d="M83.6906 43.3534C83.6906 55.0289 78.7476 65.5114 70.8217 72.9258C67.0718 76.42 62.5549 79.2324 57.6971 81.1073C53.2654 82.8118 48.4076 83.7492 43.3794 83.7492C41.5897 83.7492 39.7999 83.664 38.0954 83.4083C36.4762 83.2379 34.9421 82.897 33.4081 82.4708C29.7434 81.5334 26.3344 80.0846 23.1811 78.2949C21.1357 77.1018 19.2608 75.8234 17.4711 74.2894C13.2951 70.7953 9.80088 66.4489 7.32936 61.5911C5.79532 58.5231 4.60218 55.1994 3.83516 51.7053C3.23858 48.9781 2.98291 46.2509 2.98291 43.3534C2.98291 35.3424 5.28398 27.9279 9.28953 21.7066C10.994 19.0647 12.9542 16.5932 15.2553 14.3774C22.4993 7.3039 32.4706 2.95752 43.3794 2.95752C44.2316 2.95752 45.1691 2.95752 46.0213 3.04275C50.6235 3.38364 54.9699 4.40631 58.9755 6.11078C59.6573 6.36645 60.3391 6.70735 61.0209 7.04824C63.9185 8.49704 66.6457 10.2867 69.2024 12.3321C70.0547 13.0139 70.8217 13.7809 71.5887 14.5479C71.8444 14.8036 72.1853 15.0592 72.441 15.4001C79.4294 22.6441 83.6906 32.53 83.6906 43.3534Z" fill="url(#paint1_radial_2204_77386)"/>
<path opacity="0.4" fill-rule="evenodd" clip-rule="evenodd" d="M83.6908 43.3535C83.6908 55.0291 78.7478 65.5115 70.8219 72.926C67.0721 76.4201 62.5551 79.2325 57.6973 81.1074C53.2657 82.8119 48.4079 83.7493 43.3796 83.7493C41.5899 83.7493 39.8002 83.6641 38.0957 83.4084C32.7265 82.7266 27.6983 80.9369 23.1814 78.295C24.545 77.9541 25.8233 77.528 27.1869 77.1871C30.4255 76.3349 33.4936 75.3974 36.7321 75.0565C38.0105 74.8861 40.1411 74.3747 40.1411 72.7555C40.1411 72.3294 40.0559 72.1589 40.3115 71.9033C40.6524 71.6476 40.9933 71.7328 41.3342 71.6476C42.2717 71.4772 43.0387 70.4545 43.6353 69.7727C44.5728 68.6648 45.6807 67.5569 46.7886 66.6194C48.9192 64.7445 51.8169 63.8071 53.1804 61.0799C53.5213 60.3129 53.6066 59.5459 53.777 58.7789C53.9475 57.8414 54.6293 57.2449 55.4815 56.8188C56.419 56.2222 57.5269 56.0517 58.3791 55.2847C59.2314 54.6029 59.5723 53.4951 59.9132 52.4724C60.4245 50.8531 60.3393 49.1487 60.595 47.4442C60.6802 46.592 60.9359 45.7397 61.0211 44.8875C61.0211 44.0353 60.7654 43.4387 60.4245 42.6717C59.9984 41.3934 59.3166 40.0298 58.8053 38.7514C58.6348 38.2401 58.2939 37.8992 57.8678 37.5583C57.2712 37.047 56.8451 36.4504 56.2485 35.9391C55.8224 35.5982 55.3111 35.3425 54.9702 35.0016C54.6293 34.7459 54.3736 34.3198 54.1179 33.9789C53.6066 33.4676 53.0952 32.871 52.4134 32.4449C50.7942 31.5927 49.8567 29.9734 47.9817 29.6325C45.6807 29.2064 43.8057 26.8202 41.4194 27.6724C39.8854 28.1837 38.3514 28.7803 36.6469 29.2064C35.6242 29.4621 34.431 29.4621 33.4083 29.803C32.8118 30.0587 32.13 30.57 31.7038 31.0813C31.022 31.8483 30.7664 32.871 30.1698 33.638C29.7437 34.2346 29.488 34.8312 29.0619 35.513C28.3801 36.7913 28.3801 38.0696 28.3801 39.5184C28.3801 40.2854 28.2949 41.1377 28.3801 41.9047C28.4653 42.8422 28.8914 43.5239 29.488 44.2909C29.8289 44.7171 30.0846 45.4841 30.5107 45.8249C30.7664 45.9954 30.9368 45.9102 31.1925 46.0806C31.6186 46.2511 31.7891 46.4215 32.13 46.6772C33.1527 47.4442 34.2606 48.2112 35.5389 48.4669C36.2207 48.6373 36.8173 48.7225 37.4139 48.9782C37.9252 49.2339 38.5218 49.3191 39.1184 49.4043C40.482 49.5748 41.6751 49.0634 42.6978 48.2112C43.3796 47.6999 43.8057 47.2738 44.3171 46.592C44.5728 46.2511 44.7432 45.9954 45.1693 45.7397C45.425 45.5693 45.6807 45.3988 46.0216 45.4841C46.2773 45.4841 46.5329 45.825 46.8738 45.6545C47.1295 45.4841 47.2999 44.717 47.3852 44.5466C47.5556 44.1205 47.6408 43.6091 47.8113 43.2682C48.1522 42.5865 48.6635 42.7569 49.3453 42.7569C49.7715 42.7569 50.368 42.6717 50.7089 42.3308C50.9646 41.9047 50.8794 41.1377 50.7089 40.7115C50.368 40.115 49.601 39.6037 49.1749 39.1775C48.834 38.8366 48.5783 38.4105 48.2374 37.9844C47.7261 37.2174 47.4704 35.6834 46.3625 35.513C45.9364 35.4277 45.3398 35.513 44.9137 35.513C44.4023 35.513 44.0614 35.4277 43.5501 35.2573C42.783 35.0868 42.1012 34.8311 41.249 34.8311C40.2263 34.8311 39.3741 35.0868 38.4366 35.513C38.0105 35.6834 37.7548 35.5982 37.3287 35.6834C36.9025 35.8538 36.2207 36.7061 36.1355 37.2174C35.9651 38.1549 36.306 39.0071 37.2434 39.4332C37.4991 39.5184 38.1809 39.6036 38.4366 39.8593C38.6923 40.2002 38.5218 40.6263 38.3514 40.9672C38.0105 41.9047 38.1809 43.0126 39.2888 43.183C40.0559 43.2683 40.8229 42.8421 41.4194 42.5012C41.9308 42.2456 42.8683 42.1604 42.8683 41.4786C42.783 41.8195 42.2717 41.649 42.016 41.649C41.4195 41.649 41.0785 41.649 40.6524 41.3081C40.2263 40.9672 40.1411 40.6263 39.9706 40.2002C39.8854 40.0298 39.8002 39.6889 39.6297 39.5184C39.5445 39.348 39.2036 39.1775 39.2036 39.0071C38.8627 38.2401 41.4194 37.814 41.8456 37.7287C42.8683 37.6435 43.6353 38.3253 44.2319 39.0923C44.4875 39.4332 44.9989 39.9445 44.9989 40.3707C44.9989 40.7968 44.658 41.4786 44.4875 41.9047C44.3171 42.3308 44.2319 42.6717 44.0614 43.0978C43.891 43.6092 43.6353 43.6944 43.2092 43.9501C42.783 44.2057 42.4421 44.5466 42.1012 44.8875C41.6751 45.2284 41.1638 45.3136 40.6524 45.3988C39.8854 45.5693 39.2036 45.1432 38.4366 45.2284C37.7548 45.2284 37.2434 45.6545 36.6469 45.6545C35.2833 45.7397 34.1754 45.5693 33.664 44.1205C33.4936 43.5239 33.664 43.2682 34.0049 42.8421C34.431 42.416 34.2606 42.0751 34.0901 41.5638C33.8345 40.9672 33.5788 40.4559 33.4936 39.8593C33.4083 39.2628 33.7492 38.581 33.8345 37.8992C33.9197 37.3879 33.664 36.6208 33.8345 36.1947C34.0049 35.7686 34.8572 35.3425 35.2833 35.0016C35.7946 34.6607 36.3912 34.4903 36.9878 34.1494C37.6696 33.8085 38.1809 33.8937 38.8627 33.8085C39.4593 33.7233 39.715 33.2971 40.2263 33.0415C40.8229 32.7858 41.5899 32.9563 42.1865 32.9563C42.8683 32.9563 43.2092 33.2119 43.8057 33.4676C44.4023 33.7232 44.8284 34.1494 45.5102 34.2346C46.2773 34.3198 47.0443 34.1494 47.8113 34.2346C48.5783 34.3198 48.834 34.6607 49.4306 35.0868C50.0271 35.513 50.4533 35.7686 50.9646 36.4504C51.2203 36.7913 51.3055 37.1322 51.5612 37.3878C51.8168 37.7287 51.9873 37.8992 52.1577 38.3253C52.3282 38.8366 52.6691 39.348 52.8395 39.9445C52.9248 40.2854 53.01 40.5411 53.01 40.882C52.9248 41.3081 52.7543 41.7342 52.7543 42.1604C52.7543 43.183 52.3282 43.9501 51.9021 44.8875C51.476 45.825 51.0498 46.7624 50.6237 47.6999C50.368 48.2964 50.2828 49.5748 49.4306 49.7452C49.0044 49.8304 48.5783 49.7452 48.1522 50.0009C47.7261 50.2566 47.6408 50.7679 47.2999 51.0236C46.959 51.3645 46.5329 51.194 46.1068 51.194C45.425 51.194 44.8284 51.2792 44.2319 51.5349C43.4648 51.8758 42.9535 52.5576 42.2717 52.9837C41.6751 53.2394 40.9933 53.5803 40.3115 53.6655C39.8002 53.7507 39.3741 53.6655 38.8627 53.836C37.7548 54.1768 36.9025 54.8586 35.7946 55.2847C34.9424 55.5404 33.9197 55.7961 33.0674 55.7108C32.7265 55.7108 32.3856 55.5404 32.0447 55.4552C31.5334 55.2847 30.9368 55.2848 30.3403 55.1143C29.9141 55.0291 29.488 54.8586 29.0619 54.6882C28.6358 54.5177 28.3801 54.1768 27.954 54.0064C27.0165 53.5803 26.079 53.5803 25.2268 52.8985C24.1189 52.0463 23.1814 51.0236 21.9882 50.2566C21.4769 49.9157 21.2212 49.4896 20.8803 49.0634C20.6246 48.6373 20.2837 48.3816 19.9429 48.0408C19.4315 47.5294 19.1758 46.8476 18.9202 46.2511C18.494 45.2284 17.9827 44.2057 17.5566 43.0978C17.0452 41.5638 16.3634 40.115 16.0225 38.4958C15.7668 37.1322 16.1077 35.9391 16.1077 34.6607C16.1077 34.3198 16.193 33.9789 16.1077 33.638C16.0225 33.1267 15.5964 32.7858 15.2555 32.4449C14.2328 31.2518 13.2953 30.0587 12.6988 28.5246C12.1022 26.9906 11.8465 25.1157 12.2726 23.4965C12.6988 22.0477 13.6362 21.2806 14.8294 20.3432C15.9373 19.491 17.3009 18.8092 18.5793 18.2126C19.1758 17.8717 19.6872 17.5308 20.2838 17.2751C20.8803 17.0195 21.6473 16.9343 22.3291 16.7638C22.9257 16.5934 23.3518 16.5934 23.8632 16.1673C24.3745 15.8264 24.9711 15.4003 25.3972 14.9741C25.9938 14.4628 26.4199 13.8662 27.2722 13.6958C28.2949 13.4401 29.488 13.0992 30.5107 12.8436C31.8743 12.5879 33.4936 12.9288 34.8572 13.0992C36.2207 13.2697 37.4991 13.2697 38.8627 13.2697C39.9706 13.2697 41.0786 13.0992 42.1865 13.014C42.6126 13.014 43.0387 13.0992 43.4648 13.014C44.1466 13.014 44.7432 12.6731 45.425 12.5027C46.7034 12.1618 47.8113 11.5652 49.0897 11.1391C50.0271 10.7982 50.9646 10.8834 51.9021 10.713C52.9248 10.5425 53.9475 10.2016 55.0554 10.1164C55.9929 10.1164 56.9303 9.77551 57.7826 10.2016C59.3166 11.1391 60.2541 12.7583 61.7881 13.6958C63.4074 14.6332 65.1971 15.315 66.9016 15.9968C67.4982 16.2525 68.18 15.9116 68.6913 16.1673C68.947 16.2525 69.2879 16.6786 69.4583 16.9343C69.714 16.7638 69.6288 16.4229 69.6288 16.1673C69.6288 15.7411 69.8845 15.4003 69.8845 14.9741C69.8845 14.4628 69.9697 13.8662 69.8845 13.3549C69.7992 13.0992 69.4583 12.5027 69.4583 12.0765C70.3106 12.7583 71.0776 13.5253 71.8446 14.2923C79.0887 21.8772 83.6908 32.104 83.6908 43.3535Z" fill="url(#paint2_radial_2204_77386)"/>
<path opacity="0.3" fill-rule="evenodd" clip-rule="evenodd" d="M16.4484 55.6256C16.1927 56.4778 16.1075 57.4153 16.0223 58.3528C16.278 58.2675 16.6189 58.8641 16.8745 58.9493C17.3859 59.1198 17.812 59.1198 18.2381 59.3755C18.6642 59.6311 19.0904 60.2277 19.5165 60.3129C19.7722 60.3981 20.1983 60.3129 20.5392 60.3129C21.221 60.3129 21.8176 60.3129 22.4141 60.4834C23.0959 60.6538 23.9482 60.8242 24.63 60.739C25.0561 60.6538 25.8231 60.4834 26.164 60.1425C26.5049 59.8016 26.6754 58.9493 26.7606 58.438C26.8458 56.9892 25.7379 55.5404 24.63 54.6882C24.0334 54.2621 23.4368 54.262 22.755 53.9211C21.988 53.495 21.3062 53.3246 20.454 53.0689C19.9426 52.8985 19.2608 52.728 18.7495 52.728C18.2381 52.728 17.6415 53.0689 17.2154 53.1541C16.7041 53.3246 16.2779 53.3246 15.937 53.7507C15.5962 54.3473 15.7666 55.0291 16.4484 55.6256Z" fill="url(#paint3_linear_2204_77386)"/>
<path opacity="0.3" fill-rule="evenodd" clip-rule="evenodd" d="M27.8683 60.7388C27.6126 61.0797 25.2263 63.125 26.4195 63.9773C26.5047 64.0625 27.016 64.1477 27.1013 64.1477C27.4422 64.2329 27.5274 64.1477 27.8683 63.9773C28.4649 63.6364 28.5501 63.0398 28.3796 62.358C28.3796 62.1876 28.2092 61.8467 28.124 61.6762C28.0387 61.4206 27.7831 61.4206 27.6978 61.0797L27.8683 60.7388Z" fill="url(#paint4_linear_2204_77386)"/>
<path opacity="0.3" fill-rule="evenodd" clip-rule="evenodd" d="M41.5895 8.41204C42.0156 8.15637 43.3792 7.38937 44.1463 7.30415C44.4019 7.30415 44.7428 7.38936 44.9985 7.38936C45.5951 7.38936 46.1064 7.30415 46.5325 7.73027C46.8734 8.07116 47.0439 8.41204 46.7882 8.83816C46.4473 9.43472 45.5951 9.86084 44.9985 10.1165C43.7201 10.8835 42.0156 11.5653 40.4816 11.3949C39.2885 11.3096 38.1805 10.3722 37.0726 9.77562C36.3056 9.3495 34.8568 8.58249 35.7943 7.64504C36.5613 6.87803 37.7544 6.45191 38.8623 6.36669C39.3737 6.36669 40.5668 6.19625 40.9077 6.45192C41.3338 6.79281 40.9077 8.15638 41.76 8.07115L41.5895 8.41204Z" fill="url(#paint5_linear_2204_77386)"/>
<path fill-rule="evenodd" clip-rule="evenodd" d="M2.38668 35.172C2.98325 43.4387 22.244 30.0586 40.9082 24.1782C62.8109 17.1899 79.4297 32.4449 81.816 31.5926C85.6511 30.3143 70.055 0.145249 45.0842 0.571366C16.9601 0.912259 1.36398 21.8772 2.38668 35.172Z" fill="url(#paint6_linear_2204_77386)"/>
<path opacity="0.5" fill-rule="evenodd" clip-rule="evenodd" d="M0.42627 49.4043L1.78986 55.7109C1.78986 55.7109 9.28963 60.1425 26.7607 58.5232C44.2317 56.904 48.3225 48.3817 55.1405 43.4387C61.9584 38.4958 75.1682 34.5755 78.5772 30.6552C81.9862 26.8202 79.0886 19.0648 79.0886 19.0648L77.725 17.1899C77.725 17.1899 80.1965 23.8374 77.2136 28.6951C74.316 33.5528 61.2766 35.8538 54.203 42.0751C47.1294 48.2964 32.7264 53.0689 20.3688 53.1542C8.26693 53.2394 0.42627 49.4043 0.42627 49.4043Z" fill="#BDFFE8" fill-opacity="0.5"/>
<path opacity="0.5" fill-rule="evenodd" clip-rule="evenodd" d="M6.22168 65.7669L8.94887 69.7724C8.94887 69.7724 21.4769 73.437 40.3115 69.7724C59.1462 66.1078 73.3787 55.4549 79.941 49.404C86.5885 43.3532 85.7362 34.9161 85.7362 34.9161L85.1396 32.3594C85.1396 32.3594 83.9465 41.1374 76.6172 49.404C69.2879 57.6707 57.0155 65.1703 39.374 68.2384C21.8178 71.3916 6.22168 65.7669 6.22168 65.7669Z" fill="#BDFFE8" fill-opacity="0.5"/>
<path opacity="0.5" fill-rule="evenodd" clip-rule="evenodd" d="M2.98291 27.672C2.98291 27.672 27.6128 36.1091 46.6179 32.3593C65.623 28.6947 70.7365 16.4226 71.0774 10.116L67.5832 7.47412C67.5832 7.47412 67.6684 20.0872 55.6517 27.7573C43.6351 35.3421 12.7837 30.8253 4.51695 24.2631L2.98291 27.672Z" fill="#BDFFE8" fill-opacity="0.5"/>
<path fill-rule="evenodd" clip-rule="evenodd" d="M5.62486 42.501C5.88054 44.035 9.28952 41.9045 11.9315 36.7911C14.4882 31.6777 14.9996 21.0248 13.636 20.1725C12.3576 19.1499 3.74992 32.0186 5.62486 42.501Z" fill="white"/>
<path fill-rule="evenodd" clip-rule="evenodd" d="M5.88074 44.7174C4.09102 45.0582 4.17625 48.5524 5.28417 50.0012C6.39209 51.45 7.8409 50.7682 7.92613 47.7002C8.01135 45.9105 7.32956 44.4617 5.88074 44.7174Z" fill="white"/>
<path fill-rule="evenodd" clip-rule="evenodd" d="M57.0151 4.23584C57.0151 4.23584 58.7196 4.66195 59.231 6.96298C59.231 7.04821 57.5265 6.53687 57.0151 4.23584Z" fill="white"/>
<path fill-rule="evenodd" clip-rule="evenodd" d="M25.5674 5.00302C25.5674 5.00302 26.8458 3.46901 29.4025 2.78722C31.4479 2.27588 32.641 2.3611 33.0672 2.27588C33.0672 2.27588 28.7207 5.25869 25.5674 5.00302Z" fill="white"/>
<defs>
<radialGradient id="paint0_radial_2204_77386" cx="0" cy="0" r="1" gradientUnits="userSpaceOnUse" gradientTransform="translate(43.3399 43.3656) scale(43.3278 43.3271)">
<stop stop-color="#004858"/>
<stop offset="1" stop-color="#008BAB"/>
</radialGradient>
<radialGradient id="paint1_radial_2204_77386" cx="0" cy="0" r="1" gradientUnits="userSpaceOnUse" gradientTransform="translate(31.898 31.9114) scale(59.2251 59.2242)">
<stop offset="0.00558659" stop-color="#00CEC0"/>
<stop offset="0.2576" stop-color="#00CCC0"/>
<stop offset="0.3833" stop-color="#00C4C1"/>
<stop offset="0.4811" stop-color="#00B7C2"/>
<stop offset="0.5645" stop-color="#00A4C4"/>
<stop offset="0.6387" stop-color="#008CC6"/>
<stop offset="0.7054" stop-color="#006EC8"/>
<stop offset="0.7179" stop-color="#0068C9"/>
<stop offset="0.7438" stop-color="#0767CB"/>
<stop offset="0.7813" stop-color="#1A66CF"/>
<stop offset="0.8259" stop-color="#3A63D6"/>
<stop offset="0.8759" stop-color="#6660E0"/>
<stop offset="0.9304" stop-color="#9E5BEC"/>
<stop offset="0.9879" stop-color="#E255FC"/>
<stop offset="1" stop-color="#F154FF"/>
</radialGradient>
<radialGradient id="paint2_radial_2204_77386" cx="0" cy="0" r="1" gradientUnits="userSpaceOnUse" gradientTransform="translate(47.8335 46.9756) scale(36.3261 36.3256)">
<stop stop-color="#1372B3"/>
<stop offset="1" stop-color="white"/>
</radialGradient>
<linearGradient id="paint3_linear_2204_77386" x1="15.7895" y1="56.7756" x2="26.7734" y2="56.7756" gradientUnits="userSpaceOnUse">
<stop stop-color="#B8C2FF"/>
<stop offset="1" stop-color="#7D72B3"/>
</linearGradient>
<linearGradient id="paint4_linear_2204_77386" x1="26.0471" y1="62.472" x2="28.3101" y2="62.472" gradientUnits="userSpaceOnUse">
<stop stop-color="#B8C2FF"/>
<stop offset="1" stop-color="#7D72B3"/>
</linearGradient>
<linearGradient id="paint5_linear_2204_77386" x1="35.5601" y1="8.9556" x2="46.9343" y2="8.9556" gradientUnits="userSpaceOnUse">
<stop stop-color="#B8C2FF"/>
<stop offset="1" stop-color="#7D72B3"/>
</linearGradient>
<linearGradient id="paint6_linear_2204_77386" x1="18.4943" y1="6.90221" x2="60.935" y2="61.3362" gradientUnits="userSpaceOnUse">
<stop offset="0.0167598" stop-color="#B1FDF9"/>
<stop offset="1" stop-color="#37C7D1" stop-opacity="0"/>
</linearGradient>
</defs>
</svg>
